<svg width="16" height="22" viewBox="0 0 16 22" fill="none" xmlns="http://www.w3.org/2000/svg">
<g clip-path="url(#clip0_0_4469)">
<path d="M4.39218 11.4957C4.39166 11.4955 4.39113 11.4952 4.39061 11.495C4.33217 11.4662 4.27105 11.4072 4.24017 11.3176C4.2162 11.2481 4.21468 11.1701 4.23667 11.0982C4.23681 11.0977 4.23695 11.0972 4.2371 11.0968C4.24272 11.0787 4.24983 11.0609 4.25846 11.0438C4.26132 11.0382 4.26435 11.0326 4.26755 11.027L4.26276 11.0353L4.25819 11.0437C4.25971 11.0409 4.24826 11.0615 4.23122 11.0934C4.23101 11.0938 4.2308 11.0942 4.23058 11.0946C4.22729 11.1008 4.22379 11.1073 4.22015 11.1143C4.19695 11.1583 4.16562 11.2192 4.12856 11.2954C4.05454 11.4476 3.9571 11.6614 3.85555 11.9225C3.65475 12.4388 3.43028 13.1593 3.34772 13.965L3.14991 13.9445L4.39218 11.4957Z" fill="black" stroke="black" stroke-width="1.5"/>
<mask id="path-2-inside-1_0_4469" fill="white">
<path d="M13.8783 10.8137C13.3697 9.60885 12.6624 8.18793 11.775 6.59412C10.2783 3.89814 8.8081 1.6587 8.74452 1.56416L7.95512 0.364746L7.16571 1.56416C7.10479 1.6587 5.63194 3.89814 4.13525 6.59412C3.25048 8.18793 2.5432 9.60885 2.03194 10.8137C1.35115 12.4237 1.02002 13.6528 1.02002 14.5659C1.02002 15.4789 1.2028 16.446 1.56571 17.3186C1.91538 18.1614 2.41605 18.9178 3.05181 19.5661C3.68757 20.2144 4.42929 20.725 5.25578 21.0816C6.11141 21.4517 7.02002 21.6381 7.95512 21.6381C8.89022 21.6381 9.79883 21.4517 10.6545 21.0816C11.4809 20.725 12.2227 20.2144 12.8584 19.5661C13.4942 18.9178 13.9949 18.1614 14.3445 17.3186C14.7074 16.446 14.8902 15.5195 14.8902 14.5659C14.8902 13.6123 14.5591 12.4237 13.8783 10.8137ZM7.95777 20.6683C4.65446 20.6683 1.97366 17.9372 1.97366 14.5659C1.97366 11.1946 7.95777 2.10173 7.95777 2.10173C7.95777 2.10173 13.9419 11.1946 13.9419 14.5659C13.9419 17.9372 11.2637 20.6683 7.95777 20.6683Z"/>
</mask>
<path d="M13.8783 10.8137C13.3697 9.60885 12.6624 8.18793 11.775 6.59412C10.2783 3.89814 8.8081 1.6587 8.74452 1.56416L7.95512 0.364746L7.16571 1.56416C7.10479 1.6587 5.63194 3.89814 4.13525 6.59412C3.25048 8.18793 2.5432 9.60885 2.03194 10.8137C1.35115 12.4237 1.02002 13.6528 1.02002 14.5659C1.02002 15.4789 1.2028 16.446 1.56571 17.3186C1.91538 18.1614 2.41605 18.9178 3.05181 19.5661C3.68757 20.2144 4.42929 20.725 5.25578 21.0816C6.11141 21.4517 7.02002 21.6381 7.95512 21.6381C8.89022 21.6381 9.79883 21.4517 10.6545 21.0816C11.4809 20.725 12.2227 20.2144 12.8584 19.5661C13.4942 18.9178 13.9949 18.1614 14.3445 17.3186C14.7074 16.446 14.8902 15.5195 14.8902 14.5659C14.8902 13.6123 14.5591 12.4237 13.8783 10.8137ZM7.95777 20.6683C4.65446 20.6683 1.97366 17.9372 1.97366 14.5659C1.97366 11.1946 7.95777 2.10173 7.95777 2.10173C7.95777 2.10173 13.9419 11.1946 13.9419 14.5659C13.9419 17.9372 11.2637 20.6683 7.95777 20.6683Z" fill="black"/>
<path d="M13.8783 10.8137L12.4964 11.397L12.4967 11.3979L13.8783 10.8137ZM11.775 6.59412L10.4635 7.32218L10.4644 7.32382L11.775 6.59412ZM8.74452 1.56416L7.49155 2.38881L7.49563 2.39501L7.49976 2.40116L8.74452 1.56416ZM7.95512 0.364746L9.20809 -0.45991L7.95512 -2.36366L6.70215 -0.459911L7.95512 0.364746ZM7.16571 1.56416L5.91274 0.7395L5.90876 0.745551L5.90483 0.751641L7.16571 1.56416ZM4.13525 6.59412L2.82379 5.86605L2.82378 5.86608L4.13525 6.59412ZM2.03194 10.8137L0.651118 10.2277L0.650376 10.2295L2.03194 10.8137ZM1.56571 17.3186L2.95121 16.7438L2.95069 16.7425L1.56571 17.3186ZM5.25578 21.0816L5.85127 19.7049L5.85 19.7043L5.25578 21.0816ZM10.6545 21.0816L10.0602 19.7043L10.059 19.7049L10.6545 21.0816ZM14.3445 17.3186L12.9595 16.7425L12.959 16.7438L14.3445 17.3186ZM7.95777 2.10173L9.21077 1.27711L7.95777 -0.626814L6.70477 1.27711L7.95777 2.10173ZM15.2602 10.2303C14.7244 8.96094 13.9904 7.48957 13.0855 5.86442L10.4644 7.32382C11.3344 8.88628 12.015 10.2568 12.4964 11.397L15.2602 10.2303ZM13.0864 5.86605C11.5645 3.12463 10.0707 0.848298 9.98928 0.727154L7.49976 2.40116C7.49882 2.39976 7.50434 2.40802 7.51908 2.43044C7.53243 2.45076 7.55108 2.47924 7.57471 2.51553C7.62195 2.58806 7.6885 2.69082 7.77167 2.82052C7.93802 3.07995 8.17028 3.44627 8.44698 3.89321C9.00107 4.78815 9.72992 6.00074 10.4635 7.32218L13.0864 5.86605ZM9.9975 0.7395L9.20809 -0.45991L6.70215 1.1894L7.49155 2.38881L9.9975 0.7395ZM6.70215 -0.459911L5.91274 0.7395L8.41869 2.38881L9.20809 1.1894L6.70215 -0.459911ZM5.90483 0.751641C5.90529 0.75094 5.90411 0.752763 5.89899 0.760619C5.89441 0.767661 5.88894 0.776044 5.88131 0.787753C5.86652 0.810447 5.84631 0.841492 5.82112 0.880304C5.77075 0.957935 5.70078 1.06616 5.61399 1.20161C5.44047 1.47242 5.19977 1.85196 4.91375 2.31366C4.34241 3.23593 3.58705 4.49121 2.82379 5.86605L5.44671 7.32218C6.91622 4.67517 8.36345 2.47466 8.42659 2.37667L5.90483 0.751641ZM2.82378 5.86608C1.92204 7.49046 1.18892 8.96036 0.651119 10.2277L3.41276 11.3996C3.89748 10.2573 4.57892 8.8854 5.44673 7.32215L2.82378 5.86608ZM0.650376 10.2295C-0.0504228 11.8868 -0.47998 13.3431 -0.47998 14.5659H2.52002C2.52002 13.9625 2.75271 12.9606 3.4135 11.3979L0.650376 10.2295ZM-0.47998 14.5659C-0.47998 15.6691 -0.260972 16.8326 0.180736 17.8946L2.95069 16.7425C2.66657 16.0594 2.52002 15.2888 2.52002 14.5659H-0.47998ZM0.18022 17.8934C0.603294 18.9131 1.21065 19.831 1.98082 20.6163L4.1228 18.5159C3.62144 18.0046 3.22747 17.4097 2.95121 16.7438L0.18022 17.8934ZM1.98082 20.6163C2.75102 21.4018 3.65414 22.0242 4.66157 22.4589L5.85 19.7043C5.20445 19.4258 4.62412 19.0271 4.1228 18.5159L1.98082 20.6163ZM4.6603 22.4583C5.70589 22.9106 6.81735 23.1381 7.95512 23.1381V20.1381C7.22269 20.1381 6.51692 19.9928 5.85126 19.7049L4.6603 22.4583ZM7.95512 23.1381C9.09289 23.1381 10.2043 22.9106 11.2499 22.4583L10.059 19.7049C9.39331 19.9928 8.68755 20.1381 7.95512 20.1381V23.1381ZM11.2487 22.4589C12.2561 22.0242 13.1592 21.4018 13.9294 20.6163L11.7874 18.5159C11.2861 19.0271 10.7058 19.4258 10.0602 19.7043L11.2487 22.4589ZM13.9294 20.6163C14.6996 19.831 15.3069 18.9131 15.73 17.8934L12.959 16.7438C12.6828 17.4097 12.2888 18.0046 11.7874 18.5159L13.9294 20.6163ZM15.7295 17.8946C16.1696 16.8365 16.3902 15.7139 16.3902 14.5659H13.3902C13.3902 15.325 13.2453 16.0556 12.9595 16.7425L15.7295 17.8946ZM16.3902 14.5659C16.3902 13.2998 15.9585 11.8817 15.2599 10.2295L12.4967 11.3979C13.1597 12.9657 13.3902 13.9248 13.3902 14.5659H16.3902ZM7.95777 19.1683C5.51 19.1683 3.47366 17.1361 3.47366 14.5659H0.473662C0.473662 18.7382 3.79891 22.1683 7.95777 22.1683V19.1683ZM3.47366 14.5659C3.47366 14.0533 3.73253 13.099 4.29021 11.7803C4.82188 10.5232 5.54159 9.12254 6.27715 7.79766C7.01007 6.47755 7.74497 5.25719 8.29771 4.3654C8.57369 3.92013 8.80333 3.55827 8.9634 3.30862C9.04341 3.18382 9.10597 3.08716 9.14818 3.02222C9.16929 2.98976 9.1853 2.96523 9.19585 2.9491C9.20113 2.94104 9.20504 2.93507 9.20754 2.93126C9.20879 2.92935 9.20969 2.92799 9.21023 2.92716C9.2105 2.92675 9.21068 2.92648 9.21077 2.92634C9.21081 2.92627 9.21081 2.92628 9.21084 2.92624C9.21081 2.92628 9.21077 2.92635 7.95777 2.10173C6.70477 1.27711 6.70468 1.27725 6.70456 1.27743C6.70449 1.27753 6.70436 1.27774 6.70422 1.27795C6.70395 1.27836 6.70358 1.27892 6.70313 1.27961C6.70222 1.281 6.70095 1.28293 6.69932 1.28541C6.69607 1.29036 6.6914 1.29749 6.68535 1.30673C6.67326 1.32521 6.65567 1.35216 6.63294 1.38712C6.5875 1.45703 6.5215 1.55901 6.43788 1.68943C6.27069 1.9502 6.03282 2.32506 5.74779 2.78493C5.17851 3.70339 4.41739 4.96695 3.65428 6.34146C2.89381 7.7112 2.1175 9.21589 1.52715 10.6118C0.962806 11.9462 0.473662 13.3928 0.473662 14.5659H3.47366ZM7.95777 2.10173C6.70477 2.92635 6.70472 2.92628 6.7047 2.92624C6.70472 2.92628 6.70472 2.92627 6.70477 2.92634C6.70486 2.92648 6.70504 2.92675 6.70531 2.92716C6.70585 2.92799 6.70674 2.92935 6.70799 2.93126C6.7105 2.93507 6.71441 2.94104 6.71968 2.9491C6.73024 2.96523 6.74625 2.98976 6.76735 3.02222C6.80956 3.08716 6.87213 3.18382 6.95214 3.30862C7.1122 3.55827 7.34184 3.92013 7.61782 4.3654C8.17056 5.25719 8.90547 6.47755 9.63838 7.79766C10.3739 9.12254 11.0937 10.5232 11.6253 11.7803C12.183 13.099 12.4419 14.0533 12.4419 14.5659H15.4419C15.4419 13.3928 14.9527 11.9462 14.3884 10.6118C13.798 9.21589 13.0217 7.7112 12.2613 6.34146C11.4981 4.96695 10.737 3.70339 10.1677 2.78493C9.88272 2.32506 9.64485 1.9502 9.47765 1.68943C9.39404 1.55901 9.32804 1.45703 9.28259 1.38712C9.25987 1.35216 9.24228 1.32521 9.23018 1.30673C9.22414 1.29749 9.21947 1.29036 9.21622 1.28541C9.21459 1.28293 9.21332 1.281 9.21241 1.27961C9.21196 1.27892 9.21159 1.27836 9.21132 1.27795C9.21118 1.27774 9.21104 1.27753 9.21097 1.27743C9.21086 1.27725 9.21077 1.27711 7.95777 2.10173ZM12.4419 14.5659C12.4419 17.1366 10.4078 19.1683 7.95777 19.1683V22.1683C12.1197 22.1683 15.4419 18.7378 15.4419 14.5659H12.4419Z" fill="black" mask="url(#path-2-inside-1_0_4469)"/>
</g>
<defs>
<clipPath id="clip0_0_4469">
<rect width="16" height="22" fill="white"/>
</clipPath>
</defs>
</svg>
