<svg width="28" height="29" viewBox="0 0 28 29" fill="none" xmlns="http://www.w3.org/2000/svg">
<path d="M21.7287 1.57932L15.822 1.02315L15.8044 1.02149C14.9233 0.93852 14.4801 0.896784 14.0591 0.972602C13.6836 1.04023 13.3223 1.17506 12.9921 1.37209C12.6215 1.59318 12.3061 1.91983 11.6795 2.56888L11.6685 2.58021L3.26736 11.2817L3.25975 11.2896C1.97596 12.6192 1.33361 13.2846 1.09264 14.0527C0.880251 14.7297 0.88025 15.4592 1.09264 16.1362C1.33408 16.9058 1.97858 17.5747 3.26743 18.9096L9.7111 25.5836C11 26.9185 11.6443 27.5846 12.3874 27.8347C13.0411 28.0547 13.7451 28.0547 14.3988 27.8347C15.1419 27.5846 15.7863 26.9182 17.0751 25.5833L25.4763 16.8818C26.1102 16.2252 26.4272 15.8968 26.6419 15.5107C26.8322 15.1686 26.9629 14.7943 27.0282 14.4054C27.1019 13.9664 27.0614 13.5039 26.9802 12.5792L26.4432 6.46133L26.4431 6.45983C26.3034 4.86849 26.2335 4.07213 25.8991 3.44926C25.6042 2.89993 25.1668 2.44692 24.6364 2.14144C24.038 1.79674 23.274 1.72481 21.7523 1.58153L21.7287 1.57932Z" stroke="#808080" stroke-width="1.81967" stroke-linecap="round" stroke-linejoin="round"/>
</svg>
