<svg width="12" height="12" viewBox="0 0 12 12" fill="none" xmlns="http://www.w3.org/2000/svg">
<g clip-path="url(#clip0_0_4647)">
<path d="M2.55957 6C2.55957 5.76 2.6529 5.56 2.83957 5.4L7.99957 0.240001C8.15957 0.0799999 8.3529 0 8.57957 0C8.80624 0 9.00624 0.0799999 9.17957 0.240001C9.3529 0.400001 9.43957 0.6 9.43957 0.84C9.43957 1.08 9.34624 1.28 9.15957 1.44L4.59957 6L9.15957 10.56C9.31957 10.72 9.39957 10.92 9.39957 11.16C9.39957 11.4 9.31957 11.6 9.15957 11.76C8.99957 11.92 8.80624 12 8.57957 12C8.3529 12 8.15957 11.92 7.99957 11.76L2.83957 6.6C2.6529 6.44 2.55957 6.24 2.55957 6Z" fill="white"/>
</g>
<defs>
<clipPath id="clip0_0_4647">
<rect width="12" height="12" fill="white" transform="matrix(1 0 0 -1 0 12)"/>
</clipPath>
</defs>
</svg>
