<svg width="21" height="21" viewBox="0 0 21 21" fill="none" xmlns="http://www.w3.org/2000/svg">
<g clip-path="url(#clip0_0_5823)">
<path d="M17.4665 13.2744C17.35 13.5383 17.3153 13.8311 17.3668 14.1149C17.4182 14.3988 17.5535 14.6607 17.7553 14.8669L17.8078 14.9194C17.9705 15.0819 18.0996 15.2749 18.1876 15.4874C18.2757 15.6998 18.321 15.9275 18.321 16.1575C18.321 16.3875 18.2757 16.6152 18.1876 16.8277C18.0996 17.0401 17.9705 17.2331 17.8078 17.3956C17.6452 17.5583 17.4522 17.6874 17.2398 17.7755C17.0273 17.8636 16.7996 17.9089 16.5696 17.9089C16.3397 17.9089 16.1119 17.8636 15.8995 17.7755C15.6871 17.6874 15.494 17.5583 15.3315 17.3956L15.279 17.3431C15.0728 17.1414 14.8109 17.0061 14.527 16.9546C14.2432 16.9032 13.9504 16.9379 13.6865 17.0544C13.4277 17.1653 13.207 17.3495 13.0515 17.5842C12.8961 17.819 12.8126 18.0941 12.8115 18.3756V18.5244C12.8115 18.9885 12.6271 19.4336 12.299 19.7618C11.9708 20.09 11.5256 20.2744 11.0615 20.2744C10.5974 20.2744 10.1523 20.09 9.82408 19.7618C9.49589 19.4336 9.31152 18.9885 9.31152 18.5244V18.4456C9.30475 18.156 9.211 17.8751 9.04247 17.6395C8.87394 17.4039 8.63841 17.2244 8.36652 17.1244C8.10261 17.0079 7.80985 16.9732 7.52601 17.0246C7.24216 17.0761 6.98024 17.2114 6.77402 17.4131L6.72152 17.4656C6.55899 17.6283 6.36599 17.7574 6.15354 17.8455C5.94109 17.9336 5.71337 17.9789 5.4834 17.9789C5.25342 17.9789 5.0257 17.9336 4.81325 17.8455C4.6008 17.7574 4.4078 17.6283 4.24527 17.4656C4.08256 17.3031 3.95348 17.1101 3.86542 16.8977C3.77735 16.6852 3.73202 16.4575 3.73202 16.2275C3.73202 15.9975 3.77735 15.7698 3.86542 15.5574C3.95348 15.3449 4.08256 15.1519 4.24527 14.9894L4.29777 14.9369C4.49949 14.7307 4.63481 14.4688 4.68627 14.1849C4.73774 13.9011 4.703 13.6083 4.58652 13.3444C4.4756 13.0856 4.29143 12.8649 4.05668 12.7094C3.82192 12.5539 3.54683 12.4705 3.26527 12.4694H3.11652C2.65239 12.4694 2.20727 12.285 1.87908 11.9568C1.5509 11.6286 1.36652 11.1835 1.36652 10.7194C1.36652 10.2553 1.5509 9.81014 1.87908 9.48195C2.20727 9.15376 2.65239 8.96939 3.11652 8.96939H3.19527C3.48489 8.96262 3.76577 8.86887 4.00141 8.70034C4.23704 8.5318 4.41652 8.29628 4.51652 8.02439C4.633 7.76048 4.66774 7.46772 4.61627 7.18388C4.56481 6.90003 4.42949 6.63811 4.22777 6.43189L4.17527 6.37939C4.01256 6.21686 3.88348 6.02386 3.79542 5.81141C3.70735 5.59896 3.66202 5.37124 3.66202 5.14126C3.66202 4.91129 3.70735 4.68357 3.79542 4.47112C3.88348 4.25867 4.01256 4.06567 4.17527 3.90314C4.3378 3.74043 4.5308 3.61135 4.74325 3.52329C4.9557 3.43522 5.18342 3.38989 5.4134 3.38989C5.64337 3.38989 5.87109 3.43522 6.08354 3.52329C6.29599 3.61135 6.48899 3.74043 6.65152 3.90314L6.70402 3.95564C6.91024 4.15736 7.17216 4.29268 7.45601 4.34414C7.73985 4.39561 8.03261 4.36087 8.29652 4.24439H8.36652C8.62532 4.13347 8.84604 3.9493 9.0015 3.71455C9.15697 3.47979 9.2404 3.2047 9.24152 2.92314V2.77439C9.24152 2.31026 9.4259 1.86514 9.75408 1.53695C10.0823 1.20876 10.5274 1.02439 10.9915 1.02439C11.4556 1.02439 11.9008 1.20876 12.229 1.53695C12.5571 1.86514 12.7415 2.31026 12.7415 2.77439V2.85314C12.7426 3.1347 12.8261 3.40979 12.9815 3.64455C13.137 3.8793 13.3577 4.06347 13.6165 4.17439C13.8804 4.29087 14.1732 4.32561 14.457 4.27414C14.7409 4.22268 15.0028 4.08736 15.209 3.88564L15.2615 3.83314C15.424 3.67043 15.6171 3.54135 15.8295 3.45329C16.0419 3.36522 16.2697 3.31989 16.4996 3.31989C16.7296 3.31989 16.9573 3.36522 17.1698 3.45329C17.3822 3.54135 17.5752 3.67043 17.7378 3.83314C17.9005 3.99567 18.0296 4.18867 18.1176 4.40112C18.2057 4.61357 18.251 4.84129 18.251 5.07127C18.251 5.30124 18.2057 5.52896 18.1176 5.74141C18.0296 5.95386 17.9005 6.14686 17.7378 6.30939L17.6853 6.36189C17.4835 6.56811 17.3482 6.83003 17.2968 7.11387C17.2453 7.39772 17.28 7.69048 17.3965 7.95439V8.02439C17.5074 8.28319 17.6916 8.5039 17.9264 8.65937C18.1611 8.81484 18.4362 8.89827 18.7178 8.89939H18.8665C19.3306 8.89939 19.7758 9.08376 20.104 9.41195C20.4321 9.74014 20.6165 10.1853 20.6165 10.6494C20.6165 11.1135 20.4321 11.5586 20.104 11.8868C19.7758 12.215 19.3306 12.3994 18.8665 12.3994H18.7878C18.5062 12.4005 18.2311 12.4839 17.9964 12.6394C17.7616 12.7949 17.5774 13.0156 17.4665 13.2744V13.2744Z" stroke="white" stroke-width="2" stroke-linecap="round" stroke-linejoin="round"/>
<path d="M10.9902 13.2743C12.4399 13.2743 13.6152 12.0991 13.6152 10.6493C13.6152 9.19956 12.4399 8.02431 10.9902 8.02431C9.54044 8.02431 8.36519 9.19956 8.36519 10.6493C8.36519 12.0991 9.54044 13.2743 10.9902 13.2743Z" stroke="white" stroke-width="2" stroke-linecap="round" stroke-linejoin="round"/>
</g>
<defs>
<clipPath id="clip0_0_5823">
<rect width="20.5" height="20.5" fill="white" transform="scale(1.02439)"/>
</clipPath>
</defs>
</svg>
