<svg width="16" height="16" viewBox="0 0 16 16" fill="none" xmlns="http://www.w3.org/2000/svg">
<path d="M5.76752 7.06965C4.63634 7.06965 3.72098 6.15429 3.72098 5.02311C3.72098 3.89194 4.63634 2.97658 5.76752 2.97658C6.89869 2.97658 7.81405 3.89194 7.81405 5.02311C7.81405 6.15429 6.89869 7.06965 5.76752 7.06965ZM5.76752 4.09287C5.25402 4.09287 4.83727 4.50962 4.83727 5.02311C4.83727 5.53661 5.25402 5.95336 5.76752 5.95336C6.28101 5.95336 6.69776 5.53661 6.69776 5.02311C6.69776 4.50962 6.28101 4.09287 5.76752 4.09287Z" fill="white"/>
<path d="M10.2327 16.0002H5.76752C1.72653 16.0002 0 14.2737 0 10.2327V5.76752C0 1.72653 1.72653 0 5.76752 0H8.7443C9.04942 0 9.30245 0.253027 9.30245 0.558147C9.30245 0.863267 9.04942 1.11629 8.7443 1.11629H5.76752C2.33677 1.11629 1.11629 2.33677 1.11629 5.76752V10.2327C1.11629 13.6634 2.33677 14.8839 5.76752 14.8839H10.2327C13.6634 14.8839 14.8839 13.6634 14.8839 10.2327V6.51171C14.8839 6.20659 15.1369 5.95357 15.4421 5.95357C15.7472 5.95357 16.0002 6.20659 16.0002 6.51171V10.2327C16.0002 14.2737 14.2737 16.0002 10.2327 16.0002Z" fill="white"/>
<path d="M11.3932 4.79269C11.2518 4.79269 11.1104 4.7406 10.9988 4.62897C10.783 4.41315 10.783 4.05594 10.9988 3.84012L13.8937 0.945199C14.1095 0.729382 14.4667 0.729382 14.6826 0.945199C14.8984 1.16102 14.8984 1.51823 14.6826 1.73405L11.7876 4.62897C11.676 4.7406 11.5346 4.79269 11.3932 4.79269Z" fill="white"/>
<path d="M14.2809 4.79269C14.1395 4.79269 13.9981 4.7406 13.8865 4.62897L10.9915 1.73405C10.7757 1.51823 10.7757 1.16102 10.9915 0.945199C11.2073 0.729382 11.5646 0.729382 11.7804 0.945199L14.6753 3.84012C14.8911 4.05594 14.8911 4.41315 14.6753 4.62897C14.5711 4.7406 14.4297 4.79269 14.2809 4.79269Z" fill="white"/>
<path d="M1.05666 13.7302C0.878058 13.7302 0.699451 13.6409 0.595263 13.4846C0.424098 13.2316 0.491076 12.8818 0.744102 12.7106L4.41299 10.2474C5.21672 9.71154 6.32557 9.77107 7.05488 10.3888L7.30047 10.6046C7.67256 10.9246 8.30513 10.9246 8.66979 10.6046L11.7656 7.94779C12.5545 7.27058 13.7973 7.27058 14.5936 7.94779L15.8066 8.98967C16.0373 9.1906 16.0671 9.54037 15.8662 9.77852C15.6652 10.0092 15.3155 10.039 15.0773 9.83805L13.8643 8.79618C13.4922 8.47617 12.8596 8.47617 12.495 8.79618L9.3991 11.453C8.61025 12.1302 7.36744 12.1302 6.57115 11.453L6.32557 11.2371C5.98324 10.9469 5.41765 10.9171 5.03811 11.1776L1.37667 13.6409C1.27248 13.7004 1.16085 13.7302 1.05666 13.7302Z" fill="white"/>
</svg>
