<svg width="26" height="26" viewBox="0 0 26 26" fill="none" xmlns="http://www.w3.org/2000/svg">
<g clip-path="url(#clip0_0_2080)">
<g clip-path="url(#clip1_0_2080)">
<path d="M8.51276 22.624C8.61501 22.4608 8.84979 22.4041 9.02398 22.4998C9.19818 22.5956 9.27391 22.8013 9.17167 22.9645C8.93689 23.3334 8.6453 23.6491 8.30827 23.8939H10.5576C10.8341 23.8939 10.9666 23.8939 11.1408 24.0039C11.2734 24.0996 11.3302 24.2096 11.4475 24.4154C11.493 24.4969 11.5649 24.6069 11.6672 24.7843C12.3109 25.8236 13.2463 26.675 14.3558 27.2744C15.4237 27.8491 16.6506 28.179 17.9798 28.179C18.8281 28.179 19.6612 28.0407 20.4223 27.7959C21.0812 27.576 21.6947 27.2603 22.2476 26.8913C22.5846 26.6572 22.8307 26.455 23.2132 26.2599C23.448 26.15 23.6941 26.04 23.9895 25.93L27.746 24.5466C27.8331 24.504 27.9202 24.504 28.0225 24.5466C28.2269 24.614 28.4466 24.6708 28.6662 24.7098C28.8859 24.7523 29.1206 24.763 29.3403 24.763C30.3627 24.763 31.2829 24.3799 31.9418 23.7627C32.6007 23.1312 33.0097 22.2834 33.0097 21.3257C33.0097 20.5311 32.7181 19.7791 32.222 19.1902C31.7108 18.6014 31.0103 18.1651 30.1923 17.9842C30.1052 17.97 30.0446 17.931 29.9878 17.8884C29.8401 17.75 29.8401 17.5195 29.9878 17.3811L33.714 13.8906C34.1798 13.4401 34.4298 12.8655 34.4298 12.2766C34.4298 11.6878 34.1798 11.0989 33.714 10.6626L29.3744 6.59746C28.9086 6.16115 28.28 5.94122 27.6513 5.94122C27.0227 5.94122 26.4093 6.16115 25.9283 6.59746L24.4515 7.99508C24.1145 8.31079 23.6184 8.40656 23.1791 8.2292C22.7398 8.05184 22.4634 7.66873 22.4634 7.21469V5.94122H13.5189V7.21469C13.5189 7.66519 13.2425 8.06248 12.8032 8.2292C12.364 8.40656 11.8679 8.31079 11.5309 7.99508L10.0389 6.59746C9.57307 6.16115 8.94446 5.94122 8.32721 5.94122C7.70996 5.94122 7.08513 6.14696 6.61557 6.58327L2.26072 10.6626C1.7798 11.0989 1.54501 11.6878 1.54501 12.2766C1.54501 12.8655 1.7798 13.4401 2.26072 13.8906L6.7784 18.1225C6.8655 18.1367 6.95259 18.1509 7.05484 18.1757C7.34642 18.2431 7.62665 18.3531 7.88794 18.5056C8.07728 18.6014 8.13787 18.8213 8.03562 18.9845C7.93338 19.1477 7.6986 19.2044 7.5244 19.1086C7.31991 18.9987 7.08513 18.9171 6.8655 18.8497C6.63071 18.7965 6.39972 18.7681 6.14979 18.7681C5.38864 18.7681 4.71837 19.0554 4.2223 19.5201C3.72622 19.9848 3.41949 20.6304 3.41949 21.3257C3.41949 22.021 3.72622 22.6807 4.2223 23.1454C4.71837 23.5959 5.39242 23.8833 6.14979 23.8833C6.64586 23.8833 7.11543 23.7591 7.5244 23.5427C7.93338 23.3228 8.28555 23.0071 8.51655 22.6133L8.51276 22.624ZM6.146 24.6104C5.18036 24.6104 4.32075 24.2415 3.67699 23.6527C3.04838 23.0638 2.6697 22.2409 2.6697 21.3399C2.6697 20.4389 3.04838 19.6301 3.67699 19.0413C4.21851 18.5482 4.90392 18.2076 5.68022 18.1119L1.71921 14.4014C1.10574 13.8268 0.799011 13.0606 0.799011 12.2944C0.799011 11.5282 1.10574 10.7619 1.71921 10.1873L6.0892 6.09375C6.70266 5.53328 7.50547 5.24596 8.32342 5.24596C9.14137 5.24596 9.94418 5.53328 10.5728 6.12213L12.0497 7.50556C12.1822 7.62971 12.3412 7.65455 12.5041 7.60134C12.6631 7.53394 12.7654 7.3956 12.7654 7.23242V5.95896H12.0913C11.5952 5.95896 11.0234 5.75321 10.6144 5.4517C10.2055 5.15018 9.92903 4.7387 9.92903 4.2882C9.92903 3.63195 10.3532 3.09632 11.0537 2.67419C11.7278 2.2769 12.648 1.97538 13.7272 1.76964C13.9166 1.26238 14.4581 0.936035 15.0147 0.936035H20.9487C21.5205 0.936035 22.0317 1.26593 22.2362 1.76964C23.2586 1.96119 24.1372 2.24852 24.7923 2.61744C25.5686 3.04311 26.0344 3.60357 26.0344 4.2882C26.0344 4.7387 25.7579 5.15018 25.349 5.4517C24.9248 5.75321 24.3682 5.95896 23.8721 5.95896H23.198V7.23242C23.198 7.3956 23.2851 7.53394 23.448 7.60134C23.6222 7.65455 23.785 7.62971 23.9024 7.50556L25.3944 6.12213C26.0079 5.53328 26.8258 5.24596 27.6438 5.24596C28.4617 5.24596 29.2797 5.53328 29.9083 6.12213L34.2328 10.1873C34.8615 10.7619 35.1682 11.5282 35.1682 12.2944C35.1682 13.0606 34.8615 13.8268 34.2328 14.4014L30.9459 17.4805C31.6919 17.7536 32.3205 18.2076 32.8014 18.7681C33.3997 19.4811 33.7671 20.3821 33.7671 21.3434C33.7671 22.4927 33.271 23.5214 32.4682 24.2735C31.6654 25.0255 30.5672 25.4902 29.3403 25.4902C29.079 25.4902 28.7988 25.4618 28.5375 25.4228C28.3178 25.3802 28.0982 25.327 27.8937 25.2596L24.2697 26.6005C23.9933 26.6962 23.7585 26.792 23.5692 26.8878C23.2321 27.051 23.0125 27.2567 22.7058 27.4483C22.0923 27.8739 21.4069 28.2145 20.676 28.4628C19.8278 28.7359 18.9227 28.8884 17.9874 28.8884C16.5257 28.8884 15.1662 28.5337 13.9847 27.8881C12.7578 27.2461 11.7505 26.2848 11.031 25.1496C10.9439 25.0006 10.8568 24.8623 10.7962 24.7523C10.7508 24.6708 10.6788 24.6034 10.5766 24.6034L10.3266 24.6175H6.146V24.6104ZM26.0647 22.8829C26.1518 23.0603 26.0798 23.266 25.9056 23.3618C25.7163 23.4434 25.4966 23.376 25.3944 23.1986C25.2467 22.9113 25.118 22.6098 25.0422 22.2941C24.9703 21.9784 24.9248 21.6627 24.9248 21.3363C24.9248 20.6659 25.099 19.9955 25.4361 19.4066C25.7579 18.832 26.2389 18.3105 26.8372 17.9274C27.0114 17.8174 27.2462 17.86 27.3636 18.0232C27.4809 18.1722 27.4355 18.3921 27.2613 18.5021C26.7652 18.832 26.3714 19.2541 26.0912 19.733C25.8147 20.226 25.6671 20.7723 25.6671 21.3363C25.6671 21.6095 25.7125 21.872 25.7693 22.1309C25.8412 22.3899 25.9283 22.6524 26.0609 22.8829H26.0647ZM20.7177 16.0793L23.2018 16.9413V16.7781C23.2018 16.4766 23.3192 16.1751 23.5086 15.9551C21.3766 15.5188 18.9189 15.1322 16.8438 14.6001C15.8933 14.366 15.0602 13.8339 14.477 13.1351C13.9052 12.4363 13.5568 11.5601 13.5568 10.6023C13.5568 9.4672 14.0529 8.4243 14.8557 7.67228C15.6585 6.93445 16.7567 6.46621 17.9836 6.46621C19.2105 6.46621 20.3087 6.9309 21.1115 7.67228C21.3311 7.89221 21.5356 8.12278 21.7098 8.37109L30.961 20.2118C31.211 20.5276 31.3549 20.9107 31.3549 21.3328C31.3549 21.8542 31.1352 22.3331 30.7717 22.6736C30.4347 22.9894 30.0976 23.0993 29.6773 23.2483L20.4867 26.7104C19.7104 27.0261 18.8773 27.1893 17.9874 27.1893C14.5376 27.1893 11.7316 24.575 11.7316 21.3292C11.7316 19.7152 12.4321 18.2502 13.5568 17.1931C14.6966 16.1254 16.2606 15.4692 17.9836 15.4692C18.9644 15.4692 19.8997 15.6891 20.7177 16.0722V16.0793ZM24.0501 17.9842L22.7361 17.5195C23.6714 18.5446 24.2432 19.889 24.2432 21.3399C24.2432 22.7907 23.7017 24.0784 22.7966 25.0893L28.3784 22.9964C28.2042 22.9149 28.0565 22.8049 27.924 22.6807C27.5605 22.3402 27.3408 21.8578 27.3408 21.3399C27.3408 20.3005 28.2307 19.4634 29.3441 19.4634H29.4463L22.4028 10.4569V10.6059C22.4028 11.7552 21.9067 12.7839 21.1153 13.5359C20.6912 13.9332 20.1951 14.2489 19.6233 14.4546L24.8264 15.5082C25.118 15.5507 25.3679 15.6855 25.5724 15.8629C25.8223 16.097 25.9814 16.4234 25.9814 16.7816C25.9814 17.1399 25.8223 17.4663 25.5724 17.711C25.3225 17.9451 24.9741 18.0941 24.5916 18.0941C24.4023 18.0941 24.2281 18.0516 24.0501 17.9842ZM30.2302 20.5027C30.0105 20.297 29.6887 20.1622 29.3403 20.1622C28.6549 20.1622 28.083 20.6836 28.083 21.3399C28.083 21.6698 28.2307 21.9713 28.4466 22.1735C28.6814 22.3934 28.9881 22.5282 29.3365 22.5282C29.6849 22.5282 30.0105 22.3899 30.2264 22.1735C30.4612 21.9677 30.6051 21.6662 30.6051 21.3399C30.6051 21.0525 30.4725 20.7085 30.2264 20.5063L30.2302 20.5027ZM18.6728 13.9864C19.4188 13.8481 20.0739 13.5217 20.5738 13.0428C21.2478 12.4114 21.6568 11.5636 21.6568 10.6059C21.6568 9.64811 21.2478 8.80031 20.5738 8.18309C19.9149 7.55167 18.9947 7.16857 17.9874 7.16857C16.9801 7.16857 16.0599 7.55167 15.3858 8.18309C14.7269 8.80031 14.318 9.6623 14.318 10.6059C14.318 11.4005 14.5944 12.1241 15.0791 12.6987C15.4161 13.1102 15.8554 13.4508 16.3515 13.6849C17.0672 14.0148 17.9003 14.1212 18.6766 13.9864H18.6728ZM24.7355 16.2034L24.5878 16.1893C24.4136 16.1893 24.2508 16.2567 24.1334 16.3666C24.016 16.4624 23.9441 16.6114 23.9441 16.7781C23.9441 16.9555 24.016 17.108 24.1334 17.2038C24.2508 17.3137 24.4098 17.3811 24.5878 17.3811C24.7658 17.3811 24.9248 17.3137 25.0422 17.2038C25.1596 17.108 25.2164 16.959 25.2164 16.7781C25.2164 16.6149 25.1445 16.4624 25.0422 16.3666C24.9551 16.285 24.8529 16.2283 24.7355 16.2034ZM19.9565 26.1571L20.1156 26.1038C20.7745 25.8449 21.3728 25.4618 21.8689 24.9936C22.861 24.0642 23.4896 22.7623 23.4896 21.3399C23.4896 19.9174 22.861 18.6298 21.8689 17.6968C20.8767 16.7675 19.5021 16.1893 17.9798 16.1893C16.4575 16.1893 15.0867 16.7639 14.0907 17.6968C13.0835 18.6262 12.47 19.9139 12.47 21.3399C12.47 24.1883 14.939 26.5011 17.9798 26.5011C18.6652 26.5011 19.3393 26.377 19.9527 26.1606L19.9565 26.1571ZM3.22258 13.4933C3.07489 13.6317 2.82875 13.6317 2.68106 13.4933C2.53337 13.355 2.53337 13.1386 2.68106 13.0003L9.08078 7.01604C9.22847 6.8777 9.45947 6.8777 9.60715 7.01604C9.75484 7.15438 9.75484 7.37076 9.60715 7.50911L3.21879 13.4933H3.22258ZM13.659 2.48619C12.7691 2.67774 12.008 2.93669 11.4665 3.2524C10.9704 3.55391 10.6788 3.89445 10.6788 4.27755C10.6788 4.49748 10.853 4.71387 11.0727 4.88059C11.3642 5.10052 11.7581 5.23531 12.0951 5.23531H23.8759C24.2129 5.23531 24.5916 5.09697 24.8832 4.88059C25.118 4.71741 25.2922 4.49748 25.2922 4.27755C25.2922 3.86607 24.9551 3.51135 24.4136 3.19564C23.8721 2.90831 23.1412 2.66 22.293 2.48264C22.1605 3.07149 21.5924 3.5078 20.9487 3.5078H15.0147C14.3558 3.5078 13.8029 3.07149 13.6553 2.48264L13.659 2.48619ZM33.271 13.0003C33.4187 13.1386 33.4187 13.355 33.271 13.4933C33.1233 13.6317 32.8923 13.6317 32.7446 13.4933L26.3563 7.50911C26.2086 7.37076 26.2086 7.15438 26.3563 7.01604C26.5039 6.8777 26.7349 6.8777 26.8826 7.01604L33.271 13.0003ZM15.0185 2.80189H20.9525C21.3046 2.80189 21.5962 2.54294 21.5811 2.21305C21.5659 1.88315 21.3311 1.6242 20.9525 1.6242H15.0185C14.655 1.6242 14.3899 1.88315 14.3899 2.21305C14.3899 2.54294 14.6663 2.80189 15.0185 2.80189ZM6.146 19.4598C7.25554 19.4598 8.16437 20.2934 8.16437 21.3363C8.16437 21.8578 7.92959 22.3367 7.5812 22.6772C7.21767 23.0177 6.70266 23.2235 6.14979 23.2235C5.59691 23.2235 5.09705 23.0177 4.73352 22.6772C4.36998 22.3367 4.1352 21.8542 4.1352 21.3363C4.1352 20.297 5.04025 19.4598 6.15357 19.4598H6.146ZM6.146 20.1586C5.44544 20.1586 4.88878 20.6801 4.88878 21.3363C4.88878 21.6662 5.02132 21.9677 5.25231 22.1699C5.48709 22.3899 5.79383 22.5247 6.14221 22.5247C6.4906 22.5247 6.81627 22.3863 7.03212 22.1699C7.2669 21.9642 7.39565 21.6627 7.39565 21.3363C7.39565 20.6943 6.83899 20.1586 6.13843 20.1586H6.146ZM17.9836 8.31788C18.6577 8.31788 19.2711 8.57683 19.7066 8.98832C20.1459 9.3998 20.4223 9.97445 20.4223 10.6023C20.4223 11.2302 20.1459 11.8084 19.7066 12.2163C19.2673 12.6278 18.6539 12.8868 17.9836 12.8868C17.3133 12.8868 16.6961 12.6278 16.2606 12.2163C15.8213 11.8048 15.5449 11.2302 15.5449 10.6023C15.5449 9.97445 15.8213 9.39625 16.2606 8.98832C16.6999 8.57683 17.3133 8.31788 17.9836 8.31788ZM19.184 9.49557C18.8773 9.20825 18.4532 9.03088 17.9874 9.03088C17.5216 9.03088 17.0975 9.20825 16.7908 9.49557C16.484 9.76871 16.2947 10.166 16.2947 10.6059C16.2947 11.0457 16.484 11.4395 16.7908 11.7268C17.0975 12.0141 17.5216 12.1915 17.9874 12.1915C18.4532 12.1915 18.8773 12.0141 19.184 11.7268C19.4756 11.4395 19.6649 11.0422 19.6649 10.6059C19.6649 10.1696 19.4756 9.77226 19.184 9.49557ZM17.9836 17.3953C19.1386 17.3953 20.1913 17.8316 20.9638 18.5588C21.725 19.2718 22.1908 20.258 22.1908 21.3363C22.1908 23.5143 20.3049 25.2773 17.9836 25.2773C16.8135 25.2773 15.7607 24.841 15.0034 24.128C14.2422 23.415 13.7764 22.4289 13.7764 21.3363C13.7764 20.2438 14.2422 19.2683 15.0034 18.5588C15.7645 17.8316 16.8173 17.3953 17.9836 17.3953ZM20.4261 19.0519C19.8126 18.463 18.9341 18.1083 17.9836 18.1083C17.0331 18.1083 16.1584 18.463 15.5297 19.0519C14.9163 19.6407 14.5224 20.4495 14.5224 21.3399C14.5224 22.2302 14.9163 23.0497 15.5297 23.6385C16.1584 24.2273 17.0217 24.5821 17.9836 24.5821C19.8997 24.5821 21.4485 23.1312 21.4485 21.3363C21.4485 20.446 21.0547 19.6372 20.4261 19.0483V19.0519ZM9.28906 11.3721C10.2547 11.3721 11.1295 11.741 11.7581 12.3298C12.3867 12.9187 12.7805 13.7416 12.7805 14.6426C12.7805 16.4376 11.2166 17.9026 9.28906 17.9026C8.32342 17.9026 7.46381 17.5337 6.82005 16.9448C6.19144 16.356 5.79761 15.5472 5.79761 14.6462C5.79761 13.7452 6.19144 12.9222 6.82005 12.3334C7.44867 11.7445 8.32721 11.3756 9.28906 11.3756V11.3721ZM11.2166 12.8229C10.7205 12.3724 10.0464 12.0851 9.28906 12.0851C8.5317 12.0851 7.85764 12.3724 7.36157 12.8229C6.8655 13.2876 6.55876 13.9332 6.55876 14.6426C6.55876 15.3521 6.8655 15.9835 7.36157 16.4482C7.8425 16.9129 8.5317 17.2002 9.28906 17.2002C10.7962 17.2002 12.0231 16.0509 12.0231 14.6391C12.0231 13.9261 11.7164 13.284 11.2203 12.8194L11.2166 12.8229ZM9.28906 13.3408C10.0502 13.3408 10.6788 13.9155 10.6788 14.6426C10.6788 14.9974 10.5198 15.3273 10.2698 15.5614C10.0199 15.7955 9.67153 15.9445 9.28906 15.9445C8.90659 15.9445 8.5582 15.7955 8.30827 15.5614C8.05834 15.3273 7.8993 15.0009 7.8993 14.6426C7.8993 14.2844 8.05834 13.958 8.30827 13.7239C8.5582 13.4791 8.90659 13.3408 9.28906 13.3408ZM9.28906 14.0396C9.11487 14.0396 8.95203 14.107 8.83464 14.217C8.71725 14.3269 8.6453 14.4759 8.6453 14.6426C8.6453 14.8094 8.71725 14.9584 8.83464 15.0683C8.95203 15.1783 9.11108 15.2315 9.28906 15.2315C9.46704 15.2315 9.62609 15.1783 9.74348 15.0683C9.86087 14.9584 9.93282 14.8094 9.93282 14.6426C9.93282 14.3021 9.64124 14.0396 9.28906 14.0396Z" fill="black"/>
</g>
</g>
<defs>
<clipPath id="clip0_0_2080">
<rect width="26" height="26" fill="white" transform="matrix(1 0 0 -1 0 26)"/>
</clipPath>
<clipPath id="clip1_0_2080">
<rect width="36.1111" height="28.8889" fill="white" transform="translate(0 0.21582)"/>
</clipPath>
</defs>
</svg>
