<svg width="21" height="21" viewBox="0 0 21 21" fill="none" xmlns="http://www.w3.org/2000/svg">
<g clip-path="url(#clip0_0_3562)">
<path d="M15.75 7.00017C15.75 5.60778 15.1969 4.27242 14.2123 3.28786C13.2277 2.30329 11.8924 1.75017 10.5 1.75017C9.10761 1.75017 7.77226 2.30329 6.78769 3.28786C5.80312 4.27242 5.25 5.60778 5.25 7.00017C5.25 13.1252 2.625 14.8752 2.625 14.8752H18.375C18.375 14.8752 15.75 13.1252 15.75 7.00017Z" stroke="white" stroke-width="2" stroke-linecap="round" stroke-linejoin="round"/>
<path d="M12.0139 18.375C11.8601 18.6402 11.6393 18.8603 11.3736 19.0133C11.108 19.1664 10.8068 19.2469 10.5002 19.2469C10.1936 19.2469 9.89239 19.1664 9.62673 19.0133C9.36106 18.8603 9.14026 18.6402 8.98642 18.375" stroke="white" stroke-width="2" stroke-linecap="round" stroke-linejoin="round"/>
</g>
<defs>
<clipPath id="clip0_0_3562">
<rect width="20.5" height="20.5" fill="white" transform="scale(1.02439)"/>
</clipPath>
</defs>
</svg>
