<svg width="15" height="16" viewBox="0 0 15 16" fill="none" xmlns="http://www.w3.org/2000/svg">
<path d="M14.1297 8.72928C13.9513 8.72928 13.7802 8.80588 13.654 8.94223C13.5278 9.07859 13.4569 9.26352 13.4569 9.45635V12.5195C13.4564 13.0568 13.2586 13.5718 12.9071 13.9517C12.5555 14.3316 12.0789 14.5453 11.5817 14.5459H3.22091C2.72373 14.5453 2.24708 14.3316 1.89552 13.9517C1.54396 13.5718 1.34622 13.0568 1.34569 12.5195V9.45635C1.34569 9.26352 1.2748 9.07859 1.14862 8.94223C1.02244 8.80588 0.851295 8.72928 0.672845 8.72928C0.494395 8.72928 0.323255 8.80588 0.197072 8.94223C0.0708888 9.07859 0 9.26352 0 9.45635V12.5195C0.000890568 13.4423 0.340521 14.327 0.944366 14.9795C1.54821 15.632 2.36694 15.999 3.22091 16H11.5817C12.4356 15.999 13.2544 15.632 13.8582 14.9795C14.4621 14.327 14.8017 13.4423 14.8026 12.5195V9.45635C14.8026 9.26352 14.7317 9.07859 14.6055 8.94223C14.4793 8.80588 14.3082 8.72928 14.1297 8.72928Z" fill="#201B51"/>
<path d="M3.83284 5.6034L6.72137 2.48207V11.633C6.72137 11.8258 6.79225 12.0108 6.91844 12.1471C7.04462 12.2835 7.21576 12.3601 7.39421 12.3601C7.57266 12.3601 7.7438 12.2835 7.86998 12.1471C7.99617 12.0108 8.06706 11.8258 8.06706 11.633V2.48207L10.9556 5.6034C11.0825 5.73584 11.2524 5.80912 11.4289 5.80747C11.6053 5.80581 11.774 5.72934 11.8988 5.59454C12.0235 5.45973 12.0943 5.27737 12.0958 5.08674C12.0974 4.8961 12.0295 4.71244 11.907 4.57531L7.86991 0.212877C7.74373 0.076572 7.57263 0 7.39421 0C7.2158 0 7.04469 0.076572 6.91851 0.212877L2.88144 4.57531C2.75887 4.71244 2.69106 4.8961 2.69259 5.08674C2.69412 5.27737 2.76488 5.45973 2.88964 5.59454C3.01439 5.72934 3.18314 5.80581 3.35956 5.80747C3.53598 5.80912 3.70594 5.73584 3.83284 5.6034Z" fill="#201B51"/>
</svg>
