<svg width="18" height="18" viewBox="0 0 18 18" fill="none" xmlns="http://www.w3.org/2000/svg">
<path d="M17.8983 8.40915L16.5137 7.02457C16.4816 6.99234 16.4434 6.96676 16.4013 6.94931C16.3593 6.93186 16.3142 6.92288 16.2687 6.92288C16.2231 6.92288 16.178 6.93186 16.136 6.94931C16.0939 6.96676 16.0557 6.99234 16.0236 7.02457L15.5764 7.47248L10.5275 2.42363L10.9754 1.97641C11.0077 1.94425 11.0332 1.90606 11.0507 1.864C11.0681 1.82195 11.0771 1.77687 11.0771 1.73134C11.0771 1.68581 11.0681 1.64073 11.0507 1.59867C11.0332 1.55662 11.0077 1.51842 10.9754 1.48627L9.59085 0.101693C9.5587 0.0694576 9.5205 0.0438826 9.47845 0.0264325C9.43639 0.00898234 9.39131 0 9.34578 0C9.30025 0 9.25517 0.00898234 9.21312 0.0264325C9.17106 0.0438826 9.13287 0.0694576 9.10071 0.101693L4.94699 4.25542C4.91475 4.28757 4.88918 4.32577 4.87173 4.36782C4.85428 4.40988 4.84529 4.45496 4.84529 4.50049C4.84529 4.54602 4.85428 4.5911 4.87173 4.63316C4.88918 4.67521 4.91475 4.71341 4.94699 4.74556L6.33156 6.13014C6.36372 6.16237 6.40191 6.18795 6.44397 6.2054C6.48602 6.22285 6.5311 6.23183 6.57663 6.23183C6.62216 6.23183 6.66724 6.22285 6.7093 6.2054C6.75135 6.18795 6.78955 6.16237 6.8217 6.13014L7.26892 5.68222L8.85634 7.26964L6.57663 9.54934L6.12941 9.10143C6.06305 9.03908 5.97541 9.00437 5.88434 9.00437C5.79328 9.00437 5.70564 9.03908 5.63927 9.10143L0.674878 14.0665C0.242761 14.4986 -4.55309e-09 15.0847 0 15.6958C4.55309e-09 16.3069 0.242761 16.893 0.674878 17.3251C1.10699 17.7572 1.69307 18 2.30418 18C2.91528 18 3.50136 17.7572 3.93348 17.3251L8.89857 12.3607C8.9308 12.3286 8.95638 12.2904 8.97383 12.2483C8.99127 12.2063 9.00026 12.1612 9.00026 12.1157C9.00026 12.0701 8.99127 12.025 8.97383 11.983C8.95638 11.9409 8.9308 11.9027 8.89857 11.8706L8.45065 11.4234L10.7304 9.14367L12.3178 10.7311L11.8699 11.1783C11.8376 11.2105 11.8121 11.2487 11.7946 11.2907C11.7772 11.3328 11.7682 11.3778 11.7682 11.4234C11.7682 11.4689 11.7772 11.514 11.7946 11.556C11.8121 11.5981 11.8376 11.6363 11.8699 11.6684L13.2544 13.053C13.2866 13.0853 13.3248 13.1108 13.3668 13.1283C13.4089 13.1457 13.454 13.1547 13.4995 13.1547C13.545 13.1547 13.5901 13.1457 13.6322 13.1283C13.6742 13.1108 13.7124 13.0853 13.7446 13.053L17.8983 8.89929C17.9305 8.86713 17.9561 8.82893 17.9736 8.78688C17.991 8.74483 18 8.69975 18 8.65422C18 8.60869 17.991 8.5636 17.9736 8.52155C17.9561 8.4795 17.9305 8.4413 17.8983 8.40915ZM6.57663 5.39562L5.6815 4.50049L9.34578 0.83621L10.2409 1.73134L6.57663 5.39562ZM7.96121 10.9339L7.06608 10.0388L9.34578 7.75909L10.2409 8.65422L7.96121 10.9339ZM13.4995 12.3185L12.6044 11.4234L16.2687 7.75909L17.1638 8.65422L13.4995 12.3185Z" fill="#FAA71A"/>
</svg>
