<svg width="21" height="21" viewBox="0 0 21 21" fill="none" xmlns="http://www.w3.org/2000/svg">
<path d="M19.3592 10.663L17.9409 9.24468C17.908 9.21166 17.8688 9.18546 17.8257 9.16759C17.7827 9.14971 17.7365 9.14051 17.6898 9.14051C17.6432 9.14051 17.597 9.14971 17.5539 9.16759C17.5109 9.18546 17.4717 9.21166 17.4388 9.24468L16.9807 9.70352L11.8087 4.53152L12.2675 4.07339C12.3005 4.04046 12.3267 4.00133 12.3446 3.95825C12.3625 3.91517 12.3717 3.86899 12.3717 3.82235C12.3717 3.77571 12.3625 3.72952 12.3446 3.68645C12.3267 3.64337 12.3005 3.60424 12.2675 3.5713L10.8492 2.15295C10.8162 2.11993 10.7771 2.09373 10.734 2.07586C10.6909 2.05798 10.6448 2.04878 10.5981 2.04878C10.5515 2.04878 10.5053 2.05798 10.4622 2.07586C10.4191 2.09373 10.38 2.11993 10.3471 2.15295L6.09203 6.40799C6.05901 6.44093 6.03281 6.48006 6.01494 6.52314C5.99706 6.56622 5.98786 6.6124 5.98786 6.65904C5.98786 6.70568 5.99706 6.75186 6.01494 6.79494C6.03281 6.83802 6.05901 6.87715 6.09203 6.91009L7.51038 8.32843C7.54332 8.36145 7.58245 8.38765 7.62553 8.40553C7.6686 8.4234 7.71479 8.4326 7.76143 8.4326C7.80807 8.4326 7.85425 8.4234 7.89733 8.40553C7.94041 8.38765 7.97954 8.36145 8.01248 8.32843L8.4706 7.8696L10.0967 9.49573L7.76143 11.831L7.3033 11.3722C7.23532 11.3083 7.14554 11.2728 7.05225 11.2728C6.95897 11.2728 6.86919 11.3083 6.80121 11.3722L1.71573 16.4584C1.27307 16.901 1.02439 17.5014 1.02439 18.1274C1.02439 18.7534 1.27307 19.3538 1.71573 19.7965C2.15839 20.2391 2.75876 20.4878 3.38477 20.4878C4.01078 20.4878 4.61115 20.2391 5.05381 19.7965L10.14 14.711C10.173 14.6781 10.1992 14.6389 10.2171 14.5958C10.235 14.5528 10.2442 14.5066 10.2442 14.4599C10.2442 14.4133 10.235 14.3671 10.2171 14.324C10.1992 14.281 10.173 14.2418 10.14 14.2089L9.68116 13.7508L12.0165 11.4155L13.6426 13.0416L13.1838 13.4997C13.1507 13.5327 13.1245 13.5718 13.1067 13.6149C13.0888 13.6579 13.0796 13.7041 13.0796 13.7508C13.0796 13.7974 13.0888 13.8436 13.1067 13.8867C13.1245 13.9297 13.1507 13.9689 13.1838 14.0018L14.6021 15.4202C14.635 15.4532 14.6742 15.4794 14.7173 15.4973C14.7603 15.5151 14.8065 15.5243 14.8532 15.5243C14.8998 15.5243 14.946 15.5151 14.9891 15.4973C15.0321 15.4794 15.0713 15.4532 15.1042 15.4202L19.3592 11.1651C19.3923 11.1322 19.4185 11.0931 19.4363 11.05C19.4542 11.0069 19.4634 10.9607 19.4634 10.9141C19.4634 10.8674 19.4542 10.8213 19.4363 10.7782C19.4185 10.7351 19.3923 10.696 19.3592 10.663ZM7.76143 7.576L6.84447 6.65904L10.5981 2.90539L11.5151 3.82235L7.76143 7.576ZM9.17977 13.2494L8.26281 12.3324L10.5981 9.99712L11.5151 10.9141L9.17977 13.2494ZM14.8532 14.6677L13.9362 13.7508L17.6898 9.99712L18.6068 10.9141L14.8532 14.6677Z" fill="white"/>
</svg>
