<svg width="41" height="32" viewBox="0 0 41 32" fill="none" xmlns="http://www.w3.org/2000/svg">
<path d="M22.8517 15.5029H23.6946C23.9444 15.5029 24.1473 15.4076 24.3034 15.2169C24.4595 15.0262 24.5375 14.8197 24.5375 14.5972C24.5375 14.3747 24.4595 14.1681 24.3034 13.9775C24.1473 13.7868 23.9444 13.6914 23.6946 13.6914H21.5406L20.2294 11.4032C19.7924 10.704 19.246 10.1638 18.5905 9.78238C17.9349 9.40101 17.2012 9.21032 16.3896 9.21032H8.14796C7.33628 9.21032 6.60265 9.40101 5.94707 9.78238C5.29149 10.1638 4.74517 10.704 4.30811 11.4032L2.99695 13.6914H0.842892C0.593146 13.6914 0.390228 13.7868 0.234137 13.9775C0.0780456 14.1681 0 14.3747 0 14.5972C0 14.8197 0.0780456 15.0262 0.234137 15.2169C0.390228 15.4076 0.593146 15.5029 0.842892 15.5029H1.77944L1.21751 16.1703C0.405837 17.3145 0 18.5857 0 19.9841V24.4652C0 25.1643 0.249746 25.7841 0.749237 26.3244C1.24873 26.8646 1.87309 27.1348 2.62233 27.1348H4.40177C5.08857 27.1348 5.69733 26.8646 6.22803 26.3244C6.75874 25.7841 7.0241 25.1643 7.0241 24.4652H17.5134C17.5134 25.1643 17.7788 25.7841 18.3095 26.3244C18.8402 26.8646 19.449 27.1348 20.1358 27.1348H21.9152C22.6644 27.1348 23.2888 26.8646 23.7883 26.3244C24.2878 25.7841 24.5375 25.1643 24.5375 24.4652V19.9841C24.5375 18.5857 24.1317 17.3145 23.32 16.1703L22.8517 15.5029ZM5.80659 12.3566C6.05633 11.9117 6.38413 11.578 6.78996 11.3555C7.1958 11.1331 7.64846 11.0218 8.14796 11.0218H16.3896C16.8891 11.0218 17.3417 11.1331 17.7476 11.3555C18.1534 11.578 18.4812 11.9117 18.7309 12.3566L19.8548 14.3588L19.2929 14.7402C18.5436 15.2487 17.7319 15.5029 16.8578 15.5029H7.67968C6.80557 15.5029 5.9939 15.2487 5.24466 14.7402L4.68273 14.3588L5.80659 12.3566ZM22.8517 24.4652C22.8517 24.6559 22.7581 24.8465 22.5708 25.0372C22.3835 25.2279 22.1649 25.3233 21.9152 25.3233H20.1358C19.9484 25.3233 19.7611 25.2279 19.5738 25.0372C19.3865 24.8465 19.2929 24.6559 19.2929 24.4652V23.5117C19.2929 23.2575 19.2148 23.0509 19.0587 22.892C18.9026 22.7331 18.6997 22.6537 18.45 22.6537H6.08755C5.83781 22.6537 5.63489 22.7331 5.4788 22.892C5.32271 23.0509 5.24466 23.2575 5.24466 23.5117V24.4652C5.24466 24.6559 5.15101 24.8465 4.9637 25.0372C4.77639 25.2279 4.58908 25.3233 4.40177 25.3233H2.62233C2.37258 25.3233 2.15406 25.2279 1.96675 25.0372C1.77944 24.8465 1.68578 24.6559 1.68578 24.4652V19.9841C1.74822 18.9671 2.0604 18.0772 2.62233 17.3145L3.65253 15.789L4.30811 16.2657C5.36953 16.9649 6.49339 17.3145 7.67968 17.3145H16.8578C18.0441 17.3145 19.168 16.9649 20.2294 16.2657L20.885 15.789L21.9152 17.3145C22.4771 18.0772 22.7581 18.9671 22.7581 19.9841V24.4652H22.8517ZM19.2929 19.9841C19.2929 20.2383 19.3709 20.4449 19.527 20.6038C19.6831 20.7627 19.886 20.8421 20.1358 20.8421C20.3855 20.8421 20.604 20.7627 20.7913 20.6038C20.9786 20.4449 21.0723 20.2383 21.0723 19.9841C21.0723 19.7298 20.9786 19.5073 20.7913 19.3167C20.604 19.126 20.3855 19.0306 20.1358 19.0306C19.886 19.0306 19.6831 19.126 19.527 19.3167C19.3709 19.5073 19.2929 19.7298 19.2929 19.9841ZM3.46522 19.9841C3.46522 20.2383 3.55888 20.4449 3.74619 20.6038C3.9335 20.7627 4.15202 20.8421 4.40177 20.8421C4.65152 20.8421 4.85443 20.7627 5.01052 20.6038C5.16662 20.4449 5.24466 20.2383 5.24466 19.9841C5.24466 19.7298 5.16662 19.5073 5.01052 19.3167C4.85443 19.126 4.65152 19.0306 4.40177 19.0306C4.15202 19.0306 3.9335 19.126 3.74619 19.3167C3.55888 19.5073 3.46522 19.7298 3.46522 19.9841Z" fill="#CE0000"/>
<path d="M9.04688 10.3564C9.04688 11.454 10.4818 12.6362 11.1578 13.3632C11.4463 13.6734 11.6778 14.1395 11.9686 14.4192C12.2223 14.6632 13.1682 13.8897 13.3246 13.7885C13.4289 13.7211 14.6932 12.7803 14.7086 13.0552C14.726 13.3652 14.4888 13.8415 14.6108 14.1259C14.7606 14.4751 16.3546 13.5444 16.5959 13.3925" stroke="#CE0000" stroke-width="1.48947" stroke-linecap="round"/>
<circle cx="27.9277" cy="23.5" r="8.5" fill="white"/>
<circle cx="27.9277" cy="23.5" r="6" fill="black" stroke="black"/>
<rect x="26.9277" y="16.5" width="2" height="3" fill="black" stroke="black"/>
<line x1="27.9277" x2="27.9277" y2="20" stroke="black"/>
</svg>
