<svg width="8" height="12" viewBox="0 0 8 12" fill="none" xmlns="http://www.w3.org/2000/svg">
<path d="M0.888424 12C0.712104 11.9995 0.539901 11.9488 0.393614 11.8542C0.247326 11.7597 0.13353 11.6256 0.0666299 11.469C-0.000270221 11.3123 -0.0172668 11.1401 0.0177915 10.9742C0.0528497 10.8082 0.138387 10.656 0.263575 10.5367L4.98725 5.99943L0.266917 1.46211C0.0995719 1.30169 0.00544127 1.084 0.00523239 0.856927C0.00502351 0.629856 0.0987536 0.412006 0.265803 0.251302C0.432852 0.0905966 0.659537 0.000200927 0.89599 3.34551e-07C1.13244 -0.000200258 1.35929 0.0898108 1.52664 0.250232L6.88184 5.39296C6.96486 5.47245 7.03072 5.56689 7.07566 5.67087C7.1206 5.77484 7.14374 5.88632 7.14374 5.99889C7.14374 6.11147 7.1206 6.22295 7.07566 6.32692C7.03072 6.4309 6.96486 6.52534 6.88184 6.60483L1.52664 11.7486C1.44299 11.8292 1.34347 11.8929 1.23389 11.936C1.1243 11.9792 1.00686 12.0009 0.888424 12Z" fill="black"/>
</svg>
