<svg width="23" height="22" viewBox="0 0 23 22" fill="none" xmlns="http://www.w3.org/2000/svg">
<path d="M3.82658 8.67761H4.75856L6.92187 6.22756C7.08284 6.04343 7.30878 5.93652 7.54601 5.93652H15.1769C15.6429 5.93652 16.0185 6.33447 16.0185 6.82151V8.67761H16.8686C17.2583 8.67761 17.5718 9.01023 17.5718 9.41708V19.6153C17.5718 20.0251 17.2555 20.3547 16.8686 20.3547H8.35937C8.10237 20.3547 7.85102 20.2597 7.65333 20.0874L4.71619 17.5127H3.82658C3.38319 17.5127 3.02734 17.1355 3.02734 16.6722V9.51806C3.02734 9.0518 3.38601 8.67761 3.82658 8.67761Z" stroke="black" stroke-width="0.9" stroke-linecap="round" stroke-linejoin="round"/>
<path d="M21.9578 19.0212V10.0139H20.043V19.0212H21.9578Z" stroke="black" stroke-width="0.9" stroke-linecap="round" stroke-linejoin="round"/>
<path d="M17.5718 15.9001H20.0429" stroke="black" stroke-width="0.9" stroke-linecap="round" stroke-linejoin="round"/>
<path d="M20.0429 13.1353H17.5718" stroke="black" stroke-width="0.9" stroke-linecap="round" stroke-linejoin="round"/>
<path d="M1.04199 13.0967H3.02456" stroke="black" stroke-width="0.9" stroke-linecap="round" stroke-linejoin="round"/>
<path d="M1.04199 16.0901V10.1001" stroke="black" stroke-width="0.9" stroke-linecap="round" stroke-linejoin="round"/>
<path d="M13.9628 18.3562C14.7505 18.3562 15.389 17.6847 15.389 16.8564C15.389 16.0281 14.7505 15.3567 13.9628 15.3567C13.1752 15.3567 12.5366 16.0281 12.5366 16.8564C12.5366 17.6847 13.1752 18.3562 13.9628 18.3562Z" stroke="black" stroke-width="0.9" stroke-linecap="round" stroke-linejoin="round"/>
<path d="M9.06555 12.8025C9.6411 12.8025 10.1077 12.3119 10.1077 11.7067C10.1077 11.1015 9.6411 10.6108 9.06555 10.6108C8.49001 10.6108 8.02344 11.1015 8.02344 11.7067C8.02344 12.3119 8.49001 12.8025 9.06555 12.8025Z" stroke="black" stroke-width="0.9" stroke-linecap="round" stroke-linejoin="round"/>
<path d="M13.1352 18.0829C13.1352 18.0829 7.61394 14.0826 7.45578 13.9609C7.34847 13.8777 7.23832 13.7856 7.1649 13.7084C6.11431 12.6037 6.11431 10.8159 7.1649 9.71113C8.21548 8.60638 9.91563 8.60638 10.9662 9.71113C11.0566 9.80616 11.1413 9.90714 11.2147 10.0111C11.291 10.115 15.1262 15.9892 15.1262 15.9892" stroke="black" stroke-width="0.9" stroke-linecap="round" stroke-linejoin="round"/>
<path d="M15.1345 1.93921H8.55423C8.30935 1.93921 8.11084 2.14796 8.11084 2.40546V3.31124C8.11084 3.56874 8.30935 3.77749 8.55423 3.77749H15.1345C15.3794 3.77749 15.5779 3.56874 15.5779 3.31124V2.40546C15.5779 2.14796 15.3794 1.93921 15.1345 1.93921Z" stroke="black" stroke-width="0.9" stroke-linecap="round" stroke-linejoin="round"/>
<path d="M12.9966 5.9366V3.77759" stroke="black" stroke-width="0.9" stroke-linecap="round" stroke-linejoin="round"/>
<path d="M10.6953 3.77759V5.9366" stroke="black" stroke-width="0.9" stroke-linecap="round" stroke-linejoin="round"/>
</svg>
