<svg width="37" height="37" viewBox="0 0 37 37" fill="none" xmlns="http://www.w3.org/2000/svg">
<rect x="0.0422797" width="36.673" height="36.673" rx="18" transform="rotate(0.0650417 0.0422797 0)" fill="white"/>
<path fill-rule="evenodd" clip-rule="evenodd" d="M17.898 23.718L14.3686 25.6518C13.8919 25.913 13.3028 25.7209 13.0529 25.2228C12.9534 25.0244 12.9192 24.7972 12.9557 24.5765L13.634 20.4729C13.6886 20.1425 13.5842 19.8053 13.3547 19.571L10.5044 16.6611C10.1194 16.268 10.1123 15.6231 10.4884 15.2208C10.6382 15.0605 10.8344 14.9564 11.0466 14.9244L14.9908 14.3301C15.3083 14.2822 15.583 14.0742 15.7253 13.7737L17.4931 10.0414C17.7319 9.53728 18.3166 9.33084 18.799 9.58033C18.9911 9.67968 19.1465 9.84244 19.2411 10.0434L21.0005 13.7797C21.1421 14.0805 21.4163 14.2892 21.7337 14.3377L25.6765 14.941C26.2091 15.0225 26.5776 15.5398 26.4996 16.0963C26.4685 16.318 26.3684 16.5227 26.2147 16.6789L23.3578 19.5824C23.1279 19.8161 23.0227 20.1531 23.0765 20.4836L23.7455 24.5888C23.8359 25.1433 23.4789 25.6694 22.9483 25.7639C22.737 25.8015 22.5197 25.7653 22.3301 25.6608L18.8051 23.719C18.5214 23.5627 18.1821 23.5623 17.898 23.718Z" fill="#FAA71A" stroke="white"/>
</svg>
