<svg width="40" height="37" viewBox="0 0 40 37" fill="none" xmlns="http://www.w3.org/2000/svg">
<path d="M25.0295 5.15434L19.0023 4.57837L18.9843 4.57665C18.0853 4.49073 17.633 4.44751 17.2034 4.52603C16.8203 4.59606 16.4516 4.73569 16.1146 4.93973C15.7365 5.16869 15.4147 5.50697 14.7753 6.17912L14.7641 6.19086L6.19152 15.2021L6.18374 15.2103C4.87378 16.5873 4.21832 17.2762 3.97244 18.0717C3.75572 18.7729 3.75572 19.5282 3.97244 20.2294C4.21881 21.0264 4.87645 21.719 6.1916 23.1015L12.7667 30.0131C14.0819 31.3955 14.7394 32.0853 15.4976 32.3443C16.1646 32.5721 16.883 32.5721 17.55 32.3443C18.3083 32.0853 18.9659 31.3952 20.281 30.0127L28.8536 21.0015C29.5004 20.3216 29.8239 19.9815 30.043 19.5816C30.2371 19.2274 30.3705 18.8397 30.4372 18.4369C30.5123 17.9824 30.471 17.5034 30.3882 16.5458L29.8402 10.2101L29.8401 10.2086C29.6976 8.5606 29.6263 7.73589 29.285 7.09085C28.9841 6.52196 28.5378 6.05282 27.9966 5.73647C27.3859 5.3795 26.6063 5.30501 25.0536 5.15663L25.0295 5.15434Z" stroke="#CE0000" stroke-width="2" stroke-linecap="round" stroke-linejoin="round"/>
</svg>
