<svg width="28" height="29" viewBox="0 0 28 29" fill="none" xmlns="http://www.w3.org/2000/svg">
<path d="M21.7287 1.57938L15.822 1.02321L15.8044 1.02155C14.9233 0.938582 14.4801 0.896846 14.0591 0.972665C13.6836 1.04029 13.3223 1.17512 12.9921 1.37215C12.6215 1.59324 12.3061 1.91989 11.6795 2.56894L11.6685 2.58027L3.26736 11.2818L3.25975 11.2896C1.97596 12.6193 1.33361 13.2846 1.09264 14.0528C0.880251 14.7298 0.88025 15.4592 1.09264 16.1362C1.33408 16.9059 1.97858 17.5747 3.26743 18.9096L9.7111 25.5837C11 26.9186 11.6443 27.5847 12.3874 27.8348C13.0411 28.0547 13.7451 28.0547 14.3988 27.8348C15.1419 27.5847 15.7863 26.9183 17.0751 25.5833L25.4763 16.8818C26.1102 16.2253 26.4272 15.8968 26.6419 15.5108C26.8322 15.1687 26.9629 14.7943 27.0282 14.4054C27.1019 13.9665 27.0614 13.504 26.9802 12.5792L26.4432 6.4614L26.4431 6.4599C26.3034 4.86856 26.2335 4.07219 25.8991 3.44933C25.6042 2.9 25.1668 2.44698 24.6364 2.14151C24.038 1.7968 23.274 1.72487 21.7523 1.5816L21.7287 1.57938Z" stroke="#CE0000" stroke-width="1.81967" stroke-linecap="round" stroke-linejoin="round"/>
</svg>
