<svg width="14" height="14" viewBox="0 0 14 14" fill="none" xmlns="http://www.w3.org/2000/svg">
<path d="M0.388856 0H8.94443C9.15939 0 9.33333 0.173943 9.33333 0.388901C9.33333 0.603859 9.15939 0.777802 8.94443 0.777802H1.32766L13.8861 13.3362C14.038 13.4881 14.038 13.7342 13.8861 13.8861C13.8101 13.962 13.7106 14 13.6111 14C13.5116 14 13.4121 13.962 13.3361 13.8861L0.777756 1.3277V8.94447C0.777756 9.15943 0.603856 9.33337 0.388856 9.33337C0.173856 9.33337 -4.3869e-05 9.15943 -4.3869e-05 8.94447V0.388901C-4.3869e-05 0.173943 0.173956 0 0.388856 0Z" fill="#050B20"/>
</svg>
