<svg width="48" height="48" viewBox="0 0 48 48" fill="none" xmlns="http://www.w3.org/2000/svg">
<path d="M31.341 24.3581H32.497C32.8395 24.3581 33.1178 24.2136 33.3319 23.9244C33.546 23.6352 33.653 23.322 33.653 22.9846C33.653 22.6473 33.546 22.334 33.3319 22.0448C33.1178 21.7557 32.8395 21.6111 32.497 21.6111H29.5427L27.7445 18.1411C27.1451 17.0809 26.3958 16.2616 25.4967 15.6833C24.5975 15.1049 23.5914 14.8158 22.4782 14.8158H11.1749C10.0617 14.8158 9.05549 15.1049 8.15636 15.6833C7.25724 16.2616 6.50796 17.0809 5.90855 18.1411L4.11029 21.6111H1.15602C0.813496 21.6111 0.535194 21.7557 0.321117 22.0448C0.107039 22.334 0 22.6473 0 22.9846C0 23.322 0.107039 23.6352 0.321117 23.9244C0.535194 24.2136 0.813496 24.3581 1.15602 24.3581H2.44049L1.66981 25.3702C0.556602 27.1052 0 29.0329 0 31.1535V37.9488C0 39.0091 0.342524 39.9488 1.02757 40.7681C1.71262 41.5874 2.56893 41.9971 3.59651 41.9971H6.03699C6.97894 41.9971 7.81384 41.5874 8.5417 40.7681C9.26957 39.9488 9.6335 39.0091 9.6335 37.9488H24.0195C24.0195 39.0091 24.3835 39.9488 25.1113 40.7681C25.8392 41.5874 26.6741 41.9971 27.616 41.9971H30.0565C31.0841 41.9971 31.9404 41.5874 32.6255 40.7681C33.3105 39.9488 33.653 39.0091 33.653 37.9488V31.1535C33.653 29.0329 33.0964 27.1052 31.9832 25.3702L31.341 24.3581ZM7.96369 19.587C8.30622 18.9122 8.75578 18.4062 9.31238 18.0689C9.86899 17.7315 10.4898 17.5628 11.1749 17.5628H22.4782C23.1632 17.5628 23.784 17.7315 24.3406 18.0689C24.8972 18.4062 25.3468 18.9122 25.6893 19.587L27.2307 22.6232L26.46 23.2015C25.4324 23.9726 24.3192 24.3581 23.1204 24.3581H10.5326C9.33379 24.3581 8.22059 23.9726 7.19301 23.2015L6.42233 22.6232L7.96369 19.587ZM31.341 37.9488C31.341 38.238 31.2125 38.5271 30.9556 38.8163C30.6988 39.1054 30.399 39.25 30.0565 39.25H27.616C27.3591 39.25 27.1022 39.1054 26.8454 38.8163C26.5885 38.5271 26.46 38.238 26.46 37.9488V36.503C26.46 36.1174 26.353 35.8042 26.1389 35.5632C25.9248 35.3222 25.6465 35.2017 25.304 35.2017H8.34903C8.00651 35.2017 7.72821 35.3222 7.51413 35.5632C7.30005 35.8042 7.19301 36.1174 7.19301 36.503V37.9488C7.19301 38.238 7.06457 38.5271 6.80767 38.8163C6.55078 39.1054 6.29389 39.25 6.03699 39.25H3.59651C3.25398 39.25 2.95427 39.1054 2.69738 38.8163C2.44049 38.5271 2.31204 38.238 2.31204 37.9488V31.1535C2.39767 29.6113 2.82583 28.2618 3.59651 27.1052L5.00942 24.7919L5.90855 25.5148C7.36428 26.5751 8.90564 27.1052 10.5326 27.1052H23.1204C24.7474 27.1052 26.2888 26.5751 27.7445 25.5148L28.6436 24.7919L30.0565 27.1052C30.8272 28.2618 31.2125 29.6113 31.2125 31.1535V37.9488H31.341ZM26.46 31.1535C26.46 31.539 26.5671 31.8523 26.7811 32.0932C26.9952 32.3342 27.2735 32.4547 27.616 32.4547C27.9586 32.4547 28.2583 32.3342 28.5152 32.0932C28.7721 31.8523 28.9005 31.539 28.9005 31.1535C28.9005 30.7679 28.7721 30.4306 28.5152 30.1414C28.2583 29.8522 27.9586 29.7077 27.616 29.7077C27.2735 29.7077 26.9952 29.8522 26.7811 30.1414C26.5671 30.4306 26.46 30.7679 26.46 31.1535ZM4.75253 31.1535C4.75253 31.539 4.88097 31.8523 5.13787 32.0932C5.39476 32.3342 5.69447 32.4547 6.03699 32.4547C6.37952 32.4547 6.65782 32.3342 6.8719 32.0932C7.08597 31.8523 7.19301 31.539 7.19301 31.1535C7.19301 30.7679 7.08597 30.4306 6.8719 30.1414C6.65782 29.8522 6.37952 29.7077 6.03699 29.7077C5.69447 29.7077 5.39476 29.8522 5.13787 30.1414C4.88097 30.4306 4.75253 30.7679 4.75253 31.1535Z" fill="black"/>
<mask id="mask0_1831_79038" style="mask-type:alpha" maskUnits="userSpaceOnUse" x="7" y="7" width="34" height="28">
<path d="M38.5158 17.1838H39.6718C40.0143 17.1838 40.2926 17.0392 40.5067 16.75C40.7208 16.4609 40.8278 16.1476 40.8278 15.8102C40.8278 15.4729 40.7208 15.1596 40.5067 14.8705C40.2926 14.5813 40.0143 14.4367 39.6718 14.4367H36.7175L34.9193 10.9668C34.3199 9.90651 33.5706 9.08721 32.6715 8.50889C31.7723 7.93056 30.7662 7.6414 29.653 7.6414H18.3497C17.2365 7.6414 16.2303 7.93056 15.3312 8.50889C14.432 9.08721 13.6828 9.90651 13.0834 10.9668L11.2851 14.4367H8.33082C7.9883 14.4367 7.71 14.5813 7.49592 14.8705C7.28184 15.1596 7.1748 15.4729 7.1748 15.8102C7.1748 16.1476 7.28184 16.4609 7.49592 16.75C7.71 17.0392 7.9883 17.1838 8.33082 17.1838H9.61529L8.84461 18.1958C7.73141 19.9308 7.1748 21.8586 7.1748 23.9791V30.7744C7.1748 31.8347 7.51733 32.7745 8.20238 33.5938C8.88743 34.413 9.74374 34.8227 10.7713 34.8227H13.2118C14.1537 34.8227 14.9886 34.413 15.7165 33.5938C16.4444 32.7745 16.8083 31.8347 16.8083 30.7744H31.1943C31.1943 31.8347 31.5583 32.7745 32.2861 33.5938C33.014 34.413 33.8489 34.8227 34.7908 34.8227H37.2313C38.2589 34.8227 39.1152 34.413 39.8003 33.5938C40.4853 32.7745 40.8278 31.8347 40.8278 30.7744V23.9791C40.8278 21.8586 40.2712 19.9308 39.158 18.1958L38.5158 17.1838ZM15.1385 12.4126C15.481 11.7379 15.9306 11.2318 16.4872 10.8945C17.0438 10.5571 17.6646 10.3884 18.3497 10.3884H29.653C30.338 10.3884 30.9588 10.5571 31.5154 10.8945C32.0721 11.2318 32.5216 11.7379 32.8641 12.4126L34.4055 15.4488L33.6348 16.0271C32.6072 16.7982 31.494 17.1838 30.2952 17.1838H17.7074C16.5086 17.1838 15.3954 16.7982 14.3678 16.0271L13.5971 15.4488L15.1385 12.4126ZM38.5158 30.7744C38.5158 31.0636 38.3873 31.3527 38.1305 31.6419C37.8736 31.9311 37.5738 32.0756 37.2313 32.0756H34.7908C34.5339 32.0756 34.2771 31.9311 34.0202 31.6419C33.7633 31.3527 33.6348 31.0636 33.6348 30.7744V29.3286C33.6348 28.9431 33.5278 28.6298 33.3137 28.3888C33.0996 28.1479 32.8213 28.0274 32.4788 28.0274H15.5238C15.1813 28.0274 14.903 28.1479 14.6889 28.3888C14.4749 28.6298 14.3678 28.9431 14.3678 29.3286V30.7744C14.3678 31.0636 14.2394 31.3527 13.9825 31.6419C13.7256 31.9311 13.4687 32.0756 13.2118 32.0756H10.7713C10.4288 32.0756 10.1291 31.9311 9.87218 31.6419C9.61529 31.3527 9.48684 31.0636 9.48684 30.7744V23.9791C9.57248 22.4369 10.0006 21.0875 10.7713 19.9308L12.1842 17.6175L13.0834 18.3404C14.5391 19.4007 16.0804 19.9308 17.7074 19.9308H30.2952C31.9222 19.9308 33.4636 19.4007 34.9193 18.3404L35.8184 17.6175L37.2313 19.9308C38.002 21.0875 38.3873 22.4369 38.3873 23.9791V30.7744H38.5158ZM33.6348 23.9791C33.6348 24.3646 33.7419 24.6779 33.9559 24.9189C34.17 25.1598 34.4483 25.2803 34.7908 25.2803C35.1334 25.2803 35.4331 25.1598 35.69 24.9189C35.9469 24.6779 36.0753 24.3646 36.0753 23.9791C36.0753 23.5935 35.9469 23.2562 35.69 22.967C35.4331 22.6779 35.1334 22.5333 34.7908 22.5333C34.4483 22.5333 34.17 22.6779 33.9559 22.967C33.7419 23.2562 33.6348 23.5935 33.6348 23.9791ZM11.9273 23.9791C11.9273 24.3646 12.0558 24.6779 12.3127 24.9189C12.5696 25.1598 12.8693 25.2803 13.2118 25.2803C13.5543 25.2803 13.8326 25.1598 14.0467 24.9189C14.2608 24.6779 14.3678 24.3646 14.3678 23.9791C14.3678 23.5935 14.2608 23.2562 14.0467 22.967C13.8326 22.6779 13.5543 22.5333 13.2118 22.5333C12.8693 22.5333 12.5696 22.6779 12.3127 22.967C12.0558 23.2562 11.9273 23.5935 11.9273 23.9791Z" fill="black"/>
</mask>
<g mask="url(#mask0_1831_79038)">
<path d="M24.3892 14.0991H10.043L15.0641 5.49139C20.3244 5.49139 31.2754 5.63486 32.9969 6.2087C34.7185 6.78255 36.5835 10.7517 37.3008 12.6645H40.17C41.1264 12.9036 43.0393 13.8122 43.0393 15.5337C43.0393 17.2553 42.0828 18.1639 41.6046 18.403C42.0828 22.7069 42.7523 31.8884 41.6046 34.1838C40.4569 36.4792 36.3444 36.5749 34.4315 36.3358V28.4453C34.4315 27.2976 33.4751 25.0979 32.9969 24.1415V23.4242C33.236 22.946 33.8577 21.8461 34.4315 21.2722C35.0054 20.6984 34.1924 20.0767 33.7142 19.8376H29.4104C28.693 18.403 27.6888 15.9641 26.5411 14.8164C25.3934 13.6687 24.3892 15.5337 24.3892 14.0991Z" fill="black"/>
</g>
<circle cx="11" cy="13" r="11" fill="#FD0200"/>
<path d="M11.2656 5.69629V20.0052V5.69629Z" fill="white"/>
<path d="M11.2656 5.69629V20.0052" stroke="white" stroke-width="2" stroke-linecap="round" stroke-linejoin="round"/>
<path d="M4.11328 12.8506H18.4222H4.11328Z" fill="white"/>
<path d="M4.11328 12.8506H18.4222" stroke="white" stroke-width="2" stroke-linecap="round" stroke-linejoin="round"/>
</svg>
