<svg width="25" height="25" viewBox="0 0 25 25" fill="none" xmlns="http://www.w3.org/2000/svg">
<g clip-path="url(#clip0_0_179)">
<path d="M12.5 19.6633C12 19.6633 11.5833 19.4689 11.25 19.08L0.5 8.33C0.166666 7.99667 -5.27572e-07 7.59389 -5.48214e-07 7.12167C-5.68855e-07 6.64944 0.166665 6.23278 0.499999 5.87167C0.833331 5.51055 1.25 5.33 1.75 5.33C2.25 5.33 2.66667 5.52444 3 5.91333L12.5 15.4133L22 5.91333C22.3333 5.58 22.75 5.41333 23.25 5.41333C23.75 5.41333 24.1667 5.58 24.5 5.91333C24.8333 6.24666 25 6.64944 25 7.12166C25 7.59389 24.8333 7.99666 24.5 8.33L13.75 19.08C13.4167 19.4689 13 19.6633 12.5 19.6633Z" fill="white"/>
</g>
<defs>
<clipPath id="clip0_0_179">
<rect width="25" height="25" fill="white" transform="matrix(-4.37114e-08 -1 -1 4.37114e-08 25 25)"/>
</clipPath>
</defs>
</svg>
