<svg width="17" height="15" viewBox="0 0 17 15" fill="none" xmlns="http://www.w3.org/2000/svg">
<path d="M2.09016 1.5634e-05C1.51639 1.5634e-05 1.02459 0.204933 0.614753 0.614769C0.204918 1.0246 0 1.52665 0 2.12091C0 2.71518 0.204918 3.21722 0.614753 3.62706C1.02459 4.0369 1.51639 4.24181 2.09016 4.24181C2.66393 4.24181 3.15573 4.0369 3.56557 3.62706C3.97541 3.21722 4.18032 2.71518 4.18032 2.12091C4.18032 1.52665 3.97541 1.0246 3.56557 0.614769C3.15573 0.204933 2.66393 1.5634e-05 2.09016 1.5634e-05ZM2.09016 1.16805C2.33606 1.16805 2.56147 1.26026 2.76639 1.44469C2.97131 1.62911 3.07377 1.85452 3.07377 2.12091C3.07377 2.38731 2.97131 2.61272 2.76639 2.79714C2.56147 2.98157 2.33606 3.07378 2.09016 3.07378C1.84426 3.07378 1.61885 2.98157 1.41393 2.79714C1.20902 2.61272 1.10656 2.38731 1.10656 2.12091C1.10656 1.85452 1.20902 1.62911 1.41393 1.44469C1.61885 1.26026 1.84426 1.16805 2.09016 1.16805ZM2.09016 10.7582C1.51639 10.7582 1.02459 10.9631 0.614753 11.373C0.204918 11.7828 0 12.2848 0 12.8791C0 13.4734 0.204918 13.9754 0.614753 14.3852C1.02459 14.7951 1.51639 15 2.09016 15C2.66393 15 3.15573 14.7951 3.56557 14.3852C3.97541 13.9754 4.18032 13.4734 4.18032 12.8791C4.18032 12.2848 3.97541 11.7828 3.56557 11.373C3.15573 10.9631 2.66393 10.7582 2.09016 10.7582ZM2.09016 11.9262C2.33606 11.9262 2.56147 12.0184 2.76639 12.2029C2.97131 12.3873 3.07377 12.6127 3.07377 12.8791C3.07377 13.1455 2.97131 13.3709 2.76639 13.5553C2.56147 13.7398 2.33606 13.832 2.09016 13.832C1.84426 13.832 1.61885 13.7398 1.41393 13.5553C1.20902 13.3709 1.10656 13.1455 1.10656 12.8791C1.10656 12.6127 1.20902 12.3873 1.41393 12.2029C1.61885 12.0184 1.84426 11.9262 2.09016 11.9262ZM8.2377 1.5634e-05C7.66393 1.5634e-05 7.17212 0.204933 6.76229 0.614769C6.35245 1.0246 6.14753 1.52665 6.14753 2.12091C6.14753 2.71518 6.35245 3.21722 6.76229 3.62706C7.17212 4.0369 7.66393 4.24181 8.2377 4.24181C8.81147 4.24181 9.30327 4.0369 9.7131 3.62706C10.1229 3.21722 10.3279 2.71518 10.3279 2.12091C10.3279 1.52665 10.1229 1.0246 9.7131 0.614769C9.30327 0.204933 8.81147 1.5634e-05 8.2377 1.5634e-05ZM8.2377 1.16805C8.4836 1.16805 8.70901 1.26026 8.91393 1.44469C9.11884 1.62911 9.2213 1.85452 9.2213 2.12091C9.2213 2.38731 9.11884 2.61272 8.91393 2.79714C8.70901 2.98157 8.4836 3.07378 8.2377 3.07378C7.99179 3.07378 7.76639 2.98157 7.56147 2.79714C7.35655 2.61272 7.25409 2.38731 7.25409 2.12091C7.25409 1.85452 7.35655 1.62911 7.56147 1.44469C7.76639 1.26026 7.99179 1.16805 8.2377 1.16805ZM8.2377 10.7582C7.66393 10.7582 7.17212 10.9631 6.76229 11.373C6.35245 11.7828 6.14753 12.2848 6.14753 12.8791C6.14753 13.4734 6.35245 13.9754 6.76229 14.3852C7.17212 14.7951 7.66393 15 8.2377 15C8.81147 15 9.30327 14.7951 9.7131 14.3852C10.1229 13.9754 10.3279 13.4734 10.3279 12.8791C10.3279 12.2848 10.1229 11.7828 9.7131 11.373C9.30327 10.9631 8.81147 10.7582 8.2377 10.7582ZM8.2377 11.9262C8.4836 11.9262 8.70901 12.0184 8.91393 12.2029C9.11884 12.3873 9.2213 12.6127 9.2213 12.8791C9.2213 13.1455 9.11884 13.3709 8.91393 13.5553C8.70901 13.7398 8.4836 13.832 8.2377 13.832C7.99179 13.832 7.76639 13.7398 7.56147 13.5553C7.35655 13.3709 7.25409 13.1455 7.25409 12.8791C7.25409 12.6127 7.35655 12.3873 7.56147 12.2029C7.76639 12.0184 7.99179 11.9262 8.2377 11.9262ZM14.3852 1.5634e-05C13.8115 1.5634e-05 13.3197 0.204933 12.9098 0.614769C12.5 1.0246 12.2951 1.52665 12.2951 2.12091C12.2951 2.71518 12.5 3.21722 12.9098 3.62706C13.3197 4.0369 13.8115 4.24181 14.3852 4.24181C14.959 4.24181 15.4508 4.0369 15.8606 3.62706C16.2705 3.21722 16.4754 2.71518 16.4754 2.12091C16.4754 1.52665 16.2705 1.0246 15.8606 0.614769C15.4508 0.204933 14.959 1.5634e-05 14.3852 1.5634e-05ZM14.3852 1.16805C14.6311 1.16805 14.8565 1.26026 15.0615 1.44469C15.2664 1.62911 15.3688 1.85452 15.3688 2.12091C15.3688 2.38731 15.2664 2.61272 15.0615 2.79714C14.8565 2.98157 14.6311 3.07378 14.3852 3.07378C14.1393 3.07378 13.9139 2.98157 13.709 2.79714C13.5041 2.61272 13.4016 2.38731 13.4016 2.12091C13.4016 1.85452 13.5041 1.62911 13.709 1.44469C13.9139 1.26026 14.1393 1.16805 14.3852 1.16805ZM14.3852 10.7582C13.8115 10.7582 13.3197 10.9631 12.9098 11.373C12.5 11.7828 12.2951 12.2848 12.2951 12.8791C12.2951 13.4734 12.5 13.9754 12.9098 14.3852C13.3197 14.7951 13.8115 15 14.3852 15C14.959 15 15.4508 14.7951 15.8606 14.3852C16.2705 13.9754 16.4754 13.4734 16.4754 12.8791C16.4754 12.2848 16.2705 11.7828 15.8606 11.373C15.4508 10.9631 14.959 10.7582 14.3852 10.7582ZM14.3852 11.9262C14.6311 11.9262 14.8565 12.0184 15.0615 12.2029C15.2664 12.3873 15.3688 12.6127 15.3688 12.8791C15.3688 13.1455 15.2664 13.3709 15.0615 13.5553C14.8565 13.7398 14.6311 13.832 14.3852 13.832C14.1393 13.832 13.9139 13.7398 13.709 13.5553C13.5041 13.3709 13.4016 13.1455 13.4016 12.8791C13.4016 12.6127 13.5041 12.3873 13.709 12.2029C13.9139 12.0184 14.1393 11.9262 14.3852 11.9262ZM1.53688 3.62706V11.3115C1.53688 11.4754 1.58811 11.6189 1.69057 11.7418C1.79303 11.8648 1.92623 11.9262 2.09016 11.9262C2.2541 11.9262 2.38729 11.8648 2.48975 11.7418C2.59221 11.6189 2.64344 11.4959 2.64344 11.373V3.62706C2.64344 3.50411 2.59221 3.38116 2.48975 3.25821C2.38729 3.13526 2.2541 3.07378 2.09016 3.07378C1.92623 3.07378 1.79303 3.13526 1.69057 3.25821C1.58811 3.38116 1.53688 3.50411 1.53688 3.62706ZM7.68442 3.62706V11.3115C7.68442 11.4754 7.73565 11.6189 7.83811 11.7418C7.94057 11.8648 8.07376 11.9262 8.2377 11.9262C8.40163 11.9262 8.53483 11.8648 8.63729 11.7418C8.73975 11.6189 8.79097 11.4959 8.79097 11.373V3.62706C8.79097 3.50411 8.73975 3.38116 8.63729 3.25821C8.53483 3.13526 8.40163 3.07378 8.2377 3.07378C8.07376 3.07378 7.94057 3.13526 7.83811 3.25821C7.73565 3.38116 7.68442 3.50411 7.68442 3.62706ZM13.832 3.62706V6.70083C13.832 6.7828 13.8115 6.84427 13.7705 6.88525C13.7295 6.92624 13.6885 6.94673 13.6475 6.94673H2.09016C1.92623 6.94673 1.79303 6.99796 1.69057 7.10042C1.58811 7.20288 1.53688 7.33607 1.53688 7.50001C1.53688 7.66394 1.58811 7.79714 1.69057 7.8996C1.79303 8.00206 1.92623 8.05329 2.09016 8.05329H13.6475C14.0164 8.05329 14.3238 7.93034 14.5697 7.68443C14.8156 7.43853 14.9385 7.11066 14.9385 6.70083V3.68854C14.9385 3.5246 14.8873 3.38116 14.7848 3.25821C14.6824 3.13526 14.5492 3.07378 14.3852 3.07378C14.2213 3.07378 14.0881 3.13526 13.9856 3.25821C13.8832 3.38116 13.832 3.50411 13.832 3.62706Z" fill="black"/>
</svg>
