<svg width="21" height="20" viewBox="0 0 21 20" fill="none" xmlns="http://www.w3.org/2000/svg">
<path d="M17.4567 9.72754C17.5985 10.3323 17.6733 10.9667 17.6733 11.6174C17.6733 12.8755 17.4309 14.0877 16.9307 15.1379" stroke="black" stroke-width="0.9" stroke-linecap="round" stroke-linejoin="round"/>
<path d="M3.8083 15.1373C3.53755 14.5677 3.32869 13.9494 3.19718 13.3042C3.08372 12.7588 3.02441 12.1919 3.02441 11.6168C3.02441 7.32147 6.29148 3.86035 10.3502 3.86035C12.7792 3.86035 14.9246 5.09955 16.2551 7.0191" stroke="black" stroke-width="0.9" stroke-linecap="round" stroke-linejoin="round"/>
<path d="M10.3504 13.3345C11.3017 13.3345 12.0729 12.527 12.0729 11.531C12.0729 10.535 11.3017 9.72754 10.3504 9.72754C9.39912 9.72754 8.62793 10.535 8.62793 11.531C8.62793 12.527 9.39912 13.3345 10.3504 13.3345Z" stroke="black" stroke-width="0.9" stroke-linejoin="round"/>
<path d="M8.62578 12.3438L6.47266 13.3346" stroke="black" stroke-width="0.9" stroke-linecap="round" stroke-linejoin="round"/>
<path d="M17.6739 8.12402L12.0732 10.7536" stroke="black" stroke-width="0.9" stroke-linecap="round" stroke-linejoin="round"/>
<path d="M8.19434 16.4932H12.5032" stroke="black" stroke-width="0.9" stroke-linecap="round" stroke-linejoin="round"/>
<path d="M10.35 1.60645C5.11287 1.60645 0.871094 6.05029 0.871094 11.5308C0.871094 14.3764 2.01599 16.9385 3.84678 18.7474H16.8506C18.6814 16.9385 19.8263 14.3737 19.8263 11.5308C19.8263 6.05029 15.5819 1.60645 10.3474 1.60645H10.35Z" stroke="black" stroke-width="0.9" stroke-linecap="round" stroke-linejoin="round"/>
</svg>
