<svg width="18" height="18" viewBox="0 0 18 18" fill="none" xmlns="http://www.w3.org/2000/svg">
<g clip-path="url(#clip0_0_2069)">
<path d="M3.00002 1.67982C2.44002 1.67982 1.96002 1.87982 1.56002 2.27982C1.16002 2.67982 0.960022 3.16982 0.960022 3.74982C0.960022 4.32982 1.16002 4.81982 1.56002 5.21982C1.96002 5.61982 2.44002 5.81982 3.00002 5.81982C3.56002 5.81982 4.04002 5.61982 4.44002 5.21982C4.84002 4.81982 5.04002 4.32982 5.04002 3.74982C5.04002 3.16982 4.84002 2.67982 4.44002 2.27982C4.04002 1.87982 3.56002 1.67982 3.00002 1.67982ZM3.00002 2.81982C3.24002 2.81982 3.46002 2.90982 3.66002 3.08982C3.86002 3.26982 3.96002 3.48982 3.96002 3.74982C3.96002 4.00982 3.86002 4.22982 3.66002 4.40982C3.46002 4.58982 3.24002 4.67982 3.00002 4.67982C2.76002 4.67982 2.54002 4.58982 2.34002 4.40982C2.14002 4.22982 2.04002 4.00982 2.04002 3.74982C2.04002 3.48982 2.14002 3.26982 2.34002 3.08982C2.54002 2.90982 2.76002 2.81982 3.00002 2.81982ZM3.00002 12.1798C2.44002 12.1798 1.96002 12.3798 1.56002 12.7798C1.16002 13.1798 0.960022 13.6698 0.960022 14.2498C0.960022 14.8298 1.16002 15.3198 1.56002 15.7198C1.96002 16.1198 2.44002 16.3198 3.00002 16.3198C3.56002 16.3198 4.04002 16.1198 4.44002 15.7198C4.84002 15.3198 5.04002 14.8298 5.04002 14.2498C5.04002 13.6698 4.84002 13.1798 4.44002 12.7798C4.04002 12.3798 3.56002 12.1798 3.00002 12.1798ZM3.00002 13.3198C3.24002 13.3198 3.46002 13.4098 3.66002 13.5898C3.86002 13.7698 3.96002 13.9898 3.96002 14.2498C3.96002 14.5098 3.86002 14.7298 3.66002 14.9098C3.46002 15.0898 3.24002 15.1798 3.00002 15.1798C2.76002 15.1798 2.54002 15.0898 2.34002 14.9098C2.14002 14.7298 2.04002 14.5098 2.04002 14.2498C2.04002 13.9898 2.14002 13.7698 2.34002 13.5898C2.54002 13.4098 2.76002 13.3198 3.00002 13.3198ZM9.00002 1.67982C8.44002 1.67982 7.96002 1.87982 7.56002 2.27982C7.16002 2.67982 6.96002 3.16982 6.96002 3.74982C6.96002 4.32982 7.16002 4.81982 7.56002 5.21982C7.96002 5.61982 8.44002 5.81982 9.00002 5.81982C9.56002 5.81982 10.04 5.61982 10.44 5.21982C10.84 4.81982 11.04 4.32982 11.04 3.74982C11.04 3.16982 10.84 2.67982 10.44 2.27982C10.04 1.87982 9.56002 1.67982 9.00002 1.67982ZM9.00002 2.81982C9.24002 2.81982 9.46002 2.90982 9.66002 3.08982C9.86002 3.26982 9.96002 3.48982 9.96002 3.74982C9.96002 4.00982 9.86002 4.22982 9.66002 4.40982C9.46002 4.58982 9.24002 4.67982 9.00002 4.67982C8.76002 4.67982 8.54002 4.58982 8.34002 4.40982C8.14002 4.22982 8.04002 4.00982 8.04002 3.74982C8.04002 3.48982 8.14002 3.26982 8.34002 3.08982C8.54002 2.90982 8.76002 2.81982 9.00002 2.81982ZM9.00002 12.1798C8.44002 12.1798 7.96002 12.3798 7.56002 12.7798C7.16002 13.1798 6.96002 13.6698 6.96002 14.2498C6.96002 14.8298 7.16002 15.3198 7.56002 15.7198C7.96002 16.1198 8.44002 16.3198 9.00002 16.3198C9.56002 16.3198 10.04 16.1198 10.44 15.7198C10.84 15.3198 11.04 14.8298 11.04 14.2498C11.04 13.6698 10.84 13.1798 10.44 12.7798C10.04 12.3798 9.56002 12.1798 9.00002 12.1798ZM9.00002 13.3198C9.24002 13.3198 9.46002 13.4098 9.66002 13.5898C9.86002 13.7698 9.96002 13.9898 9.96002 14.2498C9.96002 14.5098 9.86002 14.7298 9.66002 14.9098C9.46002 15.0898 9.24002 15.1798 9.00002 15.1798C8.76002 15.1798 8.54002 15.0898 8.34002 14.9098C8.14002 14.7298 8.04002 14.5098 8.04002 14.2498C8.04002 13.9898 8.14002 13.7698 8.34002 13.5898C8.54002 13.4098 8.76002 13.3198 9.00002 13.3198ZM15 1.67982C14.44 1.67982 13.96 1.87982 13.56 2.27982C13.16 2.67982 12.96 3.16982 12.96 3.74982C12.96 4.32982 13.16 4.81982 13.56 5.21982C13.96 5.61982 14.44 5.81982 15 5.81982C15.56 5.81982 16.04 5.61982 16.44 5.21982C16.84 4.81982 17.04 4.32982 17.04 3.74982C17.04 3.16982 16.84 2.67982 16.44 2.27982C16.04 1.87982 15.56 1.67982 15 1.67982ZM15 2.81982C15.24 2.81982 15.46 2.90982 15.66 3.08982C15.86 3.26982 15.96 3.48982 15.96 3.74982C15.96 4.00982 15.86 4.22982 15.66 4.40982C15.46 4.58982 15.24 4.67982 15 4.67982C14.76 4.67982 14.54 4.58982 14.34 4.40982C14.14 4.22982 14.04 4.00982 14.04 3.74982C14.04 3.48982 14.14 3.26982 14.34 3.08982C14.54 2.90982 14.76 2.81982 15 2.81982ZM15 12.1798C14.44 12.1798 13.96 12.3798 13.56 12.7798C13.16 13.1798 12.96 13.6698 12.96 14.2498C12.96 14.8298 13.16 15.3198 13.56 15.7198C13.96 16.1198 14.44 16.3198 15 16.3198C15.56 16.3198 16.04 16.1198 16.44 15.7198C16.84 15.3198 17.04 14.8298 17.04 14.2498C17.04 13.6698 16.84 13.1798 16.44 12.7798C16.04 12.3798 15.56 12.1798 15 12.1798ZM15 13.3198C15.24 13.3198 15.46 13.4098 15.66 13.5898C15.86 13.7698 15.96 13.9898 15.96 14.2498C15.96 14.5098 15.86 14.7298 15.66 14.9098C15.46 15.0898 15.24 15.1798 15 15.1798C14.76 15.1798 14.54 15.0898 14.34 14.9098C14.14 14.7298 14.04 14.5098 14.04 14.2498C14.04 13.9898 14.14 13.7698 14.34 13.5898C14.54 13.4098 14.76 13.3198 15 13.3198ZM2.46002 5.21982V12.7198C2.46002 12.8798 2.51002 13.0198 2.61002 13.1398C2.71002 13.2598 2.84002 13.3198 3.00002 13.3198C3.16002 13.3198 3.29002 13.2598 3.39002 13.1398C3.49002 13.0198 3.54002 12.8998 3.54002 12.7798V5.21982C3.54002 5.09982 3.49002 4.97982 3.39002 4.85982C3.29002 4.73982 3.16002 4.67982 3.00002 4.67982C2.84002 4.67982 2.71002 4.73982 2.61002 4.85982C2.51002 4.97982 2.46002 5.09982 2.46002 5.21982ZM8.46002 5.21982V12.7198C8.46002 12.8798 8.51002 13.0198 8.61002 13.1398C8.71002 13.2598 8.84002 13.3198 9.00002 13.3198C9.16002 13.3198 9.29002 13.2598 9.39002 13.1398C9.49002 13.0198 9.54002 12.8998 9.54002 12.7798V5.21982C9.54002 5.09982 9.49002 4.97982 9.39002 4.85982C9.29002 4.73982 9.16002 4.67982 9.00002 4.67982C8.84002 4.67982 8.71002 4.73982 8.61002 4.85982C8.51002 4.97982 8.46002 5.09982 8.46002 5.21982ZM14.46 5.21982V8.21982C14.46 8.29982 14.44 8.35982 14.4 8.39982C14.36 8.43982 14.32 8.45982 14.28 8.45982H3.00002C2.84002 8.45982 2.71002 8.50982 2.61002 8.60982C2.51002 8.70982 2.46002 8.83982 2.46002 8.99982C2.46002 9.15982 2.51002 9.28982 2.61002 9.38982C2.71002 9.48982 2.84002 9.53982 3.00002 9.53982H14.28C14.64 9.53982 14.94 9.41982 15.18 9.17982C15.42 8.93982 15.54 8.61982 15.54 8.21982V5.27982C15.54 5.11982 15.49 4.97982 15.39 4.85982C15.29 4.73982 15.16 4.67982 15 4.67982C14.84 4.67982 14.71 4.73982 14.61 4.85982C14.51 4.97982 14.46 5.09982 14.46 5.21982Z" fill="#050B20"/>
</g>
<defs>
<clipPath id="clip0_0_2069">
<rect width="18" height="18" fill="white" transform="matrix(1 0 0 -1 0 18)"/>
</clipPath>
</defs>
</svg>
