<svg width="8" height="12" viewBox="0 0 8 12" fill="none" xmlns="http://www.w3.org/2000/svg">
<path d="M6.25529 0.000136305C6.43161 0.000634899 6.60381 0.0513579 6.75009 0.145884C6.89638 0.24041 7.01018 0.37449 7.07707 0.531151C7.14397 0.687813 7.16097 0.860013 7.12591 1.02596C7.09085 1.1919 7.00532 1.34412 6.88013 1.46336L2.1565 6.00063L6.87679 10.5379C7.04413 10.6983 7.13826 10.916 7.13847 11.1431C7.13868 11.3702 7.04495 11.588 6.8779 11.7487C6.71086 11.9094 6.48417 11.9998 6.24772 12C6.01127 12.0002 5.78442 11.9102 5.61708 11.7498L0.261929 6.6071C0.178916 6.52761 0.113053 6.43317 0.0681133 6.32919C0.0231737 6.22521 4.10232e-05 6.11374 4.10331e-05 6.00117C4.10429e-05 5.88859 0.0231738 5.77712 0.0681133 5.67314C0.113053 5.56916 0.178916 5.47472 0.261929 5.39523L5.61708 0.251494C5.70073 0.170966 5.80025 0.107261 5.90983 0.0641017C6.01941 0.0209426 6.13685 -0.000802488 6.25529 0.000136305Z" fill="#619D1C"/>
</svg>
