<svg width="27" height="27" viewBox="0 0 27 27" fill="none" xmlns="http://www.w3.org/2000/svg">
<path d="M26.8475 12.6137L24.7706 10.5369C24.7224 10.4885 24.6651 10.4501 24.602 10.424C24.5389 10.3978 24.4713 10.3843 24.403 10.3843C24.3347 10.3843 24.2671 10.3978 24.204 10.424C24.1409 10.4501 24.0836 10.4885 24.0354 10.5369L23.3646 11.2087L15.7913 3.63544L16.4631 2.96461C16.5115 2.91638 16.5499 2.85909 16.576 2.79601C16.6022 2.73293 16.6157 2.6653 16.6157 2.59701C16.6157 2.52871 16.6022 2.46109 16.576 2.39801C16.5499 2.33493 16.5115 2.27763 16.4631 2.2294L14.3863 0.152539C14.338 0.104186 14.2808 0.0658239 14.2177 0.0396487C14.1546 0.0134735 14.087 0 14.0187 0C13.9504 0 13.8828 0.0134735 13.8197 0.0396487C13.7566 0.0658239 13.6993 0.104186 13.6511 0.152539L7.42048 6.38313C7.37213 6.43136 7.33376 6.48866 7.30759 6.55174C7.28141 6.61482 7.26794 6.68244 7.26794 6.75073C7.26794 6.81903 7.28141 6.88665 7.30759 6.94973C7.33376 7.01281 7.37213 7.07011 7.42048 7.11834L9.49734 9.1952C9.54557 9.24356 9.60287 9.28192 9.66595 9.30809C9.72903 9.33427 9.79665 9.34774 9.86495 9.34774C9.93324 9.34774 10.0009 9.33427 10.0639 9.30809C10.127 9.28192 10.1843 9.24356 10.2326 9.1952L10.9034 8.52334L13.2845 10.9045L9.86495 14.324L9.19412 13.6522C9.09457 13.5586 8.96311 13.5066 8.82652 13.5066C8.68992 13.5066 8.55846 13.5586 8.45891 13.6522L1.01232 21.0998C0.364141 21.748 -6.82964e-09 22.6271 0 23.5437C6.82964e-09 24.4604 0.364141 25.3395 1.01232 25.9877C1.66049 26.6359 2.53961 27 3.45627 27C4.37292 27 5.25204 26.6359 5.90022 25.9877L13.3478 18.5411C13.3962 18.4929 13.4346 18.4356 13.4607 18.3725C13.4869 18.3094 13.5004 18.2418 13.5004 18.1735C13.5004 18.1052 13.4869 18.0376 13.4607 17.9745C13.4346 17.9114 13.3962 17.8541 13.3478 17.8059L12.676 17.1351L16.0955 13.7155L18.4767 16.0966L17.8048 16.7674C17.7564 16.8157 17.7181 16.873 17.6919 16.9361C17.6657 16.9991 17.6523 17.0668 17.6523 17.1351C17.6523 17.2033 17.6657 17.271 17.6919 17.3341C17.7181 17.3971 17.7564 17.4544 17.8048 17.5027L19.8817 19.5795C19.9299 19.6279 19.9872 19.6662 20.0503 19.6924C20.1133 19.7186 20.181 19.7321 20.2493 19.7321C20.3176 19.7321 20.3852 19.7186 20.4483 19.6924C20.5113 19.6662 20.5686 19.6279 20.6169 19.5795L26.8475 13.3489C26.8958 13.3007 26.9342 13.2434 26.9604 13.1803C26.9865 13.1172 27 13.0496 27 12.9813C27 12.913 26.9865 12.8454 26.9604 12.7823C26.9342 12.7192 26.8958 12.662 26.8475 12.6137ZM9.86495 8.09343L8.52225 6.75073L14.0187 1.25432L15.3614 2.59701L9.86495 8.09343ZM11.9418 16.4009L10.5991 15.0582L14.0187 11.6386L15.3614 12.9813L11.9418 16.4009ZM20.2493 18.4777L18.9066 17.1351L24.403 11.6386L25.7457 12.9813L20.2493 18.4777Z" fill="white"/>
</svg>
