<svg width="21" height="21" viewBox="0 0 21 21" fill="none" xmlns="http://www.w3.org/2000/svg">
<g clip-path="url(#clip0_0_3510)">
<path d="M16.0527 12.4761H16.6448C16.8202 12.4761 16.9628 12.4021 17.0724 12.254C17.1821 12.1059 17.2369 11.9454 17.2369 11.7726C17.2369 11.5998 17.1821 11.4394 17.0724 11.2913C16.9628 11.1432 16.8202 11.0691 16.6448 11.0691H15.1316L14.2106 9.29181C13.9036 8.74875 13.5198 8.32911 13.0593 8.03289C12.5987 7.73668 12.0834 7.58857 11.5132 7.58857H5.72371C5.15353 7.58857 4.63818 7.73668 4.17765 8.03289C3.71712 8.32911 3.33335 8.74875 3.02633 9.29181L2.10527 11.0691H0.592108C0.416668 11.0691 0.274124 11.1432 0.164474 11.2913C0.0548248 11.4394 0 11.5998 0 11.7726C0 11.9454 0.0548248 12.1059 0.164474 12.254C0.274124 12.4021 0.416668 12.4761 0.592108 12.4761H1.25001L0.855267 12.9945C0.285089 13.8831 0 14.8705 0 15.9567V19.4372C0 19.9802 0.175439 20.4616 0.526318 20.8812C0.877197 21.3009 1.3158 21.5107 1.84211 21.5107H3.09212C3.57458 21.5107 4.00221 21.3009 4.37502 20.8812C4.74783 20.4616 4.93423 19.9802 4.93423 19.4372H12.3027C12.3027 19.9802 12.4891 20.4616 12.8619 20.8812C13.2347 21.3009 13.6623 21.5107 14.1448 21.5107H15.3948C15.9211 21.5107 16.3597 21.3009 16.7106 20.8812C17.0615 20.4616 17.2369 19.9802 17.2369 19.4372V15.9567C17.2369 14.8705 16.9518 13.8831 16.3816 12.9945L16.0527 12.4761ZM4.07897 10.0323C4.2544 9.68676 4.48467 9.42757 4.76976 9.25478C5.05485 9.08199 5.37283 8.99559 5.72371 8.99559H11.5132C11.8641 8.99559 12.1821 9.08199 12.4672 9.25478C12.7522 9.42757 12.9825 9.68676 13.158 10.0323L13.9474 11.5875L13.5527 11.8837C13.0264 12.2786 12.4562 12.4761 11.8422 12.4761H5.39476C4.78072 12.4761 4.21054 12.2786 3.68423 11.8837L3.28949 11.5875L4.07897 10.0323ZM16.0527 19.4372C16.0527 19.5853 15.9869 19.7334 15.8553 19.8815C15.7238 20.0296 15.5702 20.1037 15.3948 20.1037H14.1448C14.0132 20.1037 13.8816 20.0296 13.7501 19.8815C13.6185 19.7334 13.5527 19.5853 13.5527 19.4372V18.6966C13.5527 18.4992 13.4979 18.3387 13.3882 18.2153C13.2786 18.0919 13.136 18.0302 12.9606 18.0302H4.27633C4.10089 18.0302 3.95835 18.0919 3.8487 18.2153C3.73905 18.3387 3.68423 18.4992 3.68423 18.6966V19.4372C3.68423 19.5853 3.61844 19.7334 3.48686 19.8815C3.35528 20.0296 3.2237 20.1037 3.09212 20.1037H1.84211C1.66667 20.1037 1.51316 20.0296 1.38158 19.8815C1.25001 19.7334 1.18422 19.5853 1.18422 19.4372V15.9567C1.22808 15.1667 1.44737 14.4756 1.84211 13.8831L2.5658 12.6983L3.02633 13.0686C3.77195 13.6116 4.56142 13.8831 5.39476 13.8831H11.8422C12.6755 13.8831 13.465 13.6116 14.2106 13.0686L14.6711 12.6983L15.3948 13.8831C15.7895 14.4756 15.9869 15.1667 15.9869 15.9567V19.4372H16.0527ZM13.5527 15.9567C13.5527 16.1541 13.6075 16.3146 13.7172 16.438C13.8268 16.5614 13.9694 16.6231 14.1448 16.6231C14.3202 16.6231 14.4737 16.5614 14.6053 16.438C14.7369 16.3146 14.8027 16.1541 14.8027 15.9567C14.8027 15.7592 14.7369 15.5864 14.6053 15.4383C14.4737 15.2902 14.3202 15.2161 14.1448 15.2161C13.9694 15.2161 13.8268 15.2902 13.7172 15.4383C13.6075 15.5864 13.5527 15.7592 13.5527 15.9567ZM2.43422 15.9567C2.43422 16.1541 2.50001 16.3146 2.63159 16.438C2.76317 16.5614 2.91668 16.6231 3.09212 16.6231C3.26756 16.6231 3.4101 16.5614 3.51975 16.438C3.6294 16.3146 3.68423 16.1541 3.68423 15.9567C3.68423 15.7592 3.6294 15.5864 3.51975 15.4383C3.4101 15.2902 3.26756 15.2161 3.09212 15.2161C2.91668 15.2161 2.76317 15.2902 2.63159 15.4383C2.50001 15.5864 2.43422 15.7592 2.43422 15.9567Z" fill="white"/>
<mask id="mask0_0_3510" style="mask-type:alpha" maskUnits="userSpaceOnUse" x="3" y="3" width="18" height="15">
<path d="M19.7271 8.80172H20.3192C20.4946 8.80172 20.6372 8.72767 20.7468 8.57956C20.8565 8.43145 20.9113 8.271 20.9113 8.09821C20.9113 7.92542 20.8565 7.76497 20.7468 7.61686C20.6372 7.46875 20.4946 7.3947 20.3192 7.3947H18.806L17.885 5.61741C17.578 5.07435 17.1942 4.65471 16.7337 4.35849C16.2731 4.06228 15.7578 3.91417 15.1876 3.91417H9.39811C8.82793 3.91417 8.31258 4.06228 7.85205 4.35849C7.39152 4.65471 7.00775 5.07435 6.70073 5.61741L5.77967 7.3947H4.26651C4.09107 7.3947 3.94852 7.46875 3.83887 7.61686C3.72922 7.76497 3.6744 7.92542 3.6744 8.09821C3.6744 8.271 3.72922 8.43145 3.83887 8.57956C3.94852 8.72767 4.09107 8.80172 4.26651 8.80172H4.92441L4.52967 9.3201C3.95949 10.2087 3.6744 11.1961 3.6744 12.2823V15.7628C3.6744 16.3058 3.84984 16.7872 4.20072 17.2068C4.5516 17.6265 4.99019 17.8363 5.51651 17.8363H6.76652C7.24898 17.8363 7.67661 17.6265 8.04942 17.2068C8.42223 16.7872 8.60863 16.3058 8.60863 15.7628H15.9771C15.9771 16.3058 16.1635 16.7872 16.5363 17.2068C16.9091 17.6265 17.3367 17.8363 17.8192 17.8363H19.0692C19.5955 17.8363 20.0341 17.6265 20.385 17.2068C20.7359 16.7872 20.9113 16.3058 20.9113 15.7628V12.2823C20.9113 11.1961 20.6262 10.2087 20.056 9.3201L19.7271 8.80172ZM7.75336 6.35795C7.9288 6.01236 8.15907 5.75317 8.44416 5.58038C8.72925 5.40759 9.04723 5.32119 9.39811 5.32119H15.1876C15.5385 5.32119 15.8565 5.40759 16.1416 5.58038C16.4266 5.75317 16.6569 6.01236 16.8324 6.35795L17.6218 7.91308L17.2271 8.20929C16.7008 8.60425 16.1306 8.80172 15.5166 8.80172H9.06916C8.45512 8.80172 7.88494 8.60425 7.35863 8.20929L6.96389 7.91308L7.75336 6.35795ZM19.7271 15.7628C19.7271 15.9109 19.6613 16.059 19.5297 16.2071C19.3982 16.3552 19.2446 16.4293 19.0692 16.4293H17.8192C17.6876 16.4293 17.556 16.3552 17.4245 16.2071C17.2929 16.059 17.2271 15.9109 17.2271 15.7628V15.0222C17.2271 14.8248 17.1723 14.6643 17.0626 14.5409C16.953 14.4175 16.8104 14.3558 16.635 14.3558H7.95073C7.77529 14.3558 7.63275 14.4175 7.5231 14.5409C7.41345 14.6643 7.35863 14.8248 7.35863 15.0222V15.7628C7.35863 15.9109 7.29284 16.059 7.16126 16.2071C7.02968 16.3552 6.8981 16.4293 6.76652 16.4293H5.51651C5.34107 16.4293 5.18756 16.3552 5.05598 16.2071C4.92441 16.059 4.85862 15.9109 4.85862 15.7628V12.2823C4.90248 11.4923 5.12177 10.8012 5.51651 10.2087L6.2402 9.02388L6.70073 9.39415C7.44635 9.93722 8.23582 10.2087 9.06916 10.2087H15.5166C16.3499 10.2087 17.1394 9.93722 17.885 9.39415L18.3455 9.02388L19.0692 10.2087C19.4639 10.8012 19.6613 11.4923 19.6613 12.2823V15.7628H19.7271ZM17.2271 12.2823C17.2271 12.4797 17.2819 12.6402 17.3916 12.7636C17.5012 12.887 17.6438 12.9487 17.8192 12.9487C17.9946 12.9487 18.1481 12.887 18.2797 12.7636C18.4113 12.6402 18.4771 12.4797 18.4771 12.2823C18.4771 12.0848 18.4113 11.912 18.2797 11.7639C18.1481 11.6158 17.9946 11.5417 17.8192 11.5417C17.6438 11.5417 17.5012 11.6158 17.3916 11.7639C17.2819 11.912 17.2271 12.0848 17.2271 12.2823ZM6.10862 12.2823C6.10862 12.4797 6.17441 12.6402 6.30599 12.7636C6.43757 12.887 6.59108 12.9487 6.76652 12.9487C6.94196 12.9487 7.0845 12.887 7.19415 12.7636C7.3038 12.6402 7.35863 12.4797 7.35863 12.2823C7.35863 12.0848 7.3038 11.912 7.19415 11.7639C7.0845 11.6158 6.94196 11.5417 6.76652 11.5417C6.59108 11.5417 6.43757 11.6158 6.30599 11.7639C6.17441 11.912 6.10862 12.0848 6.10862 12.2823Z" fill="white"/>
</mask>
<g mask="url(#mask0_0_3510)">
<path d="M12.491 7.22141H5.14296L7.71478 2.81257C10.4091 2.81257 16.0181 2.88605 16.8999 3.17997C17.7816 3.4739 18.7369 5.50686 19.1043 6.4866H20.5739C21.0638 6.60907 22.0435 7.07445 22.0435 7.95621C22.0435 8.83798 21.5536 9.30336 21.3087 9.42583C21.5536 11.6302 21.8965 16.333 21.3087 17.5087C20.7208 18.6844 18.6144 18.7334 17.6347 18.6109V14.5695C17.6347 13.9816 17.1448 12.8549 16.8999 12.3651V11.9976C17.0223 11.7527 17.3407 11.1894 17.6347 10.8954C17.9286 10.6015 17.5122 10.2831 17.2673 10.1606H15.0628C14.6954 9.42583 14.1811 8.17666 13.5932 7.58881C13.0054 7.00097 12.491 7.95621 12.491 7.22141Z" fill="white"/>
</g>
<circle cx="5.63415" cy="6.65854" r="5.63415" fill="#FD0200"/>
<path d="M4.92888 2.49195V8.75211V2.49195Z" fill="white"/>
<path d="M4.92888 2.49195V8.75211" stroke="white" stroke-linecap="round" stroke-linejoin="round"/>
<path d="M1.79969 5.62214H8.05985H1.79969Z" fill="white"/>
<path d="M1.79969 5.62214H8.05985" stroke="white" stroke-linecap="round" stroke-linejoin="round"/>
</g>
<defs>
<clipPath id="clip0_0_3510">
<rect width="20.5" height="20.5" fill="white" transform="scale(1.02439)"/>
</clipPath>
</defs>
</svg>
