<svg width="14" height="15" viewBox="0 0 14 15" fill="none" xmlns="http://www.w3.org/2000/svg">
<path fill-rule="evenodd" clip-rule="evenodd" d="M8.31611 5.96693V11.333V5.96693Z" fill="#CE0000"/>
<path fill-rule="evenodd" clip-rule="evenodd" d="M5.22958 5.96693V11.333V5.96693Z" fill="#CE0000"/>
<path fill-rule="evenodd" clip-rule="evenodd" d="M0.599797 2.90057H12.9459H0.599797Z" fill="#CE0000"/>
<path d="M8.31611 5.96693V11.333M5.22958 5.96693V11.333M0.599797 2.90057H12.9459M11.4026 2.90057V11.9463C11.4026 12.805 11.4028 13.2343 11.2346 13.5623C11.0866 13.8508 10.8502 14.0853 10.5598 14.2323C10.2297 14.3994 9.79787 14.3994 8.93356 14.3994H4.61243C3.74812 14.3994 3.31565 14.3994 2.98552 14.2323C2.69514 14.0853 2.45922 13.8508 2.31127 13.5623C2.14306 13.2343 2.14306 12.805 2.14306 11.9463V2.90057H11.4026ZM9.85937 2.90057H3.68632C3.68632 2.1862 3.68632 1.82901 3.8038 1.54725C3.96043 1.17158 4.26066 0.873125 4.6388 0.717517C4.92241 0.600811 5.28214 0.600811 6.00122 0.600811H7.54448C8.26355 0.600811 8.62308 0.600811 8.90669 0.717517C9.28483 0.873125 9.58519 1.17158 9.74182 1.54725C9.85929 1.82901 9.85937 2.18621 9.85937 2.90057Z" stroke="white" stroke-width="1.15809" stroke-linecap="round" stroke-linejoin="round"/>
</svg>
