<svg width="1178" height="166" viewBox="0 0 1178 166" fill="none" xmlns="http://www.w3.org/2000/svg">
<g clip-path="url(#clip0_1831_78936)">
<path d="M628.111 57.4729C628.111 57.4729 613.008 88.9484 571.221 98.1101C528.611 107.451 492.197 85.4601 484.994 64.8635C476.319 40.0539 502.88 33.4415 506.008 57.7408C510.136 89.8138 463.81 130.089 333.65 130.089H324.429" stroke="#C2C2C2" stroke-width="3" stroke-linecap="round" stroke-linejoin="round"/>
<path d="M192.619 92.5734L193.92 91.9947C194.168 91.8835 194.168 91.5299 193.92 91.4187L192.619 90.84C191.697 90.4287 190.959 89.6893 190.549 88.7622L189.972 87.4575C189.861 87.2083 189.509 87.2083 189.398 87.4575L188.821 88.7622C188.411 89.6879 187.674 90.4287 186.751 90.84L185.45 91.4187C185.202 91.5299 185.202 91.8835 185.45 91.9947L186.751 92.5734C187.673 92.9847 188.411 93.7242 188.821 94.6512L189.398 95.956C189.509 96.2051 189.861 96.2051 189.972 95.956L190.549 94.6512C190.959 93.7255 191.695 92.9847 192.619 92.5734Z" stroke="#C2C2C2" stroke-width="3" stroke-linecap="round" stroke-linejoin="round"/>
<path d="M330.228 28.2397L332.224 27.3515C332.605 27.1814 332.605 26.6375 332.224 26.4674L330.228 25.5792C328.81 24.9482 327.677 23.8122 327.049 22.3896L326.164 20.3868C325.994 20.0037 325.452 20.0037 325.283 20.3868L324.398 22.3896C323.769 23.8122 322.637 24.9496 321.219 25.5792L319.223 26.4674C318.841 26.6375 318.841 27.1814 319.223 27.3515L321.219 28.2397C322.637 28.8706 323.77 30.0066 324.398 31.4293L325.283 33.432C325.452 33.8151 325.994 33.8151 326.164 33.432L327.049 31.4293C327.678 30.0066 328.81 28.8693 330.228 28.2397Z" stroke="#C2C2C2" stroke-width="3" stroke-linecap="round" stroke-linejoin="round"/>
<path d="M308.393 14.589L309.693 14.0103C309.941 13.8991 309.941 13.5455 309.693 13.4343L308.393 12.8556C307.47 12.4443 306.732 11.7048 306.322 10.7778L305.745 9.47305C305.635 9.22388 305.282 9.22388 305.171 9.47305L304.595 10.7778C304.185 11.7035 303.448 12.4443 302.524 12.8556L301.224 13.4343C300.975 13.5455 300.975 13.8991 301.224 14.0103L302.524 14.589C303.446 15.0003 304.185 15.7398 304.595 16.6668L305.171 17.9716C305.282 18.2207 305.635 18.2207 305.745 17.9716L306.322 16.6668C306.732 15.7411 307.469 15.0003 308.393 14.589Z" stroke="#C2C2C2" stroke-width="3" stroke-linecap="round" stroke-linejoin="round"/>
<path d="M190.927 130.088C79.65 130.088 94.6237 166.875 112.716 163.957C142.438 159.164 168.99 50.0512 10.3433 82.8128" stroke="#C2C2C2" stroke-width="3" stroke-linecap="round" stroke-linejoin="round"/>
<path d="M221.083 130.088H190.924" stroke="#C2C2C2" stroke-width="3" stroke-linecap="round" stroke-linejoin="round"/>
<path d="M324.429 130.088H310.861" stroke="#C2C2C2" stroke-width="3" stroke-linecap="round" stroke-linejoin="round"/>
<path d="M327.924 73.8162H344.482" stroke="#C2C2C2" stroke-width="3" stroke-linecap="round" stroke-linejoin="round"/>
<path d="M314.035 73.8162H323.052" stroke="#C2C2C2" stroke-width="3" stroke-linecap="round" stroke-linejoin="round"/>
<path d="M319.113 80.2461H334.337" stroke="#C2C2C2" stroke-width="3" stroke-linecap="round" stroke-linejoin="round"/>
<path d="M185.184 49.8354L184.447 50.5749" stroke="#C2C2C2" stroke-width="3" stroke-linecap="round" stroke-linejoin="round"/>
<path d="M181.205 53.8265L180.468 54.5673" stroke="#C2C2C2" stroke-width="3" stroke-linecap="round" stroke-linejoin="round"/>
<path d="M185.184 54.5673L184.447 53.8265" stroke="#C2C2C2" stroke-width="3" stroke-linecap="round" stroke-linejoin="round"/>
<path d="M181.205 50.5749L180.468 49.8354" stroke="#C2C2C2" stroke-width="3" stroke-linecap="round" stroke-linejoin="round"/>
<path d="M193.803 63.3658L193.602 63.1622" stroke="#C2C2C2" stroke-width="3" stroke-linecap="round" stroke-linejoin="round"/>
<path d="M196.701 66.2712L196.498 66.0676" stroke="#C2C2C2" stroke-width="3" stroke-linecap="round" stroke-linejoin="round"/>
<path d="M196.498 63.3658L196.701 63.1622" stroke="#C2C2C2" stroke-width="3" stroke-linecap="round" stroke-linejoin="round"/>
<path d="M193.602 66.2712L193.803 66.0676" stroke="#C2C2C2" stroke-width="3" stroke-linecap="round" stroke-linejoin="round"/>
<path d="M332.82 101.363L332.083 102.103" stroke="#C2C2C2" stroke-width="3" stroke-linecap="round" stroke-linejoin="round"/>
<path d="M328.84 105.355L328.103 106.094" stroke="#C2C2C2" stroke-width="3" stroke-linecap="round" stroke-linejoin="round"/>
<path d="M332.82 106.094L332.083 105.355" stroke="#C2C2C2" stroke-width="3" stroke-linecap="round" stroke-linejoin="round"/>
<path d="M328.84 102.103L328.103 101.363" stroke="#C2C2C2" stroke-width="3" stroke-linecap="round" stroke-linejoin="round"/>
<path d="M175.007 117.17H195.59" stroke="#C2C2C2" stroke-width="3" stroke-linecap="round" stroke-linejoin="round"/>
<path d="M181.941 111.033H191.22" stroke="#C2C2C2" stroke-width="3" stroke-linecap="round" stroke-linejoin="round"/>
<path d="M221.083 130.088C219.215 130.088 217.701 128.569 217.701 126.695V79.3582" stroke="#C2C2C2" stroke-width="3" stroke-linecap="round" stroke-linejoin="round"/>
<path d="M293.536 79.3582V93.6452" stroke="#C2C2C2" stroke-width="3" stroke-linecap="round" stroke-linejoin="round"/>
<path d="M249.302 79.358H213.186C211.319 79.358 209.805 77.8389 209.805 75.9648V62.1427C209.805 60.2685 211.319 58.7494 213.186 58.7494H298.056C299.923 58.7494 301.437 60.2685 301.437 62.1427V75.9648C301.437 77.8389 299.923 79.358 298.056 79.358H261.94" stroke="#C2C2C2" stroke-width="3" stroke-linecap="round" stroke-linejoin="round"/>
<path d="M249.301 130.087V56.6692C249.301 53.1674 252.13 50.3274 255.622 50.3274C259.113 50.3274 261.942 53.1661 261.942 56.6692V130.088" stroke="#C2C2C2" stroke-width="3" stroke-linecap="round" stroke-linejoin="round"/>
<path d="M288.797 58.7493C297.276 49.4457 291.77 39.2405 283.077 38.7315C273.852 38.1916 265.127 47.4443 261.294 53.8771" stroke="#C2C2C2" stroke-width="3" stroke-linecap="round" stroke-linejoin="round"/>
<path d="M222.416 58.7493C213.937 49.4457 219.443 39.2405 228.137 38.7315C237.362 38.1916 246.086 47.4443 249.919 53.8771" stroke="#C2C2C2" stroke-width="3" stroke-linecap="round" stroke-linejoin="round"/>
<path d="M276.211 130.088V106.91" stroke="#C2C2C2" stroke-width="3" stroke-linecap="round" stroke-linejoin="round"/>
<path d="M310.861 106.91V130.088" stroke="#C2C2C2" stroke-width="3" stroke-linecap="round" stroke-linejoin="round"/>
<path d="M312.498 97.4936H274.575C273.486 97.4936 272.603 98.3795 272.603 99.4723V104.931C272.603 106.024 273.486 106.91 274.575 106.91H312.498C313.587 106.91 314.47 106.024 314.47 104.931V99.4723C314.47 98.3795 313.587 97.4936 312.498 97.4936Z" stroke="#C2C2C2" stroke-width="3" stroke-linecap="round" stroke-linejoin="round"/>
<path d="M290.651 97.4939V96.5428C290.651 94.9433 291.943 93.6452 293.539 93.6452C295.134 93.6452 296.426 94.942 296.426 96.5428V97.4939" stroke="#C2C2C2" stroke-width="3" stroke-linecap="round" stroke-linejoin="round"/>
<path d="M308.694 97.4935C312.569 93.2429 310.053 88.5797 306.08 88.3466C301.866 88.1001 297.879 92.3279 296.128 95.267" stroke="#C2C2C2" stroke-width="3" stroke-linecap="round" stroke-linejoin="round"/>
<path d="M278.365 97.4935C274.491 93.2429 277.006 88.5797 280.979 88.3466C285.194 88.1001 289.18 92.3279 290.932 95.267" stroke="#C2C2C2" stroke-width="3" stroke-linecap="round" stroke-linejoin="round"/>
</g>
<path d="M1176.5 16.4438C1176.5 16.4438 1161.4 47.9194 1119.61 57.081C1077 66.4221 1040.59 44.431 1033.38 23.8345C1024.71 -0.975168 1051.27 -7.5875 1054.4 16.7117C1058.52 48.7848 897.635 116.427 767.258 87.9068H758.037" stroke="#C2C2C2" stroke-width="3" stroke-linecap="round" stroke-linejoin="round"/>
<defs>
<clipPath id="clip0_1831_78936">
<rect width="620" height="157" fill="white" transform="translate(0 8.35046) scale(1.00071)"/>
</clipPath>
</defs>
</svg>
