<svg width="14" height="14" viewBox="0 0 14 14" fill="none" xmlns="http://www.w3.org/2000/svg">
<g clip-path="url(#clip0_0_4446)">
<path d="M10.6827 7.69999L4.66769 13.72C4.48118 13.9067 4.25581 14 3.99158 14C3.72736 14 3.49422 13.9067 3.29217 13.72C3.09011 13.5333 2.98909 13.3 2.98909 13.02C2.98909 12.74 3.09789 12.5067 3.31548 12.32L8.63105 6.99999L3.31548 1.67998C3.09789 1.49331 2.98909 1.25998 2.98909 0.979979C2.98909 0.699979 3.09011 0.466645 3.29217 0.279978C3.49422 0.0933105 3.72736 -2.31071e-05 3.99158 -2.31071e-05C4.25581 -2.31071e-05 4.48118 0.0933105 4.66769 0.279978L10.6827 6.29999C10.9003 6.48665 11.0091 6.71999 11.0091 6.99999C11.0091 7.27999 10.9003 7.51332 10.6827 7.69999Z" fill="white"/>
</g>
<defs>
<clipPath id="clip0_0_4446">
<rect width="13.2453" height="13.2896" fill="white" transform="matrix(1.05346 0 0 -1.05346 0 14)"/>
</clipPath>
</defs>
</svg>
