<svg width="24" height="19" viewBox="0 0 24 19" fill="none" xmlns="http://www.w3.org/2000/svg">
<path d="M21.9074 6.67034H22.7155C22.9549 6.67034 23.1495 6.56928 23.2991 6.36715C23.4487 6.16503 23.5236 5.94606 23.5236 5.71025C23.5236 5.47443 23.4487 5.25546 23.2991 5.05334C23.1495 4.85121 22.9549 4.75015 22.7155 4.75015H20.6505L19.3935 2.32464C18.9745 1.58352 18.4507 1.01083 17.8222 0.606577C17.1937 0.202325 16.4904 0.000199497 15.7123 0.000199497H7.81126C7.03313 0.000199497 6.32981 0.202325 5.70132 0.606577C5.07283 1.01083 4.54909 1.58352 4.13009 2.32464L2.87311 4.75015H0.808061C0.568636 4.75015 0.374102 4.85121 0.224461 5.05334C0.0748205 5.25546 0 5.47443 0 5.71025C0 5.94606 0.0748205 6.16503 0.224461 6.36715C0.374102 6.56928 0.568636 6.67034 0.808061 6.67034H1.70591L1.1672 7.37778C0.389067 8.59053 0 9.93804 0 11.4203V16.1702C0 16.9114 0.239426 17.5683 0.718277 18.141C1.19713 18.7137 1.79569 19 2.51397 19H4.21988C4.8783 19 5.4619 18.7137 5.97068 18.141C6.47945 17.5683 6.73384 16.9114 6.73384 16.1702H16.7897C16.7897 16.9114 17.0441 17.5683 17.5529 18.141C18.0617 18.7137 18.6453 19 19.3037 19H21.0096C21.7279 19 22.3264 18.7137 22.8053 18.141C23.2841 17.5683 23.5236 16.9114 23.5236 16.1702V11.4203C23.5236 9.93804 23.1345 8.59053 22.3564 7.37778L21.9074 6.67034ZM5.56664 3.33527C5.80607 2.86365 6.12032 2.50993 6.50938 2.27411C6.89845 2.0383 7.33241 1.92039 7.81126 1.92039H15.7123C16.1912 1.92039 16.6251 2.0383 17.0142 2.27411C17.4032 2.50993 17.7175 2.86365 17.9569 3.33527L19.0343 5.45759L18.4956 5.86184C17.7773 6.40084 16.9992 6.67034 16.1612 6.67034H7.36234C6.52435 6.67034 5.74621 6.40084 5.02794 5.86184L4.48923 5.45759L5.56664 3.33527ZM21.9074 16.1702C21.9074 16.3724 21.8177 16.5745 21.6381 16.7766C21.4585 16.9787 21.249 17.0798 21.0096 17.0798H19.3037C19.1241 17.0798 18.9445 16.9787 18.765 16.7766C18.5854 16.5745 18.4956 16.3724 18.4956 16.1702V15.1596C18.4956 14.8901 18.4208 14.6711 18.2712 14.5027C18.1215 14.3343 17.927 14.25 17.6876 14.25H5.836C5.59657 14.25 5.40204 14.3343 5.2524 14.5027C5.10276 14.6711 5.02794 14.8901 5.02794 15.1596V16.1702C5.02794 16.3724 4.93815 16.5745 4.75858 16.7766C4.57901 16.9787 4.39944 17.0798 4.21988 17.0798H2.51397C2.27454 17.0798 2.06505 16.9787 1.88548 16.7766C1.70591 16.5745 1.61612 16.3724 1.61612 16.1702V11.4203C1.67598 10.3423 1.97526 9.39904 2.51397 8.59053L3.5016 6.97353L4.13009 7.47884C5.14765 8.21997 6.22506 8.59053 7.36234 8.59053H16.1612C17.2985 8.59053 18.3759 8.21997 19.3935 7.47884L20.022 6.97353L21.0096 8.59053C21.5483 9.39904 21.8177 10.3423 21.8177 11.4203V16.1702H21.9074ZM18.4956 11.4203C18.4956 11.6898 18.5704 11.9088 18.7201 12.0772C18.8697 12.2456 19.0643 12.3299 19.3037 12.3299C19.5431 12.3299 19.7526 12.2456 19.9322 12.0772C20.1117 11.9088 20.2015 11.6898 20.2015 11.4203C20.2015 11.1508 20.1117 10.915 19.9322 10.7129C19.7526 10.5107 19.5431 10.4097 19.3037 10.4097C19.0643 10.4097 18.8697 10.5107 18.7201 10.7129C18.5704 10.915 18.4956 11.1508 18.4956 11.4203ZM3.32203 11.4203C3.32203 11.6898 3.41181 11.9088 3.59138 12.0772C3.77095 12.2456 3.98045 12.3299 4.21988 12.3299C4.4593 12.3299 4.65383 12.2456 4.80348 12.0772C4.95312 11.9088 5.02794 11.6898 5.02794 11.4203C5.02794 11.1508 4.95312 10.915 4.80348 10.7129C4.65383 10.5107 4.4593 10.4097 4.21988 10.4097C3.98045 10.4097 3.77095 10.5107 3.59138 10.7129C3.41181 10.915 3.32203 11.1508 3.32203 11.4203Z" fill="white"/>
</svg>
