<svg width="23" height="10" viewBox="0 0 23 10" fill="none" xmlns="http://www.w3.org/2000/svg">
<path fill-rule="evenodd" clip-rule="evenodd" d="M17.7883 8.33383L15.8364 9.40621C15.5727 9.55106 15.2466 9.44513 15.108 9.1696C15.0528 9.05989 15.0338 8.93422 15.0538 8.81205L15.4266 6.54072C15.4566 6.35789 15.3986 6.17133 15.2715 6.04184L13.6923 4.43328C13.479 4.216 13.4747 3.85917 13.6826 3.63626C13.7654 3.5475 13.8739 3.48974 13.9913 3.47191L16.1736 3.14053C16.3492 3.11385 16.5011 2.99855 16.5797 2.8322L17.5556 0.765683C17.6875 0.486546 18.0109 0.371939 18.278 0.509702C18.3843 0.564559 18.4704 0.654529 18.5229 0.765683L19.4989 2.8322C19.5775 2.99855 19.7293 3.11385 19.905 3.14053L22.0873 3.47191C22.3821 3.51667 22.5863 3.80268 22.5435 4.11073C22.5264 4.23339 22.4712 4.34676 22.3862 4.43328L20.8071 6.04184C20.68 6.17133 20.622 6.35789 20.652 6.54072L21.0247 8.81205C21.0751 9.11885 20.8779 9.41022 20.5843 9.46284C20.4674 9.48379 20.3472 9.46389 20.2422 9.40621L18.2903 8.33383C18.1331 8.24751 17.9454 8.24751 17.7883 8.33383Z" fill="#CE0000" stroke="white" stroke-width="0.899614"/>
</svg>
