<svg width="13" height="13" viewBox="0 0 13 13" fill="none" xmlns="http://www.w3.org/2000/svg">
<path d="M12.9266 6.07327L11.9266 5.0733C11.9034 5.05002 11.8758 5.03155 11.8454 5.01895C11.815 5.00634 11.7825 4.99986 11.7496 4.99986C11.7167 4.99986 11.6841 5.00634 11.6538 5.01895C11.6234 5.03155 11.5958 5.05002 11.5726 5.0733L11.2496 5.39679L7.60321 1.7504L7.9267 1.42741C7.94998 1.40418 7.96845 1.3766 7.98105 1.34623C7.99366 1.31585 8.00014 1.28329 8.00014 1.25041C8.00014 1.21753 7.99366 1.18497 7.98105 1.1546C7.96845 1.12423 7.94998 1.09664 7.9267 1.07342L6.92673 0.0734448C6.90351 0.0501638 6.87592 0.031693 6.84555 0.0190901C6.81517 0.00648724 6.78261 0 6.74973 0C6.71685 0 6.68429 0.00648724 6.65392 0.0190901C6.62355 0.031693 6.59596 0.0501638 6.57274 0.0734448L3.57282 3.07336C3.54954 3.09658 3.53107 3.12417 3.51847 3.15454C3.50587 3.18491 3.49938 3.21747 3.49938 3.25035C3.49938 3.28324 3.50587 3.3158 3.51847 3.34617C3.53107 3.37654 3.54954 3.40413 3.57282 3.42735L4.57279 4.42732C4.59602 4.4506 4.6236 4.46907 4.65398 4.48167C4.68435 4.49428 4.71691 4.50076 4.74979 4.50076C4.78267 4.50076 4.81523 4.49428 4.8456 4.48167C4.87598 4.46907 4.90356 4.4506 4.92678 4.42732L5.24977 4.10383L6.39624 5.2503L4.74979 6.89675L4.4268 6.57326C4.37887 6.52823 4.31557 6.50316 4.2498 6.50316C4.18404 6.50316 4.12074 6.52823 4.07281 6.57326L0.487412 10.1592C0.175327 10.4712 -3.28835e-09 10.8945 0 11.3359C3.28834e-09 11.7772 0.175327 12.2005 0.487412 12.5126C0.799496 12.8247 1.22277 13 1.66413 13C2.10548 13 2.52876 12.8247 2.84084 12.5126L6.42674 8.92719C6.45002 8.90397 6.46849 8.87638 6.4811 8.84601C6.4937 8.81564 6.50019 8.78308 6.50019 8.7502C6.50019 8.71731 6.4937 8.68475 6.4811 8.65438C6.46849 8.62401 6.45002 8.59642 6.42674 8.5732L6.10325 8.25021L7.7497 6.60376L8.89617 7.75022L8.57268 8.07322C8.5494 8.09644 8.53093 8.12403 8.51832 8.1544C8.50572 8.18477 8.49923 8.21733 8.49923 8.25021C8.49923 8.28309 8.50572 8.31565 8.51832 8.34602C8.53093 8.3764 8.5494 8.40398 8.57268 8.42721L9.57265 9.42718C9.59587 9.45046 9.62346 9.46893 9.65383 9.48153C9.6842 9.49413 9.71676 9.50062 9.74965 9.50062C9.78253 9.50062 9.81509 9.49413 9.84546 9.48153C9.87583 9.46893 9.90342 9.45046 9.92664 9.42718L12.9266 6.42726C12.9498 6.40404 12.9683 6.37645 12.9809 6.34608C12.9935 6.31571 13 6.28315 13 6.25027C13 6.21738 12.9935 6.18483 12.9809 6.15445C12.9683 6.12408 12.9498 6.09649 12.9266 6.07327ZM4.74979 3.89684L4.10331 3.25035L6.74973 0.60393L7.39621 1.25041L4.74979 3.89684ZM5.74976 7.89672L5.10328 7.25024L6.74973 5.60379L7.39621 6.25027L5.74976 7.89672ZM9.74965 8.89669L9.10316 8.25021L11.7496 5.60379L12.3961 6.25027L9.74965 8.89669Z" fill="#FA5D1A"/>
</svg>
