<svg width="21" height="21" viewBox="0 0 21 21" fill="none" xmlns="http://www.w3.org/2000/svg">
<g clip-path="url(#clip0_0_3552)">
<path d="M15.5128 3.84023L11.7944 3.50219L11.7833 3.50118C11.2287 3.45076 10.9496 3.42539 10.6846 3.47147C10.4482 3.51257 10.2208 3.59452 10.0129 3.71427C9.77964 3.84865 9.58111 4.04718 9.18662 4.44167L9.17974 4.44855L3.89109 9.7372L3.88629 9.742C3.07814 10.5502 2.67377 10.9545 2.52207 11.4214C2.38837 11.8329 2.38837 12.2762 2.52207 12.6877C2.67407 13.1555 3.07979 13.562 3.89114 14.3733L7.94752 18.4297C8.75887 19.2411 9.16449 19.6459 9.63228 19.7979C10.0438 19.9316 10.487 19.9316 10.8985 19.7979C11.3663 19.6459 11.7719 19.2409 12.5833 18.4295L17.8719 13.1409C18.271 12.7418 18.4705 12.5422 18.6057 12.3075C18.7255 12.0996 18.8078 11.8721 18.8489 11.6357C18.8953 11.3689 18.8698 11.0878 18.8187 10.5258L18.4806 6.80745L18.4805 6.80654C18.3926 5.83934 18.3486 5.35533 18.1381 4.97676C17.9524 4.64288 17.6771 4.36754 17.3432 4.18188C16.9665 3.97237 16.4855 3.92865 15.5276 3.84157L15.5128 3.84023Z" stroke="white" stroke-width="2" stroke-linecap="round" stroke-linejoin="round"/>
<circle cx="5.63415" cy="4.60976" r="3.58537" fill="#FD0200"/>
</g>
<defs>
<clipPath id="clip0_0_3552">
<rect width="20.5" height="20.5" fill="white" transform="scale(1.02439)"/>
</clipPath>
</defs>
</svg>
