<svg width="21" height="21" viewBox="0 0 21 21" fill="none" xmlns="http://www.w3.org/2000/svg">
<g clip-path="url(#clip0_0_3474)">
<path d="M0.00046209 4.99811C0.106492 4.90594 0.214702 4.8161 0.324363 4.7278L0.32872 4.73322L6.75805 11.9495C6.86844 11.9317 6.98173 11.9216 7.09793 11.9216C8.35504 11.9216 9.37757 13.0121 9.37757 14.3528C9.37757 14.8702 9.22724 14.3392 8.94329 14.7567C8.51554 15.3848 7.82561 15.7597 7.09866 15.7597V15.3724C7.71014 15.3724 8.28968 15.0572 8.64989 14.529C8.88882 14.1781 9.01518 14.7881 9.01518 14.3528C9.01518 13.2259 8.15532 12.3089 7.09866 12.3089C6.48063 12.3089 5.87859 12.6404 5.5191 13.1787L5.30849 12.8495L0.00481922 5.00198L0.00191577 4.99811H0.00046209Z" fill="white"/>
<path d="M19.292 19.424C19.8095 17.9941 20.0937 16.4402 20.0937 14.8147C20.0937 7.76491 14.7532 2.04878 8.16571 2.04878C5.62717 2.04878 3.27367 2.89765 1.33943 4.34394L4.15595 7.79696C5.78304 6.49858 7.80098 5.72942 9.98631 5.72942C15.3767 5.72942 19.7473 10.406 19.7473 16.1756C19.7473 17.3244 19.5738 18.4296 19.2544 19.4634L19.2928 19.4231L19.292 19.424Z" fill="white"/>
<circle cx="7.68293" cy="13.8293" r="2.56098" fill="#FD0200"/>
</g>
<defs>
<clipPath id="clip0_0_3474">
<rect width="20.5" height="20.5" fill="white" transform="scale(1.02439)"/>
</clipPath>
</defs>
</svg>
