<svg width="27" height="28" viewBox="0 0 27 28" fill="none" xmlns="http://www.w3.org/2000/svg">
<path d="M20.9527 1.52318L15.257 0.986875L15.24 0.985271C14.3904 0.905269 13.963 0.865023 13.557 0.938134C13.1949 1.00334 12.8466 1.13336 12.5281 1.32335C12.1708 1.53655 11.8666 1.85153 11.2624 2.4774L11.2518 2.48832L3.15072 10.879L3.14336 10.8866C1.90544 12.1688 1.28603 12.8104 1.05367 13.5511C0.848869 14.2039 0.848869 14.9073 1.05367 15.5601C1.28649 16.3023 1.90797 16.9472 3.15079 18.2345L9.36432 24.6701C10.6071 25.9574 11.2285 26.5997 11.945 26.8408C12.5753 27.053 13.2543 27.053 13.8846 26.8408C14.6011 26.5997 15.2225 25.9571 16.4653 24.6698L24.5665 16.2791C25.1777 15.646 25.4834 15.3293 25.6905 14.957C25.8739 14.6272 26 14.2662 26.063 13.8911C26.134 13.4679 26.0949 13.0219 26.0167 12.1302L25.4989 6.23084L25.4987 6.22939C25.3641 4.69488 25.2967 3.92696 24.9742 3.32634C24.6898 2.79663 24.268 2.35979 23.7566 2.06523C23.1795 1.73284 22.4428 1.66347 20.9754 1.52532L20.9527 1.52318Z" stroke="white" stroke-width="1.79923" stroke-linecap="round" stroke-linejoin="round"/>
</svg>
