<svg width="23" height="23" viewBox="0 0 23 23" fill="none" xmlns="http://www.w3.org/2000/svg">
<path d="M22.8701 10.745L21.1009 8.97584C21.0598 8.93465 21.011 8.90197 20.9573 8.87968C20.9035 8.85738 20.8459 8.8459 20.7877 8.8459C20.7296 8.8459 20.672 8.85738 20.6182 8.87968C20.5645 8.90197 20.5157 8.93465 20.4746 8.97584L19.9031 9.54817L13.4518 3.09686L14.0242 2.52541C14.0653 2.48433 14.098 2.43552 14.1203 2.38178C14.1426 2.32805 14.1541 2.27044 14.1541 2.21227C14.1541 2.15409 14.1426 2.09648 14.1203 2.04275C14.098 1.98901 14.0653 1.94021 14.0242 1.89912L12.255 0.129941C12.2139 0.0887514 12.1651 0.0560722 12.1114 0.0337748C12.0576 0.0114774 12 0 11.9418 0C11.8837 0 11.8261 0.0114774 11.7723 0.0337748C11.7186 0.0560722 11.6698 0.0887514 11.6287 0.129941L6.32115 5.43748C6.27996 5.47857 6.24728 5.52737 6.22498 5.58111C6.20269 5.63484 6.19121 5.69245 6.19121 5.75063C6.19121 5.8088 6.20269 5.86641 6.22498 5.92014C6.24728 5.97388 6.27996 6.02269 6.32115 6.06377L8.09033 7.83295C8.13141 7.87414 8.18022 7.90682 8.23396 7.92912C8.28769 7.95141 8.3453 7.96289 8.40347 7.96289C8.46165 7.96289 8.51926 7.95141 8.57299 7.92912C8.62673 7.90682 8.67553 7.87414 8.71662 7.83295L9.28806 7.26062L11.3164 9.28899L8.40347 12.2019L7.83203 11.6296C7.74723 11.5499 7.63524 11.5056 7.51888 11.5056C7.40252 11.5056 7.29054 11.5499 7.20574 11.6296L0.862344 17.9739C0.310194 18.526 -5.81784e-09 19.2749 0 20.0558C5.81784e-09 20.8366 0.310194 21.5855 0.862344 22.1377C1.41449 22.6898 2.16337 23 2.94423 23C3.72508 23 4.47396 22.6898 5.02611 22.1377L11.3704 15.7943C11.4116 15.7532 11.4443 15.7044 11.4666 15.6506C11.4889 15.5969 11.5003 15.5393 11.5003 15.4811C11.5003 15.4229 11.4889 15.3653 11.4666 15.3116C11.4443 15.2579 11.4116 15.2091 11.3704 15.168L10.7981 14.5965L13.711 11.6836L15.7394 13.7119L15.167 14.2834C15.1259 14.3245 15.0932 14.3733 15.0709 14.427C15.0486 14.4807 15.0371 14.5383 15.0371 14.5965C15.0371 14.6547 15.0486 14.7123 15.0709 14.766C15.0932 14.8198 15.1259 14.8686 15.167 14.9097L16.9362 16.6789C16.9773 16.72 17.0261 16.7527 17.0799 16.775C17.1336 16.7973 17.1912 16.8088 17.2494 16.8088C17.3076 16.8088 17.3652 16.7973 17.4189 16.775C17.4726 16.7527 17.5214 16.72 17.5625 16.6789L22.8701 11.3713C22.9112 11.3302 22.9439 11.2814 22.9662 11.2277C22.9885 11.1739 23 11.1163 23 11.0582C23 11 22.9885 10.9424 22.9662 10.8886C22.9439 10.8349 22.9112 10.7861 22.8701 10.745ZM8.40347 6.8944L7.2597 5.75063L11.9418 1.06849L13.0856 2.21227L8.40347 6.8944ZM4.4007 21.5123C4.01176 21.8854 3.49204 22.0913 2.95304 22.0858C2.41404 22.0802 1.89869 21.8636 1.51754 21.4825C1.13639 21.1013 0.919802 20.586 0.914232 20.047C0.908662 19.508 1.11456 18.9882 1.48775 18.5993L7.51888 12.5682L10.4318 15.4811L4.4007 21.5123ZM10.1727 13.9711L9.02888 12.8273L11.9418 9.91439L13.0856 11.0582L10.1727 13.9711ZM9.91347 6.63522L12.8264 3.72226L19.2777 10.1736L16.3648 13.0865L9.91347 6.63522ZM17.2494 15.7403L16.1056 14.5965L20.7877 9.91439L21.9315 11.0582L17.2494 15.7403Z" fill="#FA5D1A"/>
</svg>
