<svg width="33" height="33" viewBox="0 0 33 33" fill="none" xmlns="http://www.w3.org/2000/svg">
<rect width="33" height="33" rx="10" fill="#F2F2F2"/>
<path d="M21 14H23C25 14 26 13 26 11V9C26 7 25 6 23 6H21C19 6 18 7 18 9V11C18 13 19 14 21 14Z" stroke="#808080" stroke-width="1.3" stroke-miterlimit="10" stroke-linecap="round" stroke-linejoin="round"/>
<path d="M21 26H23C25 26 26 25 26 23V21C26 19 25 18 23 18H21C19 18 18 19 18 21V23C18 25 19 26 21 26Z" stroke="#808080" stroke-width="1.3" stroke-miterlimit="10" stroke-linecap="round" stroke-linejoin="round"/>
<path d="M9 14H11C13 14 14 13 14 11V9C14 7 13 6 11 6H9C7 6 6 7 6 9V11C6 13 7 14 9 14Z" stroke="#808080" stroke-width="1.3" stroke-miterlimit="10" stroke-linecap="round" stroke-linejoin="round"/>
<path d="M9 26H11C13 26 14 25 14 23V21C14 19 13 18 11 18H9C7 18 6 19 6 21V23C6 25 7 26 9 26Z" stroke="#808080" stroke-width="1.3" stroke-miterlimit="10" stroke-linecap="round" stroke-linejoin="round"/>
</svg>
