<svg width="24" height="24" viewBox="0 0 24 24" fill="none" xmlns="http://www.w3.org/2000/svg">
<g clip-path="url(#clip0_0_2074)">
<path d="M0.666016 6.20336L9.68959 1.14933C10.2584 0.831062 10.8978 0.663086 11.5462 0.663086C12.1916 0.663086 12.8281 0.828115 13.3939 1.14049L19.6532 4.6179L21.6984 9.38902C21.8959 9.85169 21.7927 10.388 21.4362 10.7446C20.9116 11.2692 20.0422 11.2132 19.5884 10.6238L16.4882 6.59531L13.721 5.80552" stroke="black" stroke-linecap="round" stroke-linejoin="round"/>
<path d="M0.666016 12.5305C2.44892 13.5501 4.54421 13.8802 6.55403 13.4558L10.9479 12.5305L17.8468 13.1582C18.8134 13.2466 19.6503 12.4833 19.6503 11.5138C19.6503 10.727 19.0933 10.0492 18.3212 9.89297L13.9332 9.01478C12.5039 8.72892 11.1896 8.0246 10.1582 6.99316" stroke="black" stroke-linecap="round" stroke-linejoin="round"/>
<path d="M19.6503 10.9478C20.7406 10.9478 21.6277 11.8348 21.6277 12.9252C21.6277 14.0155 20.7406 14.9026 19.6503 14.9026" stroke="black" stroke-linecap="round" stroke-linejoin="round"/>
<path d="M19.6503 14.1128C18.3389 14.1128 17.278 15.1766 17.278 16.4851C17.278 17.5165 17.9411 18.3859 18.8605 18.713V22.4173L19.6503 23.6049L20.4401 22.4173V21.6275L20.0452 21.2326L20.4401 20.8377V20.048L20.0452 19.6531L20.4401 19.2582V18.7159C21.3595 18.3888 22.0226 17.5195 22.0226 16.488C22.0226 15.1766 20.9588 14.1157 19.6503 14.1157V14.1128Z" stroke="black" stroke-linecap="round" stroke-linejoin="round"/>
</g>
<defs>
<clipPath id="clip0_0_2074">
<rect width="24" height="24" fill="white"/>
</clipPath>
</defs>
</svg>
