<svg width="22" height="22" viewBox="0 0 22 22" fill="none" xmlns="http://www.w3.org/2000/svg">
<path d="M10.0464 1.75984C8.53088 1.75984 7.14977 2.1265 5.9031 2.85984C4.65643 3.59317 3.65421 4.59539 2.89643 5.8665C2.13865 7.13761 1.75977 8.51873 1.75977 10.0098C1.75977 11.5009 2.13865 12.8821 2.89643 14.1532C3.65421 15.4243 4.65643 16.4265 5.9031 17.1598C7.14977 17.8932 8.53088 18.2598 10.0464 18.2598C10.9753 18.2598 11.8798 18.1009 12.7598 17.7832C13.6398 17.4654 14.4464 17.0376 15.1798 16.4998L18.6264 19.8732C18.7731 20.0687 18.9809 20.1665 19.2498 20.1665C19.5187 20.1665 19.7387 20.0809 19.9098 19.9098C20.0809 19.7387 20.1664 19.5187 20.1664 19.2498C20.1664 18.9809 20.0687 18.7732 19.8731 18.6265L16.4998 15.1798C17.0375 14.4465 17.4653 13.6398 17.7831 12.7598C18.1009 11.8798 18.2598 10.9754 18.2598 10.0465C18.2598 8.53095 17.8931 7.13761 17.1598 5.8665C16.4264 4.59539 15.4242 3.59317 14.1531 2.85984C12.882 2.1265 11.5131 1.75984 10.0464 1.75984ZM10.0464 3.59317C11.2198 3.59317 12.2953 3.8865 13.2731 4.47317C14.2509 5.05984 15.0209 5.84206 15.5831 6.81984C16.1453 7.79761 16.4264 8.86095 16.4264 10.0098C16.4264 11.1587 16.1453 12.2343 15.5831 13.2365C15.0209 14.2387 14.2509 15.0209 13.2731 15.5832C12.2953 16.1454 11.2198 16.4265 10.0464 16.4265C8.8731 16.4265 7.79754 16.1454 6.81977 15.5832C5.84199 15.0209 5.05977 14.2387 4.4731 13.2365C3.88643 12.2343 3.5931 11.1587 3.5931 10.0098C3.5931 8.86095 3.88643 7.79761 4.4731 6.81984C5.05977 5.84206 5.84199 5.05984 6.81977 4.47317C7.79754 3.8865 8.8731 3.59317 10.0464 3.59317Z" fill="#CE0000"/>
</svg>
