<svg width="19" height="16" viewBox="0 0 19 16" fill="none" xmlns="http://www.w3.org/2000/svg">
<path d="M14.5848 7.77927H15.1228C15.2822 7.77927 15.4117 7.71198 15.5113 7.57742C15.6109 7.44286 15.6607 7.29708 15.6607 7.14009C15.6607 6.98309 15.6109 6.83732 15.5113 6.70275C15.4117 6.56819 15.2822 6.50091 15.1228 6.50091H13.748L12.9111 4.88613C12.6322 4.39273 12.2835 4.01146 11.8651 3.74234C11.4467 3.47321 10.9784 3.33864 10.4604 3.33864H5.20032C4.68228 3.33864 4.21405 3.47321 3.79563 3.74234C3.37722 4.01146 3.02854 4.39273 2.74959 4.88613L1.91276 6.50091H0.537964C0.378567 6.50091 0.249057 6.56819 0.149434 6.70275C0.0498115 6.83732 0 6.98309 0 7.14009C0 7.29708 0.0498115 7.44286 0.149434 7.57742C0.249057 7.71198 0.378567 7.77927 0.537964 7.77927H1.1357L0.777059 8.25024C0.25902 9.05763 0 9.95472 0 10.9415V14.1038C0 14.5972 0.159397 15.0345 0.47819 15.4158C0.796984 15.7971 1.19548 15.9877 1.67367 15.9877H2.80937C3.24771 15.9877 3.63624 15.7971 3.97496 15.4158C4.31367 15.0345 4.48303 14.5972 4.48303 14.1038H11.1777C11.1777 14.5972 11.3471 15.0345 11.6858 15.4158C12.0245 15.7971 12.413 15.9877 12.8514 15.9877H13.9871C14.4653 15.9877 14.8637 15.7971 15.1825 15.4158C15.5013 15.0345 15.6607 14.5972 15.6607 14.1038V10.9415C15.6607 9.95472 15.4017 9.05763 14.8837 8.25024L14.5848 7.77927ZM3.70597 5.55895C3.86537 5.24497 4.07458 5.00948 4.3336 4.85249C4.59262 4.6955 4.88152 4.617 5.20032 4.617H10.4604C10.7792 4.617 11.0681 4.6955 11.3271 4.85249C11.5861 5.00948 11.7954 5.24497 11.9548 5.55895L12.672 6.97188L12.3134 7.24101C11.8352 7.59985 11.3172 7.77927 10.7593 7.77927H4.90145C4.34356 7.77927 3.82552 7.59985 3.34733 7.24101L2.98869 6.97188L3.70597 5.55895ZM14.5848 14.1038C14.5848 14.2384 14.525 14.3729 14.4055 14.5075C14.2859 14.642 14.1465 14.7093 13.9871 14.7093H12.8514C12.7318 14.7093 12.6123 14.642 12.4927 14.5075C12.3732 14.3729 12.3134 14.2384 12.3134 14.1038V13.431C12.3134 13.2516 12.2636 13.1058 12.164 12.9936C12.0643 12.8815 11.9348 12.8254 11.7754 12.8254H3.88529C3.7259 12.8254 3.59639 12.8815 3.49677 12.9936C3.39714 13.1058 3.34733 13.2516 3.34733 13.431V14.1038C3.34733 14.2384 3.28756 14.3729 3.16801 14.5075C3.04846 14.642 2.92891 14.7093 2.80937 14.7093H1.67367C1.51427 14.7093 1.3748 14.642 1.25525 14.5075C1.1357 14.3729 1.07593 14.2384 1.07593 14.1038V10.9415C1.11578 10.2239 1.31502 9.59589 1.67367 9.05763L2.33118 7.98111L2.74959 8.31752C3.42703 8.81093 4.14431 9.05763 4.90145 9.05763H10.7593C11.5164 9.05763 12.2337 8.81093 12.9111 8.31752L13.3295 7.98111L13.9871 9.05763C14.3457 9.59589 14.525 10.2239 14.525 10.9415V14.1038H14.5848ZM12.3134 10.9415C12.3134 11.1209 12.3632 11.2667 12.4628 11.3789C12.5625 11.491 12.692 11.5471 12.8514 11.5471C13.0108 11.5471 13.1502 11.491 13.2698 11.3789C13.3893 11.2667 13.4491 11.1209 13.4491 10.9415C13.4491 10.7621 13.3893 10.6051 13.2698 10.4706C13.1502 10.336 13.0108 10.2687 12.8514 10.2687C12.692 10.2687 12.5625 10.336 12.4628 10.4706C12.3632 10.6051 12.3134 10.7621 12.3134 10.9415ZM2.21163 10.9415C2.21163 11.1209 2.2714 11.2667 2.39095 11.3789C2.5105 11.491 2.64997 11.5471 2.80937 11.5471C2.96876 11.5471 3.09827 11.491 3.1979 11.3789C3.29752 11.2667 3.34733 11.1209 3.34733 10.9415C3.34733 10.7621 3.29752 10.6051 3.1979 10.4706C3.09827 10.336 2.96876 10.2687 2.80937 10.2687C2.64997 10.2687 2.5105 10.336 2.39095 10.4706C2.2714 10.6051 2.21163 10.7621 2.21163 10.9415Z" fill="#FAA71A"/>
<mask id="mask0_0_2120" style="mask-type:alpha" maskUnits="userSpaceOnUse" x="3" y="0" width="16" height="13">
<path d="M17.9239 4.44071H18.4618C18.6212 4.44071 18.7507 4.37343 18.8504 4.23887C18.95 4.1043 18.9998 3.95852 18.9998 3.80153C18.9998 3.64454 18.95 3.49876 18.8504 3.3642C18.7507 3.22963 18.6212 3.16235 18.4618 3.16235H17.087L16.2502 1.54758C15.9713 1.05417 15.6226 0.672909 15.2042 0.403781C14.7857 0.134651 14.3175 8.77526e-05 13.7995 8.77526e-05H8.53938C8.02134 8.77526e-05 7.55312 0.134651 7.1347 0.403781C6.71628 0.672909 6.3676 1.05417 6.08866 1.54758L5.25183 3.16235H3.87703C3.71763 3.16235 3.58812 3.22963 3.4885 3.3642C3.38888 3.49876 3.33907 3.64454 3.33907 3.80153C3.33907 3.95852 3.38888 4.1043 3.4885 4.23887C3.58812 4.37343 3.71763 4.44071 3.87703 4.44071H4.47477L4.11612 4.91169C3.59809 5.71907 3.33907 6.61617 3.33907 7.60297V10.7652C3.33907 11.2586 3.49846 11.696 3.81726 12.0772C4.13605 12.4585 4.53454 12.6491 5.01273 12.6491H6.14843C6.58677 12.6491 6.9753 12.4585 7.31402 12.0772C7.65274 11.696 7.8221 11.2586 7.8221 10.7652H14.5168C14.5168 11.2586 14.6861 11.696 15.0248 12.0772C15.3636 12.4585 15.7521 12.6491 16.1904 12.6491H17.3261C17.8043 12.6491 18.2028 12.4585 18.5216 12.0772C18.8404 11.696 18.9998 11.2586 18.9998 10.7652V7.60297C18.9998 6.61617 18.7408 5.71907 18.2227 4.91169L17.9239 4.44071ZM7.04504 2.2204C7.20444 1.90642 7.41364 1.67093 7.67266 1.51394C7.93168 1.35694 8.22059 1.27845 8.53938 1.27845H13.7995C14.1183 1.27845 14.4072 1.35694 14.6662 1.51394C14.9252 1.67093 15.1344 1.90642 15.2938 2.2204L16.0111 3.63333L15.6525 3.90245C15.1743 4.26129 14.6562 4.44071 14.0983 4.44071H8.24051C7.68263 4.44071 7.16459 4.26129 6.6864 3.90245L6.32775 3.63333L7.04504 2.2204ZM17.9239 10.7652C17.9239 10.8998 17.8641 11.0344 17.7445 11.1689C17.625 11.3035 17.4855 11.3708 17.3261 11.3708H16.1904C16.0709 11.3708 15.9513 11.3035 15.8318 11.1689C15.7122 11.0344 15.6525 10.8998 15.6525 10.7652V10.0924C15.6525 9.913 15.6027 9.76722 15.503 9.65508C15.4034 9.54294 15.2739 9.48688 15.1145 9.48688H7.22436C7.06496 9.48688 6.93545 9.54294 6.83583 9.65508C6.73621 9.76722 6.6864 9.913 6.6864 10.0924V10.7652C6.6864 10.8998 6.62662 11.0344 6.50708 11.1689C6.38753 11.3035 6.26798 11.3708 6.14843 11.3708H5.01273C4.85333 11.3708 4.71386 11.3035 4.59432 11.1689C4.47477 11.0344 4.41499 10.8998 4.41499 10.7652V7.60297C4.45484 6.8853 4.65409 6.25733 5.01273 5.71907L5.67024 4.64256L6.08866 4.97897C6.7661 5.47237 7.48338 5.71907 8.24051 5.71907H14.0983C14.8555 5.71907 15.5728 5.47237 16.2502 4.97897L16.6686 4.64256L17.3261 5.71907C17.6848 6.25733 17.8641 6.8853 17.8641 7.60297V10.7652H17.9239ZM15.6525 7.60297C15.6525 7.78239 15.7023 7.92817 15.8019 8.04031C15.9015 8.15244 16.031 8.20851 16.1904 8.20851C16.3498 8.20851 16.4893 8.15244 16.6088 8.04031C16.7284 7.92817 16.7882 7.78239 16.7882 7.60297C16.7882 7.42355 16.7284 7.26656 16.6088 7.132C16.4893 6.99743 16.3498 6.93015 16.1904 6.93015C16.031 6.93015 15.9015 6.99743 15.8019 7.132C15.7023 7.26656 15.6525 7.42355 15.6525 7.60297ZM5.5507 7.60297C5.5507 7.78239 5.61047 7.92817 5.73002 8.04031C5.84956 8.15244 5.98904 8.20851 6.14843 8.20851C6.30783 8.20851 6.43734 8.15244 6.53696 8.04031C6.63659 7.92817 6.6864 7.78239 6.6864 7.60297C6.6864 7.42355 6.63659 7.26656 6.53696 7.132C6.43734 6.99743 6.30783 6.93015 6.14843 6.93015C5.98904 6.93015 5.84956 6.99743 5.73002 7.132C5.61047 7.26656 5.5507 7.42355 5.5507 7.60297Z" fill="#FAA71A"/>
</mask>
<g mask="url(#mask0_0_2120)">
<path d="M11.3498 3.00549H4.67367L7.01032 -1.00019C9.45823 -1.00019 14.5543 -0.933427 15.3555 -0.666381C16.1566 -0.399336 17.0245 1.44773 17.3583 2.33788H18.6936C19.1386 2.44915 20.0288 2.87197 20.0288 3.67311C20.0288 4.47424 19.5837 4.89706 19.3612 5.00833C19.5837 7.01117 19.8953 11.2839 19.3612 12.3521C18.8271 13.4203 16.9132 13.4648 16.0231 13.3535V9.68163C16.0231 9.14754 15.578 8.12386 15.3555 7.67879V7.34498C15.4668 7.12244 15.7561 6.61061 16.0231 6.34356C16.2901 6.07651 15.9118 5.78722 15.6893 5.67595H13.6865C13.3526 5.00833 12.8853 3.87339 12.3512 3.3393C11.8171 2.80521 11.3498 3.67311 11.3498 3.00549Z" fill="#FAA71A"/>
</g>
</svg>
