<svg width="22" height="22" viewBox="0 0 22 22" fill="none" xmlns="http://www.w3.org/2000/svg">
<path d="M19.2869 8.94664H19.9469C20.1424 8.94664 20.3013 8.87331 20.4236 8.72664C20.5458 8.57998 20.6069 8.42109 20.6069 8.24998C20.6069 8.07887 20.5458 7.91998 20.4236 7.77331C20.3013 7.62664 20.1424 7.55331 19.9469 7.55331H18.2602L17.2336 5.79331C16.8913 5.25553 16.4636 4.83998 15.9502 4.54664C15.4369 4.25331 14.8624 4.10664 14.2269 4.10664H7.77355C7.138 4.10664 6.56355 4.25331 6.05022 4.54664C5.53689 4.83998 5.10911 5.25553 4.76689 5.79331L3.74022 7.55331H2.05355C1.858 7.55331 1.69911 7.62664 1.57689 7.77331C1.45467 7.91998 1.39355 8.07887 1.39355 8.24998C1.39355 8.42109 1.45467 8.57998 1.57689 8.72664C1.69911 8.87331 1.858 8.94664 2.05355 8.94664H2.78689L2.34689 9.45998C1.71133 10.34 1.39355 11.3178 1.39355 12.3933V15.84C1.39355 16.3778 1.58911 16.8544 1.98022 17.27C2.37133 17.6855 2.86022 17.8933 3.44689 17.8933H4.84022C5.378 17.8933 5.85467 17.6855 6.27022 17.27C6.68578 16.8544 6.89355 16.3778 6.89355 15.84H15.1069C15.1069 16.3778 15.3147 16.8544 15.7302 17.27C16.1458 17.6855 16.6224 17.8933 17.1602 17.8933H18.5536C19.1402 17.8933 19.6291 17.6855 20.0202 17.27C20.4113 16.8544 20.6069 16.3778 20.6069 15.84V12.3933C20.6069 11.3178 20.2891 10.34 19.6536 9.45998L19.2869 8.94664ZM5.94022 6.52664C6.13578 6.18442 6.39244 5.92776 6.71022 5.75664C7.028 5.58553 7.38244 5.49998 7.77355 5.49998H14.2269C14.618 5.49998 14.9724 5.58553 15.2902 5.75664C15.608 5.92776 15.8647 6.18442 16.0602 6.52664L16.9402 8.06664L16.5002 8.35998C15.9136 8.75109 15.278 8.94664 14.5936 8.94664H7.40689C6.72244 8.94664 6.08689 8.75109 5.50022 8.35998L5.06022 8.06664L5.94022 6.52664ZM19.2869 15.84C19.2869 15.9866 19.2136 16.1333 19.0669 16.28C18.9202 16.4266 18.7491 16.5 18.5536 16.5H17.1602C17.0136 16.5 16.8669 16.4266 16.7202 16.28C16.5736 16.1333 16.5002 15.9866 16.5002 15.84V15.1066C16.5002 14.9111 16.4391 14.7522 16.3169 14.63C16.1947 14.5078 16.0358 14.4466 15.8402 14.4466H6.16022C5.96467 14.4466 5.80578 14.5078 5.68355 14.63C5.56133 14.7522 5.50022 14.9111 5.50022 15.1066V15.84C5.50022 15.9866 5.42689 16.1333 5.28022 16.28C5.13355 16.4266 4.98689 16.5 4.84022 16.5H3.44689C3.25133 16.5 3.08022 16.4266 2.93355 16.28C2.78689 16.1333 2.71355 15.9866 2.71355 15.84V12.3933C2.76244 11.6111 3.00689 10.9266 3.44689 10.34L4.25355 9.16664L4.76689 9.53331C5.598 10.0711 6.478 10.34 7.40689 10.34H14.5936C15.5224 10.34 16.4024 10.0711 17.2336 9.53331L17.7469 9.16664L18.5536 10.34C18.9936 10.9266 19.2136 11.6111 19.2136 12.3933V15.84H19.2869ZM16.5002 12.3933C16.5002 12.5889 16.5613 12.7478 16.6836 12.87C16.8058 12.9922 16.9647 13.0533 17.1602 13.0533C17.3558 13.0533 17.5269 12.9922 17.6736 12.87C17.8202 12.7478 17.8936 12.5889 17.8936 12.3933C17.8936 12.1978 17.8202 12.0266 17.6736 11.88C17.5269 11.7333 17.3558 11.66 17.1602 11.66C16.9647 11.66 16.8058 11.7333 16.6836 11.88C16.5613 12.0266 16.5002 12.1978 16.5002 12.3933ZM4.10689 12.3933C4.10689 12.5889 4.18022 12.7478 4.32689 12.87C4.47355 12.9922 4.64467 13.0533 4.84022 13.0533C5.03578 13.0533 5.19467 12.9922 5.31689 12.87C5.43911 12.7478 5.50022 12.5889 5.50022 12.3933C5.50022 12.1978 5.43911 12.0266 5.31689 11.88C5.19467 11.7333 5.03578 11.66 4.84022 11.66C4.64467 11.66 4.47355 11.7333 4.32689 11.88C4.18022 12.0266 4.10689 12.1978 4.10689 12.3933Z" fill="black"/>
</svg>
