<svg width="10" height="8" viewBox="0 0 10 8" fill="none" xmlns="http://www.w3.org/2000/svg">
<path d="M7.29194 3.88904L7.56088 3.88874C7.64057 3.88865 7.70528 3.85494 7.75501 3.78761C7.80474 3.72028 7.82956 3.64737 7.82947 3.56888C7.82938 3.4904 7.80439 3.41754 7.75451 3.35033C7.70463 3.28311 7.63985 3.24955 7.56016 3.24964L6.87284 3.25042L6.45356 2.44361C6.31383 2.19709 6.1393 2.00668 5.92996 1.87237C5.72063 1.73806 5.48646 1.67106 5.22748 1.67135L2.59776 1.67433C2.33877 1.67463 2.10476 1.74217 1.89574 1.87695C1.68671 2.01174 1.5126 2.20255 1.37343 2.44937L0.955982 3.25713L0.268669 3.25791C0.188981 3.25801 0.124272 3.29172 0.0745434 3.35905C0.0248145 3.42638 -5.36287e-06 3.49928 8.37336e-05 3.57777C0.000172831 3.65626 0.0251582 3.72911 0.0750398 3.79633C0.124921 3.86354 0.189706 3.89711 0.269395 3.89702L0.568226 3.89668L0.389195 4.13234C0.130666 4.53627 0.00168111 4.98491 0.00224115 5.47825L0.00403581 7.05919C0.00431583 7.30586 0.0842524 7.52441 0.243846 7.71484C0.403439 7.90526 0.602768 8.00034 0.841833 8.00007L1.40961 7.99943C1.62876 7.99918 1.82289 7.90365 1.99201 7.71285C2.16113 7.52205 2.24555 7.30331 2.24527 7.05664L5.59218 7.05284C5.59246 7.29952 5.67738 7.51806 5.84694 7.70848C6.01649 7.89889 6.21084 7.99398 6.42998 7.99373L6.99776 7.99308C7.23683 7.99281 7.43594 7.89728 7.5951 7.70649C7.75426 7.5157 7.8337 7.29697 7.83342 7.0503L7.83163 5.46937C7.83107 4.97603 7.70106 4.52768 7.44162 4.12433L7.29194 3.88904ZM1.85194 2.7852C1.93145 2.62814 2.03591 2.51029 2.16531 2.43166C2.29472 2.35302 2.43911 2.31362 2.59849 2.31344L5.2282 2.31045C5.38758 2.31027 5.53206 2.34935 5.66164 2.42769C5.79123 2.50603 5.89595 2.62364 5.97582 2.78052L6.33522 3.48649L6.15607 3.62124C5.91721 3.80091 5.65832 3.8909 5.37941 3.89121L2.45086 3.89454C2.17196 3.89486 1.91287 3.80545 1.6736 3.62633L1.49415 3.49198L1.85194 2.7852ZM7.29552 7.05091C7.2956 7.11818 7.26579 7.18549 7.2061 7.25283C7.14641 7.32018 7.07672 7.35389 6.99704 7.35398L6.42926 7.35463C6.36949 7.35469 6.30969 7.32113 6.24984 7.25392C6.19 7.18671 6.16004 7.11947 6.15996 7.0522L6.15958 6.71583C6.15948 6.62613 6.1345 6.55328 6.08463 6.49728C6.03476 6.44127 5.96998 6.41331 5.89029 6.4134L1.94571 6.41788C1.86603 6.41797 1.80131 6.44608 1.75157 6.50219C1.70183 6.55831 1.67701 6.63122 1.67711 6.72092L1.67749 7.05729C1.67757 7.12456 1.64776 7.19187 1.58807 7.25921C1.52838 7.32655 1.46865 7.36026 1.40889 7.36033L0.841108 7.36097C0.761419 7.36106 0.691654 7.3275 0.631811 7.2603C0.571968 7.19309 0.542009 7.12585 0.541933 7.05858L0.540138 5.47764C0.559653 5.11883 0.658907 4.80477 0.8379 4.53547L1.166 3.99691L1.37538 4.16486C1.71433 4.41114 2.07307 4.53407 2.45159 4.53364L5.38014 4.53032C5.75866 4.52989 6.11712 4.40614 6.45551 4.15909L6.6645 3.99067L6.99383 4.52848C7.17343 4.79738 7.26344 5.11122 7.26385 5.47001L7.26564 7.05094L7.29552 7.05091ZM6.15817 5.47127C6.15827 5.56096 6.18326 5.63382 6.23313 5.68982C6.28299 5.74583 6.34777 5.77378 6.42746 5.77369C6.50715 5.7736 6.57685 5.74549 6.63655 5.68936C6.69625 5.63323 6.72605 5.56032 6.72595 5.47062C6.72585 5.38092 6.69588 5.30247 6.63603 5.23527C6.57619 5.16806 6.50642 5.1345 6.42674 5.13459C6.34705 5.13468 6.28234 5.16839 6.23261 5.23572C6.18288 5.30305 6.15807 5.38157 6.15817 5.47127ZM1.10792 5.477C1.10802 5.5667 1.13799 5.63954 1.19782 5.69554C1.25765 5.75153 1.3274 5.77948 1.40709 5.77939C1.48678 5.7793 1.5515 5.7512 1.60124 5.69508C1.65098 5.63896 1.6758 5.56605 1.6757 5.47635C1.6756 5.38666 1.6506 5.3082 1.60072 5.24098C1.55084 5.17376 1.48606 5.1402 1.40637 5.14029C1.32668 5.14038 1.25699 5.1741 1.1973 5.24144C1.13761 5.30878 1.10782 5.3873 1.10792 5.477Z" fill="white"/>
<mask id="mask0_0_2147" style="mask-type:alpha" maskUnits="userSpaceOnUse" x="1" y="0" width="9" height="7">
<path d="M8.9582 2.21768L9.22715 2.21737C9.30683 2.21728 9.37154 2.18357 9.42127 2.11624C9.471 2.04891 9.49582 1.976 9.49573 1.89751C9.49564 1.81903 9.47066 1.74618 9.42078 1.67896C9.37089 1.61174 9.30611 1.57818 9.22642 1.57827L8.53911 1.57905L8.11983 0.77224C7.98009 0.525727 7.80556 0.335316 7.59622 0.201006C7.38689 0.0666959 7.15273 -0.000311809 6.89374 -1.78089e-05L4.26402 0.00296742C4.00504 0.00326142 3.77103 0.0708006 3.562 0.205586C3.35297 0.340371 3.17887 0.531178 3.03969 0.778007L2.62224 1.58577L1.93493 1.58655C1.85524 1.58664 1.79053 1.62035 1.74081 1.68768C1.69108 1.75501 1.66626 1.82792 1.66635 1.9064C1.66644 1.98489 1.69142 2.05774 1.7413 2.12496C1.79118 2.19217 1.85597 2.22574 1.93566 2.22565L2.23449 2.22531L2.05546 2.46097C1.79693 2.86491 1.66794 3.31355 1.6685 3.80689L1.6703 5.38782C1.67058 5.63449 1.75051 5.85304 1.91011 6.04347C2.0697 6.2339 2.26903 6.32898 2.5081 6.3287L3.07588 6.32806C3.29502 6.32781 3.48915 6.23229 3.65827 6.04148C3.82739 5.85068 3.91181 5.63195 3.91153 5.38528L7.25845 5.38148C7.25873 5.62815 7.34364 5.84669 7.5132 6.03711C7.68275 6.22752 7.8771 6.32261 8.09624 6.32236L8.66402 6.32172C8.90309 6.32144 9.1022 6.22591 9.26136 6.03512C9.42052 5.84433 9.49996 5.6256 9.49968 5.37893L9.49789 3.798C9.49733 3.30466 9.36733 2.85631 9.10788 2.45296L8.9582 2.21768ZM3.5182 1.11383C3.59771 0.95677 3.70217 0.838922 3.83158 0.760289C3.96098 0.681656 4.10537 0.642249 4.26475 0.642068L6.89447 0.639083C7.05384 0.638902 7.19832 0.677981 7.3279 0.75632C7.45749 0.834659 7.56221 0.95227 7.64208 1.10915L8.00148 1.81512L7.82233 1.94987C7.58347 2.12954 7.32459 2.21953 7.04568 2.21985L4.11713 2.22317C3.83822 2.22349 3.57913 2.13408 3.33986 1.95496L3.16041 1.82061L3.5182 1.11383ZM8.96179 5.37954C8.96186 5.44682 8.93206 5.51412 8.87237 5.58147C8.81268 5.64881 8.74299 5.68252 8.6633 5.68261L8.09552 5.68326C8.03575 5.68333 7.97595 5.64976 7.91611 5.58255C7.85626 5.51535 7.8263 5.44811 7.82623 5.38083L7.82585 5.04446C7.82574 4.95477 7.80076 4.88191 7.75089 4.82591C7.70102 4.7699 7.63624 4.74195 7.55655 4.74204L3.61198 4.74651C3.53229 4.74661 3.46757 4.77471 3.41783 4.83083C3.36809 4.88695 3.34327 4.95985 3.34337 5.04955L3.34375 5.38592C3.34383 5.45319 3.31402 5.5205 3.25433 5.58784C3.19464 5.65519 3.13492 5.68889 3.07515 5.68896L2.50737 5.6896C2.42768 5.68969 2.35792 5.65614 2.29807 5.58893C2.23823 5.52172 2.20827 5.45448 2.2082 5.38721L2.2064 3.80628C2.22592 3.44746 2.32517 3.1334 2.50416 2.8641L2.83227 2.32554L3.04164 2.49349C3.3806 2.73977 3.73933 2.8627 4.11785 2.86227L7.0464 2.85895C7.42492 2.85852 7.78338 2.73478 8.12177 2.48772L8.33077 2.3193L8.66009 2.85712C8.8397 3.12601 8.9297 3.43985 8.93011 3.79864L8.9319 5.37958L8.96179 5.37954ZM7.82443 3.7999C7.82453 3.8896 7.84952 3.96245 7.89939 4.01845C7.94926 4.07446 8.01404 4.10242 8.09372 4.10233C8.17341 4.10223 8.24311 4.07412 8.30281 4.018C8.36251 3.96187 8.39231 3.88895 8.39221 3.79925C8.39211 3.70956 8.36214 3.6311 8.3023 3.5639C8.24245 3.49669 8.17269 3.46313 8.093 3.46322C8.01331 3.46331 7.9486 3.49703 7.89887 3.56436C7.84914 3.63169 7.82433 3.7102 7.82443 3.7999ZM2.77418 3.80563C2.77428 3.89533 2.80425 3.96818 2.86408 4.02417C2.92391 4.08016 2.99367 4.10811 3.07336 4.10802C3.15304 4.10793 3.21776 4.07983 3.2675 4.02371C3.31724 3.96759 3.34206 3.89469 3.34196 3.80499C3.34186 3.71529 3.31687 3.63683 3.26698 3.56961C3.2171 3.5024 3.15232 3.46883 3.07263 3.46892C2.99294 3.46901 2.92325 3.50273 2.86356 3.57007C2.80387 3.63741 2.77408 3.71593 2.77418 3.80563Z" fill="white"/>
</mask>
<g mask="url(#mask0_0_2147)">
<path d="M5.67085 1.50413L2.3332 1.50792L3.49911 -0.495998C4.72291 -0.497387 7.27069 -0.466903 7.67136 -0.333851C8.07203 -0.2008 8.50697 0.722124 8.67436 1.16695L9.34189 1.1662C9.56446 1.22157 10.0097 1.43245 10.0102 1.83297C10.0106 2.23349 9.78836 2.44512 9.67717 2.50088C9.78956 3.50205 9.94774 5.63797 9.68134 6.17229C9.41493 6.70662 8.45816 6.72996 8.01308 6.67484L8.011 4.83913C8.01069 4.57212 7.7876 4.06059 7.6761 3.83821L7.67591 3.67133C7.73141 3.56001 7.87575 3.30396 8.0091 3.1703C8.14246 3.03664 7.95316 2.89223 7.84184 2.83673L6.84055 2.83786C6.67328 2.50429 6.439 1.93715 6.17169 1.67044C5.90437 1.40373 5.67123 1.83789 5.67085 1.50413Z" fill="white"/>
</g>
</svg>
