<svg width="40" height="38" viewBox="0 0 40 38" fill="none" xmlns="http://www.w3.org/2000/svg">
<path d="M27.8333 12.4C27.8333 9.64175 26.7446 6.99647 24.8068 5.04609C22.8689 3.09571 20.2406 2 17.5 2C14.7594 2 12.1311 3.09571 10.1932 5.04609C8.25535 6.99647 7.16667 9.64175 7.16667 12.4C7.16667 24.5333 2 28 2 28H33C33 28 27.8333 24.5333 27.8333 12.4Z" stroke="#CE0000" stroke-width="3" stroke-linecap="round" stroke-linejoin="round"/>
<path d="M21 35C20.6951 35.3042 20.2575 35.5566 19.731 35.7321C19.2045 35.9076 18.6076 36 18 36C17.3924 36 16.7955 35.9076 16.269 35.7321C15.7425 35.5566 15.3049 35.3042 15 35" stroke="#CE0000" stroke-width="3" stroke-linecap="round" stroke-linejoin="round"/>
</svg>
