<svg width="14" height="14" viewBox="0 0 14 14" fill="none" xmlns="http://www.w3.org/2000/svg">
<g clip-path="url(#clip0_0_4443)">
<path d="M2.98857 6.99999C2.98857 6.71999 3.09746 6.48665 3.31524 6.29999L9.33525 0.279978C9.52192 0.0933105 9.74747 -2.31071e-05 10.0119 -2.31071e-05C10.2764 -2.31071e-05 10.5097 0.0933105 10.7119 0.279978C10.9141 0.466645 11.0153 0.699979 11.0153 0.979979C11.0153 1.25998 10.9064 1.49331 10.6886 1.67998L5.36858 6.99999L10.6886 12.32C10.8753 12.5067 10.9686 12.74 10.9686 13.02C10.9686 13.3 10.8753 13.5333 10.6886 13.72C10.5019 13.9067 10.2764 14 10.0119 14C9.74747 14 9.52192 13.9067 9.33525 13.72L3.31524 7.69999C3.09746 7.51332 2.98857 7.27999 2.98857 6.99999Z" fill="white"/>
</g>
<defs>
<clipPath id="clip0_0_4443">
<rect width="13.2896" height="13.2896" fill="white" transform="matrix(1.05346 0 0 -1.05346 0 14)"/>
</clipPath>
</defs>
</svg>
