<svg width="21" height="21" viewBox="0 0 21 21" fill="none" xmlns="http://www.w3.org/2000/svg">
<g clip-path="url(#clip0_0_3529)">
<path d="M16.053 12.476H16.6451C16.8205 12.476 16.9631 12.4019 17.0727 12.2538C17.1824 12.1057 17.2372 11.9452 17.2372 11.7724C17.2372 11.5996 17.1824 11.4392 17.0727 11.2911C16.9631 11.143 16.8205 11.0689 16.6451 11.0689H15.1319L14.2108 9.29159C13.9038 8.74852 13.52 8.32887 13.0595 8.03265C12.599 7.73643 12.0836 7.58832 11.5134 7.58832H5.72381C5.15362 7.58832 4.63826 7.73643 4.17772 8.03265C3.71719 8.32887 3.33341 8.74852 3.02638 9.29159L2.10531 11.0689H0.592118C0.416676 11.0689 0.274129 11.143 0.164477 11.2911C0.0548258 11.4392 0 11.5996 0 11.7724C0 11.9452 0.0548258 12.1057 0.164477 12.2538C0.274129 12.4019 0.416676 12.476 0.592118 12.476H1.25003L0.855282 12.9943C0.285094 13.883 0 14.8704 0 15.9566V19.4371C0 19.9802 0.175442 20.4616 0.526327 20.8812C0.877212 21.3009 1.31582 21.5107 1.84215 21.5107H3.09217C3.57464 21.5107 4.00228 21.3009 4.3751 20.8812C4.74791 20.4616 4.93432 19.9802 4.93432 19.4371H12.3029C12.3029 19.9802 12.4893 20.4616 12.8621 20.8812C13.2349 21.3009 13.6626 21.5107 14.145 21.5107H15.3951C15.9214 21.5107 16.36 21.3009 16.7109 20.8812C17.0618 20.4616 17.2372 19.9802 17.2372 19.4371V15.9566C17.2372 14.8704 16.9521 13.883 16.3819 12.9943L16.053 12.476ZM4.07904 10.0321C4.25448 9.68655 4.48475 9.42736 4.76984 9.25456C5.05494 9.08177 5.37293 8.99537 5.72381 8.99537H11.5134C11.8643 8.99537 12.1823 9.08177 12.4674 9.25456C12.7525 9.42736 12.9827 9.68655 13.1582 10.0321L13.9477 11.5873L13.5529 11.8835C13.0266 12.2785 12.4564 12.476 11.8424 12.476H5.39486C4.78081 12.476 4.21062 12.2785 3.68429 11.8835L3.28955 11.5873L4.07904 10.0321ZM16.053 19.4371C16.053 19.5853 15.9872 19.7334 15.8556 19.8815C15.724 20.0296 15.5705 20.1036 15.3951 20.1036H14.145C14.0135 20.1036 13.8819 20.0296 13.7503 19.8815C13.6187 19.7334 13.5529 19.5853 13.5529 19.4371V18.6966C13.5529 18.4991 13.4981 18.3387 13.3885 18.2152C13.2788 18.0918 13.1363 18.0301 12.9608 18.0301H4.27641C4.10097 18.0301 3.95842 18.0918 3.84877 18.2152C3.73912 18.3387 3.68429 18.4991 3.68429 18.6966V19.4371C3.68429 19.5853 3.6185 19.7334 3.48692 19.8815C3.35534 20.0296 3.22376 20.1036 3.09217 20.1036H1.84215C1.6667 20.1036 1.51319 20.0296 1.38161 19.8815C1.25003 19.7334 1.18424 19.5853 1.18424 19.4371V15.9566C1.2281 15.1666 1.4474 14.4755 1.84215 13.883L2.56585 12.6981L3.02638 13.0684C3.77201 13.6115 4.5615 13.883 5.39486 13.883H11.8424C12.6757 13.883 13.4652 13.6115 14.2108 13.0684L14.6714 12.6981L15.3951 13.883C15.7898 14.4755 15.9872 15.1666 15.9872 15.9566V19.4371H16.053ZM13.5529 15.9566C13.5529 16.154 13.6078 16.3145 13.7174 16.4379C13.8271 16.5613 13.9696 16.6231 14.145 16.6231C14.3205 16.6231 14.474 16.5613 14.6056 16.4379C14.7372 16.3145 14.803 16.154 14.803 15.9566C14.803 15.7591 14.7372 15.5863 14.6056 15.4382C14.474 15.2901 14.3205 15.216 14.145 15.216C13.9696 15.216 13.8271 15.2901 13.7174 15.4382C13.6078 15.5863 13.5529 15.7591 13.5529 15.9566ZM2.43426 15.9566C2.43426 16.154 2.50006 16.3145 2.63164 16.4379C2.76322 16.5613 2.91673 16.6231 3.09217 16.6231C3.26762 16.6231 3.41016 16.5613 3.51981 16.4379C3.62947 16.3145 3.68429 16.154 3.68429 15.9566C3.68429 15.7591 3.62947 15.5863 3.51981 15.4382C3.41016 15.2901 3.26762 15.216 3.09217 15.216C2.91673 15.216 2.76322 15.2901 2.63164 15.4382C2.50006 15.5863 2.43426 15.7591 2.43426 15.9566Z" fill="white"/>
<mask id="mask0_0_3529" style="mask-type:alpha" maskUnits="userSpaceOnUse" x="3" y="3" width="18" height="15">
<path d="M19.7274 8.80156H20.3195C20.4949 8.80156 20.6375 8.72751 20.7471 8.5794C20.8568 8.43129 20.9116 8.27083 20.9116 8.09804C20.9116 7.92524 20.8568 7.76479 20.7471 7.61668C20.6375 7.46857 20.4949 7.39452 20.3195 7.39452H18.8063L17.8852 5.61719C17.5782 5.07412 17.1944 4.65447 16.7339 4.35825C16.2734 4.06203 15.758 3.91392 15.1878 3.91392H9.39821C8.82802 3.91392 8.31266 4.06203 7.85212 4.35825C7.39159 4.65447 7.00781 5.07412 6.70078 5.61719L5.77971 7.39452H4.26652C4.09108 7.39452 3.94853 7.46857 3.83888 7.61668C3.72923 7.76479 3.6744 7.92524 3.6744 8.09804C3.6744 8.27083 3.72923 8.43129 3.83888 8.5794C3.94853 8.72751 4.09108 8.80156 4.26652 8.80156H4.92443L4.52968 9.31995C3.95949 10.2086 3.6744 11.196 3.6744 12.2822V15.7627C3.6744 16.3058 3.84984 16.7872 4.20073 17.2068C4.55161 17.6265 4.99022 17.8363 5.51655 17.8363H6.76657C7.24904 17.8363 7.67668 17.6265 8.0495 17.2068C8.42231 16.7872 8.60872 16.3058 8.60872 15.7627H15.9773C15.9773 16.3058 16.1637 16.7872 16.5365 17.2068C16.9093 17.6265 17.337 17.8363 17.8194 17.8363H19.0695C19.5958 17.8363 20.0344 17.6265 20.3853 17.2068C20.7362 16.7872 20.9116 16.3058 20.9116 15.7627V12.2822C20.9116 11.196 20.6265 10.2086 20.0563 9.31995L19.7274 8.80156ZM7.75344 6.35774C7.92888 6.01215 8.15915 5.75296 8.44424 5.58016C8.72934 5.40737 9.04733 5.32097 9.39821 5.32097H15.1878C15.5387 5.32097 15.8567 5.40737 16.1418 5.58016C16.4269 5.75296 16.6571 6.01215 16.8326 6.35774L17.6221 7.9129L17.2273 8.20912C16.701 8.60408 16.1308 8.80156 15.5168 8.80156H9.06926C8.45521 8.80156 7.88502 8.60408 7.35869 8.20912L6.96395 7.9129L7.75344 6.35774ZM19.7274 15.7627C19.7274 15.9109 19.6616 16.059 19.53 16.2071C19.3984 16.3552 19.2449 16.4292 19.0695 16.4292H17.8194C17.6879 16.4292 17.5563 16.3552 17.4247 16.2071C17.2931 16.059 17.2273 15.9109 17.2273 15.7627V15.0222C17.2273 14.8247 17.1725 14.6643 17.0629 14.5408C16.9532 14.4174 16.8107 14.3557 16.6352 14.3557H7.95081C7.77537 14.3557 7.63282 14.4174 7.52317 14.5408C7.41352 14.6643 7.35869 14.8247 7.35869 15.0222V15.7627C7.35869 15.9109 7.2929 16.059 7.16132 16.2071C7.02974 16.3552 6.89815 16.4292 6.76657 16.4292H5.51655C5.3411 16.4292 5.18759 16.3552 5.05601 16.2071C4.92443 16.059 4.85864 15.9109 4.85864 15.7627V12.2822C4.9025 11.4922 5.1218 10.8011 5.51655 10.2086L6.24025 9.02373L6.70078 9.39401C7.44641 9.93708 8.2359 10.2086 9.06926 10.2086H15.5168C16.3501 10.2086 17.1396 9.93708 17.8852 9.39401L18.3458 9.02373L19.0695 10.2086C19.4642 10.8011 19.6616 11.4922 19.6616 12.2822V15.7627H19.7274ZM17.2273 12.2822C17.2273 12.4796 17.2822 12.6401 17.3918 12.7635C17.5015 12.8869 17.644 12.9487 17.8194 12.9487C17.9949 12.9487 18.1484 12.8869 18.28 12.7635C18.4116 12.6401 18.4774 12.4796 18.4774 12.2822C18.4774 12.0847 18.4116 11.9119 18.28 11.7638C18.1484 11.6157 17.9949 11.5416 17.8194 11.5416C17.644 11.5416 17.5015 11.6157 17.3918 11.7638C17.2822 11.9119 17.2273 12.0847 17.2273 12.2822ZM6.10866 12.2822C6.10866 12.4796 6.17445 12.6401 6.30604 12.7635C6.43762 12.8869 6.59113 12.9487 6.76657 12.9487C6.94202 12.9487 7.08456 12.8869 7.19421 12.7635C7.30387 12.6401 7.35869 12.4796 7.35869 12.2822C7.35869 12.0847 7.30387 11.9119 7.19421 11.7638C7.08456 11.6157 6.94202 11.5416 6.76657 11.5416C6.59113 11.5416 6.43762 11.6157 6.30604 11.7638C6.17445 11.9119 6.10866 12.0847 6.10866 12.2822Z" fill="white"/>
</mask>
<g mask="url(#mask0_0_3529)">
<path d="M12.4921 7.22199H5.14396L7.71583 2.81307C10.4102 2.81307 16.0193 2.88655 16.9011 3.18048C17.7828 3.47441 18.7381 5.50741 19.1055 6.48717H20.5752C21.065 6.60964 22.0448 7.07502 22.0448 7.95681C22.0448 8.83859 21.5549 9.30397 21.31 9.42644C21.5549 11.6309 21.8978 16.3337 21.31 17.5095C20.7221 18.6852 18.6156 18.7342 17.6359 18.6117V14.5702C17.6359 13.9823 17.146 12.8556 16.9011 12.3657V11.9983C17.0235 11.7534 17.342 11.19 17.6359 10.8961C17.9298 10.6022 17.5134 10.2837 17.2685 10.1613H15.064C14.6966 9.42644 14.1822 8.17725 13.5944 7.5894C13.0065 7.00154 12.4921 7.95681 12.4921 7.22199Z" fill="white"/>
</g>
</g>
<defs>
<clipPath id="clip0_0_3529">
<rect width="20.5" height="20.5" fill="white" transform="scale(1.02439)"/>
</clipPath>
</defs>
</svg>
