<svg width="17" height="18" viewBox="0 0 17 18" fill="none" xmlns="http://www.w3.org/2000/svg">
<path fill-rule="evenodd" clip-rule="evenodd" d="M8.05482 14.5721L4.59368 16.4861C4.12616 16.7446 3.54791 16.5555 3.30212 16.0638C3.20425 15.868 3.17048 15.6437 3.20603 15.4256L3.86705 11.3719C3.92026 11.0455 3.8174 10.7126 3.592 10.4815L0.791877 7.61057C0.413648 7.22278 0.405908 6.5859 0.774591 6.18807C0.921402 6.02965 1.11377 5.92656 1.32191 5.89475L5.19159 5.30331C5.50309 5.2557 5.77237 5.04992 5.91168 4.75302L7.64225 1.06477C7.87601 0.566574 8.44947 0.362028 8.92312 0.607901C9.11173 0.705809 9.26439 0.866384 9.35747 1.06477L11.088 4.75302C11.2274 5.04992 11.4966 5.2557 11.8081 5.30331L15.6778 5.89475C16.2005 5.97464 16.5627 6.48509 16.4867 7.03488C16.4565 7.25381 16.3585 7.45615 16.2078 7.61057L13.4077 10.4815C13.1823 10.7126 13.0795 11.0455 13.1327 11.3719L13.7937 15.4256C13.883 15.9732 13.5333 16.4932 13.0128 16.5871C12.8055 16.6245 12.5922 16.589 12.406 16.4861L8.9449 14.5721C8.66629 14.4181 8.33344 14.4181 8.05482 14.5721Z" stroke="white"/>
</svg>
