<svg width="22" height="22" viewBox="0 0 22 22" fill="none" xmlns="http://www.w3.org/2000/svg">
<path d="M9.53337 21.2666C8.84892 21.2666 8.2867 21.0466 7.8467 20.6066L1.39337 14.1533C0.904479 13.6644 0.660034 13.0899 0.660034 12.4299C0.660034 11.7699 0.904479 11.1955 1.39337 10.7066L10.0467 2.05327C10.9756 1.12438 12.1 0.659937 13.42 0.659937H18.92C19.6045 0.659937 20.1789 0.904383 20.6434 1.39327C21.1078 1.88216 21.34 2.44438 21.34 3.07994V8.57994C21.34 9.89994 20.8756 10.9999 19.9467 11.8799L11.22 20.6066C10.78 21.0466 10.2178 21.2666 9.53337 21.2666ZM13.42 2.27327C12.54 2.27327 11.8067 2.59105 11.22 3.2266L2.5667 11.8799C2.37115 12.0266 2.27337 12.2099 2.27337 12.4299C2.27337 12.6499 2.37115 12.8577 2.5667 13.0533L8.9467 19.4333C9.09337 19.6288 9.28892 19.7266 9.53337 19.7266C9.77781 19.7266 9.97337 19.6288 10.12 19.4333L18.7734 10.7799C19.4089 10.1933 19.7267 9.45994 19.7267 8.57994V3.07994C19.7267 2.88438 19.6411 2.70105 19.47 2.52994C19.2989 2.35883 19.1156 2.27327 18.92 2.27327H13.42ZM15.4734 8.87327C14.8378 8.87327 14.2756 8.62883 13.7867 8.13994C13.2978 7.65105 13.0534 7.0766 13.0534 6.4166C13.0534 5.7566 13.2978 5.19438 13.7867 4.72994C14.2756 4.26549 14.85 4.03327 15.51 4.03327C16.17 4.03327 16.7323 4.26549 17.1967 4.72994C17.6611 5.19438 17.8934 5.7566 17.8934 6.4166C17.8934 7.0766 17.6611 7.65105 17.1967 8.13994C16.7323 8.62883 16.1578 8.87327 15.4734 8.87327ZM15.4734 5.6466C15.2778 5.6466 15.0945 5.71994 14.9234 5.8666C14.7523 6.01327 14.6667 6.1966 14.6667 6.4166C14.6667 6.6366 14.7523 6.83216 14.9234 7.00327C15.0945 7.17438 15.29 7.25994 15.51 7.25994C15.73 7.25994 15.9134 7.17438 16.06 7.00327C16.2067 6.83216 16.28 6.6366 16.28 6.4166C16.28 6.1966 16.2067 6.01327 16.06 5.8666C15.9134 5.71994 15.7178 5.6466 15.4734 5.6466Z" fill="white"/>
</svg>
