<svg width="29" height="10" viewBox="0 0 29 10" fill="none" xmlns="http://www.w3.org/2000/svg">
<path fill-rule="evenodd" clip-rule="evenodd" d="M17.9267 8.39887L15.9596 9.4796C15.6939 9.62557 15.3652 9.51882 15.2256 9.24115C15.1699 9.13058 15.1507 9.00393 15.1709 8.88081L15.5466 6.5918C15.5769 6.40754 15.5184 6.21953 15.3903 6.08904L13.7989 4.46795C13.5839 4.24898 13.5795 3.88937 13.7891 3.66473C13.8725 3.57528 13.9818 3.51706 14.1001 3.4991L16.2994 3.16514C16.4765 3.13826 16.6295 3.02206 16.7087 2.85441L17.6922 0.771805C17.8251 0.490495 18.151 0.374996 18.4202 0.51383C18.5274 0.569115 18.6142 0.659785 18.6671 0.771805L19.6506 2.85441C19.7298 3.02206 19.8828 3.13826 20.0599 3.16514L22.2592 3.4991C22.5563 3.54421 22.7621 3.83244 22.7189 4.14289C22.7017 4.26651 22.646 4.38076 22.5604 4.46795L20.969 6.08904C20.8409 6.21953 20.7824 6.40754 20.8127 6.5918L21.1884 8.88081C21.2391 9.19 21.0404 9.48364 20.7445 9.53667C20.6267 9.55778 20.5055 9.53773 20.3997 9.4796L18.4326 8.39887C18.2742 8.31188 18.0851 8.31188 17.9267 8.39887Z" fill="#CE0000" stroke="black" stroke-width="0.902222"/>
</svg>
