<svg width="25" height="25" viewBox="0 0 25 25" fill="none" xmlns="http://www.w3.org/2000/svg">
<g clip-path="url(#clip0_0_1323)">
<path d="M5.33643 12.5C5.33643 12 5.53087 11.5833 5.91976 11.25L16.6698 0.5C17.0031 0.166666 17.4059 0 17.8781 0C18.3503 0 18.767 0.166666 19.1281 0.5C19.4892 0.833332 19.6698 1.25 19.6698 1.75C19.6698 2.25 19.4753 2.66667 19.0864 3L9.58643 12.5L19.0864 22C19.4198 22.3333 19.5864 22.75 19.5864 23.25C19.5864 23.75 19.4198 24.1667 19.0864 24.5C18.7531 24.8333 18.3503 25 17.8781 25C17.4059 25 17.0031 24.8333 16.6698 24.5L5.91976 13.75C5.53087 13.4167 5.33643 13 5.33643 12.5Z" fill="white"/>
</g>
<defs>
<clipPath id="clip0_0_1323">
<rect width="25" height="25" fill="white" transform="matrix(1 0 0 -1 0 25)"/>
</clipPath>
</defs>
</svg>
