<svg width="21" height="21" viewBox="0 0 21 21" fill="none" xmlns="http://www.w3.org/2000/svg">
<g clip-path="url(#clip0_0_4538)">
<path d="M20.4198 20.9999H0.670386C0.443471 20.9999 0.257812 20.8168 0.257812 20.5873V19.7647C0.257812 18.6302 1.18095 17.707 2.31552 17.707H14.6592C14.8861 17.707 15.0718 17.8901 15.0718 18.1196C15.0718 18.3491 14.8887 18.5322 14.6592 18.5322H2.31552C1.63478 18.5322 1.08038 19.0866 1.08038 19.7673V20.1799H20.0072V19.7673C20.0072 19.0866 19.4528 18.5322 18.7721 18.5322H17.1269C16.9 18.5322 16.7143 18.3491 16.7143 18.1196C16.7143 17.8901 16.8974 17.707 17.1269 17.707H18.7721C19.9066 17.707 20.8298 18.6302 20.8298 19.7647V20.5873C20.8298 20.8142 20.6467 20.9999 20.4172 20.9999H20.4198Z" fill="black"/>
<path d="M18.7747 18.5297C18.5477 18.5297 18.3621 18.3466 18.3621 18.1171V17.2945C18.3621 16.6138 17.8077 16.0594 17.1269 16.0594H3.96068C3.27993 16.0594 2.72554 16.6138 2.72554 17.2945V18.1171C2.72554 18.344 2.54246 18.5297 2.31296 18.5297C2.08347 18.5297 1.90039 18.3466 1.90039 18.1171V17.2945C1.90039 16.1599 2.82352 15.2368 3.9581 15.2368H17.1244C18.2589 15.2368 19.1821 16.1599 19.1821 17.2945V18.1171C19.1821 18.344 18.999 18.5297 18.7695 18.5297H18.7747Z" fill="black"/>
<path d="M11.7792 16.0619H9.3115C9.08458 16.0619 8.89893 15.8788 8.89893 15.6493V8.24363C8.89893 8.01671 9.08201 7.83105 9.3115 7.83105H11.7792C12.0061 7.83105 12.1918 8.01413 12.1918 8.24363V15.6493C12.1918 15.8762 12.0087 16.0619 11.7792 16.0619ZM9.7215 15.2393H11.3666V8.6562H9.7215V15.2393Z" fill="black"/>
<path d="M13.0142 8.65624H8.07626C7.86739 8.65624 7.68947 8.49895 7.66626 8.29009L7.14797 3.62542C7.05514 2.80286 7.28721 2.03444 7.79519 1.46715C8.22066 0.992689 9.04065 0.427979 10.544 0.427979C12.0473 0.427979 12.8673 0.992689 13.2927 1.46715C13.8033 2.03702 14.0328 2.80286 13.94 3.62542L13.4217 8.29009C13.3985 8.49895 13.2231 8.65624 13.0117 8.65624H13.0142ZM8.445 7.83368H12.6455L13.1225 3.53517C13.1896 2.93952 13.0349 2.41349 12.679 2.01639C12.2304 1.51614 11.4929 1.25055 10.544 1.25055C9.59504 1.25055 8.85757 1.51614 8.4089 2.01639C8.05305 2.41607 7.89834 2.93952 7.96538 3.53517L8.44242 7.83368H8.445Z" fill="black"/>
</g>
<defs>
<clipPath id="clip0_0_4538">
<rect width="21" height="21" fill="white"/>
</clipPath>
</defs>
</svg>
