<svg width="24" height="24" viewBox="0 0 24 24" fill="none" xmlns="http://www.w3.org/2000/svg">
<path d="M12.5 16.7C9.63285 16.7 7.3 14.3671 7.3 11.5C7.3 8.63285 9.63285 6.3 12.5 6.3C15.3671 6.3 17.7 8.63285 17.7 11.5C17.7 14.3671 15.3671 16.7 12.5 16.7ZM12.5 5C8.91005 5 6 7.91005 6 11.5C6 15.0899 8.91005 18 12.5 18C16.0899 18 19 15.0899 19 11.5C19 7.91005 16.0899 5 12.5 5Z" fill="black"/>
<path d="M11.8504 8.9C11.8504 9.2588 12.1416 9.55 12.5004 9.55C12.8592 9.55 13.1504 9.2588 13.1504 8.9C13.1504 8.5412 12.8592 8.25 12.5004 8.25C12.1416 8.25 11.8504 8.5412 11.8504 8.9Z" fill="black"/>
<path d="M11.8504 14.1C11.8504 14.4588 12.1416 14.75 12.5004 14.75C12.8592 14.75 13.1504 14.4588 13.1504 14.1L13.1504 10.85C13.1504 10.4912 12.8592 10.2 12.5004 10.2C12.1416 10.2 11.8504 10.4912 11.8504 10.85L11.8504 14.1Z" fill="black"/>
</svg>
