<svg width="160" height="103" viewBox="0 0 160 103" fill="none" xmlns="http://www.w3.org/2000/svg">
<g clip-path="url(#clip0_1831_116148)">
<path d="M42.2498 43.5327L42.2532 43.5336C41.5263 39.0623 37.8979 16.855 37.6933 15.5068C37.0607 11.3158 34.2149 9.18469 31.7597 8.58744C31.6421 8.55884 20.9105 5.95331 20.6233 5.88344C19.2514 5.54972 18.6754 5.20152 18.7539 4.75525C18.9626 3.89739 20.1804 4.19362 21.0691 4.4098L33.1248 7.34242C37.6811 8.45076 38.449 13.0945 38.481 13.2925L41.3239 31.2017L44.3033 29.5854L41.6764 12.8184C41.6343 12.5295 40.6045 5.84881 33.885 4.21424L21.83 1.28179C18.8712 0.562743 16.1258 1.75279 15.5809 3.99266C15.0361 6.23253 16.8039 8.26674 19.8626 9.01078C20.1423 9.07884 30.953 11.7036 30.9989 11.7148C31.8903 11.9316 34.0136 12.7809 34.4984 15.9789C34.7092 17.375 38.3401 39.6869 39.0546 44.0825L39.0625 44.0822C39.1865 44.6761 39.6349 45.1779 40.2654 45.3312C41.1366 45.5431 42.0131 45.0116 42.2238 44.1457C42.2737 43.9405 42.2779 43.732 42.2496 43.5334L42.2498 43.5327Z" fill="#FEEEBA"/>
<path d="M114.679 79.1593C111.809 78.4611 108.919 80.2159 108.225 83.0667C107.532 85.9175 109.293 88.8059 112.163 89.5041C115.033 90.2023 117.919 88.4477 118.613 85.5936C119.307 82.7394 117.542 79.8556 114.679 79.1593Z" fill="#FEEEBA"/>
<path d="M115.959 73.6409C110.039 72.2008 104.075 75.8118 102.64 81.7085C102.27 83.2312 102.241 84.7543 102.501 86.2042C102.961 92.1607 78.2974 87.0961 78.2974 87.0961L110.765 94.994C116.687 96.4346 122.651 92.8213 124.085 86.9252C125.52 81.0292 121.881 75.0815 115.959 73.6409ZM111.793 90.986C108.102 90.0883 105.83 86.3728 106.724 82.6991C107.618 79.0254 111.343 76.771 115.033 77.6686C118.723 78.5661 120.99 82.2855 120.098 85.9525C119.206 89.6194 115.479 91.8826 111.793 90.986Z" fill="#FEEEBA"/>
<path d="M65.6058 67.2205C62.7364 66.5225 59.8458 68.2772 59.1523 71.128C58.4588 73.9789 60.2199 76.8673 63.0894 77.5653C65.9589 78.2634 68.8444 76.5088 69.5387 73.6546C70.233 70.8004 68.4686 67.9169 65.6058 67.2205Z" fill="#FEEEBA"/>
<path d="M66.8951 61.7052C60.9744 60.265 55.0096 63.876 53.5751 69.7727C53.2047 71.2953 53.1764 72.8185 53.4364 74.2685C53.8985 80.2254 29.2331 75.1604 29.2331 75.1604L61.7008 83.0584C67.6215 84.4986 73.5862 80.8855 75.0204 74.9894C76.4547 69.0933 72.8165 63.1457 66.8951 61.7052ZM62.7281 79.0502C59.0375 78.1524 56.7654 74.437 57.659 70.7633C58.5526 67.0896 62.2778 64.8351 65.9676 65.7327C69.6575 66.6303 71.9252 70.3497 71.0332 74.0166C70.1412 77.6836 66.4133 79.9466 62.7281 79.0502Z" fill="#FEEEBA"/>
<path d="M146.397 83.3606L147.955 76.9552C148.672 74.0088 147.281 70.9509 144.588 69.5396L123.594 58.5542L110.219 41.2207C106.025 35.7836 100.097 31.9364 93.4158 30.3111L61.5921 22.5698C60.4953 22.303 59.2963 22.4532 58.2557 23.0823L41.6638 33.1332L42.9894 41.1373C44.1828 42.0134 44.7977 43.5462 44.4273 45.0689C43.9352 47.0921 41.8873 48.3335 39.8539 47.8388C37.8204 47.3442 36.5721 45.3017 37.0644 43.2778C37.168 42.8519 37.3434 42.4634 37.5695 42.1165L36.5915 36.2059L32.1626 38.8877C30.0827 40.1492 29.4254 42.8513 30.6938 44.9258L46.6125 70.9494C47.2473 71.9882 48.2427 72.6722 49.3402 72.9392L51.4561 73.4539C51.3406 72.1045 51.4349 70.7164 51.7721 69.3304C53.4505 62.4304 60.4478 58.1826 67.3917 59.8718C74.3356 61.5609 78.5925 68.5464 76.914 75.4463C76.5767 76.833 76.0237 78.1088 75.3012 79.2544L100.533 85.3922C100.418 84.043 100.511 82.6545 100.848 81.2685C102.527 74.3685 109.525 70.1209 116.471 71.8105C123.417 73.5002 127.67 80.4848 125.992 87.3847C125.654 88.7715 125.101 90.0471 124.379 91.1928L138.59 94.6498L138.609 94.5751L142.906 95.6205C144.124 95.9167 145.341 95.176 145.635 93.9682L147.698 85.4891C147.926 84.5499 147.347 83.5951 146.399 83.3617L146.397 83.3606ZM76.7129 46.468C76.6014 46.9262 76.1375 47.2061 75.678 47.0943L50.586 40.9905C50.1271 40.8789 49.8436 40.4172 49.9551 39.959L51.4103 33.9768C51.46 33.7723 51.5835 33.5942 51.7575 33.4762L60.5699 27.4429C60.7715 27.306 61.0217 27.26 61.2583 27.3175L79.4144 31.7341C79.874 31.8459 80.1575 32.3075 80.0461 32.7657L76.713 46.4674L76.7129 46.468ZM114.61 55.9092C114.415 56.208 114.052 56.3519 113.704 56.2673L80.9858 48.3085C80.5324 48.1982 80.2533 47.7419 80.3631 47.2904L83.6657 33.7139C83.7755 33.2624 84.233 32.9853 84.6865 33.0957L90.52 34.5147C97.1138 36.1187 103.019 39.9546 107.147 45.3167L114.572 54.9364C114.79 55.2196 114.807 55.6086 114.61 55.9092Z" fill="#FEEEBA"/>
<path d="M146.404 83.3611L147.963 76.9557C148.679 74.0093 147.288 70.9514 144.595 69.5402L123.601 58.5547L110.226 41.2212C109.331 40.0593 108.355 38.9708 107.31 37.9612C106.601 39.4186 105.785 41.0004 104.851 42.671C105.668 43.5053 106.439 44.3877 107.154 45.3179L114.579 54.9375C114.797 55.2208 114.814 55.6098 114.617 55.9103C114.422 56.2092 114.059 56.3531 113.711 56.2685L98.4719 52.5615C93.3412 59.4968 86.4139 66.7612 77.2814 72.5919C77.2685 73.5366 77.1533 74.4927 76.9211 75.4475C76.5837 76.8342 76.0307 78.11 75.3083 79.2555L100.54 85.3933C100.425 84.0441 100.518 82.6557 100.855 81.2696C102.534 74.3697 109.532 70.1221 116.478 71.8117C123.424 73.5014 127.677 80.486 125.999 87.3859C125.661 88.7726 125.108 90.0483 124.386 91.194L138.597 94.651L138.616 94.5763L142.913 95.6217C144.131 95.9179 145.348 95.1771 145.642 93.9694L147.705 85.4903C147.933 84.551 147.354 83.5962 146.406 83.3629L146.404 83.3611Z" fill="#FEEEBA"/>
</g>
<defs>
<clipPath id="clip0_1831_116148">
<rect width="146.746" height="69.6154" fill="white" transform="translate(16.5536) scale(1.00602) rotate(13.672)"/>
</clipPath>
</defs>
</svg>
