<svg width="41" height="23" viewBox="0 0 41 23" fill="none" xmlns="http://www.w3.org/2000/svg">
<path d="M22.8517 8.50295H23.6946C23.9444 8.50295 24.1473 8.4076 24.3034 8.21692C24.4595 8.02623 24.5375 7.81966 24.5375 7.59719C24.5375 7.37472 24.4595 7.16815 24.3034 6.97746C24.1473 6.78678 23.9444 6.69143 23.6946 6.69143H21.5406L20.2294 4.40321C19.7924 3.70403 19.246 3.16375 18.5905 2.78238C17.9349 2.40101 17.2012 2.21032 16.3896 2.21032H8.14796C7.33628 2.21032 6.60265 2.40101 5.94707 2.78238C5.29149 3.16375 4.74517 3.70403 4.30811 4.40321L2.99695 6.69143H0.842892C0.593146 6.69143 0.390228 6.78678 0.234137 6.97746C0.0780456 7.16815 0 7.37472 0 7.59719C0 7.81966 0.0780456 8.02623 0.234137 8.21692C0.390228 8.4076 0.593146 8.50295 0.842892 8.50295H1.77944L1.21751 9.17035C0.405837 10.3145 0 11.5857 0 12.9841V17.4652C0 18.1643 0.249746 18.7841 0.749237 19.3244C1.24873 19.8646 1.87309 20.1348 2.62233 20.1348H4.40177C5.08857 20.1348 5.69733 19.8646 6.22803 19.3244C6.75874 18.7841 7.0241 18.1643 7.0241 17.4652H17.5134C17.5134 18.1643 17.7788 18.7841 18.3095 19.3244C18.8402 19.8646 19.449 20.1348 20.1358 20.1348H21.9152C22.6644 20.1348 23.2888 19.8646 23.7883 19.3244C24.2878 18.7841 24.5375 18.1643 24.5375 17.4652V12.9841C24.5375 11.5857 24.1317 10.3145 23.32 9.17035L22.8517 8.50295ZM5.80659 5.35664C6.05633 4.9117 6.38413 4.578 6.78996 4.35554C7.1958 4.13307 7.64846 4.02184 8.14796 4.02184H16.3896C16.8891 4.02184 17.3417 4.13307 17.7476 4.35554C18.1534 4.578 18.4812 4.9117 18.7309 5.35664L19.8548 7.35883L19.2929 7.7402C18.5436 8.2487 17.7319 8.50295 16.8578 8.50295H7.67968C6.80557 8.50295 5.9939 8.2487 5.24466 7.7402L4.68273 7.35883L5.80659 5.35664ZM22.8517 17.4652C22.8517 17.6559 22.7581 17.8465 22.5708 18.0372C22.3835 18.2279 22.1649 18.3233 21.9152 18.3233H20.1358C19.9484 18.3233 19.7611 18.2279 19.5738 18.0372C19.3865 17.8465 19.2929 17.6559 19.2929 17.4652V16.5117C19.2929 16.2575 19.2148 16.0509 19.0587 15.892C18.9026 15.7331 18.6997 15.6537 18.45 15.6537H6.08755C5.83781 15.6537 5.63489 15.7331 5.4788 15.892C5.32271 16.0509 5.24466 16.2575 5.24466 16.5117V17.4652C5.24466 17.6559 5.15101 17.8465 4.9637 18.0372C4.77639 18.2279 4.58908 18.3233 4.40177 18.3233H2.62233C2.37258 18.3233 2.15406 18.2279 1.96675 18.0372C1.77944 17.8465 1.68578 17.6559 1.68578 17.4652V12.9841C1.74822 11.9671 2.0604 11.0772 2.62233 10.3145L3.65253 8.78897L4.30811 9.26569C5.36953 9.96487 6.49339 10.3145 7.67968 10.3145H16.8578C18.0441 10.3145 19.168 9.96487 20.2294 9.26569L20.885 8.78897L21.9152 10.3145C22.4771 11.0772 22.7581 11.9671 22.7581 12.9841V17.4652H22.8517ZM19.2929 12.9841C19.2929 13.2383 19.3709 13.4449 19.527 13.6038C19.6831 13.7627 19.886 13.8421 20.1358 13.8421C20.3855 13.8421 20.604 13.7627 20.7913 13.6038C20.9786 13.4449 21.0723 13.2383 21.0723 12.9841C21.0723 12.7298 20.9786 12.5073 20.7913 12.3167C20.604 12.126 20.3855 12.0306 20.1358 12.0306C19.886 12.0306 19.6831 12.126 19.527 12.3167C19.3709 12.5073 19.2929 12.7298 19.2929 12.9841ZM3.46522 12.9841C3.46522 13.2383 3.55888 13.4449 3.74619 13.6038C3.9335 13.7627 4.15202 13.8421 4.40177 13.8421C4.65152 13.8421 4.85443 13.7627 5.01052 13.6038C5.16662 13.4449 5.24466 13.2383 5.24466 12.9841C5.24466 12.7298 5.16662 12.5073 5.01052 12.3167C4.85443 12.126 4.65152 12.0306 4.40177 12.0306C4.15202 12.0306 3.9335 12.126 3.74619 12.3167C3.55888 12.5073 3.46522 12.7298 3.46522 12.9841Z" fill="#CE0000"/>
<path d="M9.04688 3.35632C9.04688 4.45393 10.4818 5.63612 11.1578 6.36306C11.4463 6.67329 11.6778 7.13936 11.9686 7.41908C12.2223 7.66303 13.1682 6.88961 13.3246 6.7884C13.4289 6.72093 14.6932 5.78023 14.7086 6.05505C14.726 6.36508 14.4888 6.84135 14.6108 7.12574C14.7606 7.47502 16.3546 6.54429 16.5959 6.39239" stroke="#CE0000" stroke-width="1.48947" stroke-linecap="round"/>
<circle cx="25.4287" cy="12.0001" r="9" fill="white"/>
<path d="M21.7048 11.552L23 12.3154L22.3198 8.21033L18.5595 9.69839L19.9643 10.5264L18.3782 13.5266C18.1134 14.0276 17.9832 14.589 18.0017 15.15C18.0192 15.6784 18.1676 16.2003 18.4307 16.6593C18.6937 17.1183 19.0652 17.5034 19.5049 17.7729C19.9719 18.059 20.5105 18.2103 21.0624 18.2103H22.1287V16.1386H21.0624C20.519 16.1386 20.2457 15.7639 20.1533 15.6028C20.061 15.4418 19.8745 15.0139 20.1352 14.5207L21.7048 11.5519V11.552Z" fill="black"/>
<path d="M32.5957 13.4049L31.9702 12.2103L30.0912 13.2835L30.7167 14.4782C30.9956 15.0106 30.7961 15.4725 30.6973 15.6464C30.5985 15.8204 30.3062 16.2249 29.7251 16.2249H26.3272V14.5025L23 17.3564L26.3272 20.2103V18.4616H29.7251C30.3153 18.4616 30.8913 18.2983 31.3907 17.9893C31.861 17.6984 32.2582 17.2826 32.5395 16.787C32.8209 16.2913 32.9795 15.7278 32.9981 15.1575C33.018 14.5516 32.8788 13.9456 32.5956 13.4049H32.5957Z" fill="black"/>
<path d="M24.4158 6.83465C24.6909 6.32442 25.1645 6.26941 25.3554 6.26941C25.5462 6.26941 26.0199 6.32452 26.2948 6.83465L27.945 9.89644L26.5008 10.7313L30.3108 12.2103L31 8.13025L29.7083 8.87702L28.0751 5.84667C27.7965 5.3297 27.3873 4.90541 26.8918 4.61988C26.4271 4.352 25.8957 4.21033 25.3555 4.21033H25.3554C24.8151 4.21033 24.2838 4.3519 23.819 4.61978C23.3235 4.9053 22.9143 5.32959 22.6357 5.84657L22 7.02604L23.7803 8.01401L24.4159 6.83465H24.4158Z" fill="black"/>
</svg>
