<svg width="21" height="21" viewBox="0 0 21 21" fill="none" xmlns="http://www.w3.org/2000/svg">
<path fill-rule="evenodd" clip-rule="evenodd" d="M9.78777 16.3725L6.24081 18.3212C5.7617 18.5844 5.16912 18.3919 4.91724 17.8912C4.81694 17.6919 4.78233 17.4635 4.81876 17.2415L5.49617 13.1141C5.5507 12.7819 5.44529 12.4429 5.2143 12.2076L2.34475 9.28455C1.95715 8.88972 1.94922 8.24129 2.32704 7.83624C2.47749 7.67494 2.67463 7.56998 2.88793 7.53759L6.85355 6.93541C7.17277 6.88694 7.44873 6.67742 7.59149 6.37513L9.36496 2.61993C9.60452 2.11269 10.1922 1.90444 10.6776 2.15477C10.8709 2.25446 11.0273 2.41795 11.1227 2.61993L12.8962 6.37513C13.039 6.67742 13.3149 6.88694 13.6341 6.93541L17.5997 7.53759C18.1354 7.61893 18.5065 8.13865 18.4287 8.69842C18.3977 8.92132 18.2973 9.12733 18.1429 9.28455L15.2734 12.2076C15.0424 12.4429 14.937 12.7819 14.9915 13.1141L15.6689 17.2415C15.7604 17.799 15.4021 18.3285 14.8686 18.4241C14.6562 18.4622 14.4376 18.426 14.2469 18.3212L10.6999 16.3725C10.4144 16.2156 10.0733 16.2156 9.78777 16.3725Z" fill="#CE0000" stroke="white" stroke-width="2"/>
</svg>
