<svg width="19" height="19" viewBox="0 0 19 19" fill="none" xmlns="http://www.w3.org/2000/svg">
<path d="M14.8233 0.929667L10.7549 0.559804L10.7427 0.558698C10.1359 0.503524 9.8306 0.475769 9.54063 0.52619C9.282 0.571162 9.03318 0.660827 8.8057 0.791855C8.55045 0.938884 8.33323 1.15611 7.90162 1.58774L7.89408 1.59528L2.1076 7.38195L2.10233 7.38721C1.21812 8.27145 0.775688 8.7139 0.609714 9.22473C0.463428 9.67496 0.463428 10.16 0.609714 10.6103C0.776016 11.1221 1.21993 11.5669 2.10765 12.4547L6.54587 16.893C7.43359 17.7808 7.8774 18.2237 8.38923 18.39C8.83944 18.5363 9.32437 18.5363 9.77459 18.39C10.2864 18.2237 10.7303 17.7805 11.618 16.8928L17.4045 11.1061C17.8411 10.6695 18.0595 10.4511 18.2073 10.1943C18.3384 9.96685 18.4284 9.71789 18.4734 9.45925C18.5242 9.16734 18.4962 8.85978 18.4403 8.24481L18.0705 4.17631L18.0704 4.17531C17.9742 3.11704 17.926 2.58744 17.6957 2.17322C17.4926 1.80791 17.1913 1.50664 16.826 1.30349C16.4138 1.07426 15.8876 1.02642 14.8395 0.931141L14.8233 0.929667Z" fill="white" stroke="#CE0000" stroke-linecap="round" stroke-linejoin="round"/>
</svg>
