<svg width="8" height="12" viewBox="0 0 8 12" fill="none" xmlns="http://www.w3.org/2000/svg">
<path d="M6.25516 0.00038128C6.43148 0.000879864 6.60367 0.0516018 6.74996 0.146126C6.89624 0.24065 7.01003 0.374727 7.07693 0.531386C7.14383 0.688044 7.16082 0.860241 7.12577 1.02618C7.09071 1.19212 7.00518 1.34434 6.87999 1.46357L2.15646 6.00075L6.87665 10.5379C7.04399 10.6984 7.13812 10.916 7.13832 11.1431C7.13853 11.3702 7.04481 11.588 6.87776 11.7487C6.71072 11.9094 6.48404 11.9998 6.24759 12C6.01115 12.0002 5.78431 11.9102 5.61697 11.7498L0.261924 6.60721C0.178913 6.52772 0.113051 6.43328 0.0681119 6.32931C0.0231733 6.22533 4.10224e-05 6.11386 4.10322e-05 6.00129C4.10421e-05 5.88871 0.0231733 5.77724 0.0681119 5.67327C0.113051 5.56929 0.178913 5.47486 0.261924 5.39537L5.61697 0.251733C5.70061 0.171207 5.80013 0.107504 5.90971 0.0643454C6.01929 0.0211872 6.13673 -0.000557494 6.25516 0.00038128Z" fill="white"/>
</svg>
