<svg width="21" height="21" viewBox="0 0 21 21" fill="none" xmlns="http://www.w3.org/2000/svg">
<g clip-path="url(#clip0_0_3502)">
<path d="M19.0802 8.46757H19.784C19.9926 8.46757 20.162 8.38583 20.2923 8.22237C20.4226 8.0589 20.4878 7.88181 20.4878 7.6911C20.4878 7.50039 20.4226 7.3233 20.2923 7.15983C20.162 6.99637 19.9926 6.91463 19.784 6.91463H17.9855L16.8907 4.95304C16.5258 4.35366 16.0696 3.8905 15.5222 3.56357C14.9749 3.23664 14.3623 3.07317 13.6846 3.07317H6.8032C6.12549 3.07317 5.51294 3.23664 4.96556 3.56357C4.41817 3.8905 3.96202 4.35366 3.5971 4.95304L2.50233 6.91463H0.70378C0.495252 6.91463 0.325824 6.99637 0.195494 7.15983C0.0651648 7.3233 0 7.50039 0 7.6911C0 7.88181 0.0651648 8.0589 0.195494 8.22237C0.325824 8.38583 0.495252 8.46757 0.70378 8.46757H1.48576L1.01657 9.0397C0.338857 10.0205 0 11.1103 0 12.309V16.1505C0 16.7499 0.208527 17.2811 0.625582 17.7443C1.04264 18.2074 1.56395 18.439 2.18954 18.439H3.67529C4.24874 18.439 4.75703 18.2074 5.20015 17.7443C5.64327 17.2811 5.86483 16.7499 5.86483 16.1505H14.623C14.623 16.7499 14.8445 17.2811 15.2877 17.7443C15.7308 18.2074 16.2391 18.439 16.8125 18.439H18.2983C18.9238 18.439 19.4452 18.2074 19.8622 17.7443C20.2793 17.2811 20.4878 16.7499 20.4878 16.1505V12.309C20.4878 11.1103 20.1489 10.0205 19.4712 9.0397L19.0802 8.46757ZM4.84826 5.77037C5.05679 5.38895 5.33048 5.10288 5.66934 4.91217C6.00819 4.72146 6.38615 4.6261 6.8032 4.6261H13.6846C14.1017 4.6261 14.4796 4.72146 14.8185 4.91217C15.1573 5.10288 15.431 5.38895 15.6395 5.77037L16.5779 7.48677L16.1087 7.8137C15.4832 8.24961 14.8054 8.46757 14.0756 8.46757H6.41221C5.68237 8.46757 5.00465 8.24961 4.37907 7.8137L3.90989 7.48677L4.84826 5.77037ZM19.0802 16.1505C19.0802 16.314 19.002 16.4774 18.8457 16.6409C18.6893 16.8044 18.5068 16.8861 18.2983 16.8861H16.8125C16.6561 16.8861 16.4997 16.8044 16.3433 16.6409C16.1869 16.4774 16.1087 16.314 16.1087 16.1505V15.3332C16.1087 15.1152 16.0436 14.9381 15.9132 14.8019C15.7829 14.6657 15.6135 14.5976 15.405 14.5976H5.08285C4.87433 14.5976 4.7049 14.6657 4.57457 14.8019C4.44424 14.9381 4.37907 15.1152 4.37907 15.3332V16.1505C4.37907 16.314 4.30088 16.4774 4.14448 16.6409C3.98808 16.8044 3.83169 16.8861 3.67529 16.8861H2.18954C1.98101 16.8861 1.79855 16.8044 1.64215 16.6409C1.48576 16.4774 1.40756 16.314 1.40756 16.1505V12.309C1.45969 11.4372 1.72035 10.6744 2.18954 10.0205L3.04971 8.71277L3.5971 9.12143C4.48334 9.72081 5.42171 10.0205 6.41221 10.0205H14.0756C15.0661 10.0205 16.0045 9.72081 16.8907 9.12143L17.4381 8.71277L18.2983 10.0205C18.7675 10.6744 19.002 11.4372 19.002 12.309V16.1505H19.0802ZM16.1087 12.309C16.1087 12.527 16.1739 12.7041 16.3042 12.8403C16.4346 12.9765 16.604 13.0446 16.8125 13.0446C17.021 13.0446 17.2035 12.9765 17.3599 12.8403C17.5163 12.7041 17.5945 12.527 17.5945 12.309C17.5945 12.0911 17.5163 11.9004 17.3599 11.7369C17.2035 11.5734 17.021 11.4917 16.8125 11.4917C16.604 11.4917 16.4346 11.5734 16.3042 11.7369C16.1739 11.9004 16.1087 12.0911 16.1087 12.309ZM2.89332 12.309C2.89332 12.527 2.97151 12.7041 3.12791 12.8403C3.2843 12.9765 3.46677 13.0446 3.67529 13.0446C3.88382 13.0446 4.05325 12.9765 4.18358 12.8403C4.31391 12.7041 4.37907 12.527 4.37907 12.309C4.37907 12.0911 4.31391 11.9004 4.18358 11.7369C4.05325 11.5734 3.88382 11.4917 3.67529 11.4917C3.46677 11.4917 3.2843 11.5734 3.12791 11.7369C2.97151 11.9004 2.89332 12.0911 2.89332 12.309Z" fill="white"/>
</g>
<defs>
<clipPath id="clip0_0_3502">
<rect width="20.5" height="20.5" fill="white" transform="scale(1.02439)"/>
</clipPath>
</defs>
</svg>
