<svg width="21" height="20" viewBox="0 0 21 20" fill="none" xmlns="http://www.w3.org/2000/svg">
<path d="M12.1869 2.09654L13.8999 5.36645C14.1334 5.81234 14.7563 6.25824 15.2754 6.33255L18.3768 6.82799C20.3622 7.15002 20.8293 8.51249 19.4019 9.87495L16.9883 12.1787C16.586 12.5627 16.3524 13.3183 16.4822 13.8632L17.17 16.7244C17.715 18.9787 16.4563 19.8581 14.367 18.6814L11.4603 17.0341C10.9282 16.7368 10.0718 16.7368 9.53975 17.0341L6.63297 18.6814C4.54374 19.8581 3.285 18.9787 3.83002 16.7244L4.51782 13.8632C4.64758 13.3306 4.41399 12.5751 4.01171 12.1787L1.59809 9.87495C0.170665 8.51249 0.637793 7.13764 2.62321 6.82799L5.72463 6.33255C6.24369 6.24585 6.86657 5.81234 7.10014 5.36645L8.81306 2.09654C9.7344 0.325347 11.2656 0.325347 12.1869 2.09654Z" stroke="black" stroke-width="1.5" stroke-linecap="round" stroke-linejoin="round"/>
</svg>
