<svg width="11" height="11" viewBox="0 0 11 11" fill="none" xmlns="http://www.w3.org/2000/svg">
<path fill-rule="evenodd" clip-rule="evenodd" d="M5.19387 9.61308L2.8134 10.9209C2.49186 11.0976 2.09416 10.9684 1.92511 10.6324C1.8578 10.4985 1.83457 10.3453 1.85902 10.1963L2.31365 7.42629C2.35025 7.20331 2.2795 6.97579 2.12448 6.81788L0.198637 4.85615C-0.0614974 4.59117 -0.0668203 4.15599 0.186748 3.88414C0.287721 3.77589 0.420025 3.70545 0.563178 3.68371L3.22463 3.27957C3.43887 3.24704 3.62407 3.10642 3.71988 2.90355L4.91012 0.383317C5.07089 0.0428944 5.4653 -0.0968747 5.79106 0.0711338C5.92078 0.138036 6.02578 0.247759 6.0898 0.383317L7.28003 2.90355C7.37584 3.10642 7.56105 3.24704 7.77529 3.27957L10.4367 3.68371C10.7962 3.7383 11.0453 4.0871 10.9931 4.46278C10.9723 4.61237 10.9049 4.75063 10.8013 4.85615L8.87544 6.81788C8.72041 6.97579 8.64967 7.20331 8.68626 7.42629L9.14089 10.1963C9.2023 10.5705 8.96183 10.9258 8.60379 10.99C8.46121 11.0155 8.31455 10.9912 8.18651 10.9209L5.80604 9.61308C5.61442 9.50781 5.3855 9.50781 5.19387 9.61308Z" fill="#CE0000"/>
</svg>
