<svg width="8" height="12" viewBox="0 0 8 12" fill="none" xmlns="http://www.w3.org/2000/svg">
<path d="M6.25542 -0.000108681C6.43174 0.000389924 6.60394 0.0511139 6.75023 0.145642C6.89652 0.24017 7.01032 0.374252 7.07722 0.530917C7.14412 0.687582 7.16112 0.859786 7.12606 1.02573C7.091 1.19168 7.00546 1.3439 6.88027 1.46314L2.15655 6.00051L6.87693 10.5379C7.04428 10.6983 7.13841 10.916 7.13862 11.1431C7.13883 11.3701 7.04509 11.588 6.87804 11.7487C6.71099 11.9094 6.4843 11.9998 6.24785 12C6.0114 12.0002 5.78454 11.9102 5.6172 11.7498L0.261935 6.60699C0.17892 6.5275 0.113055 6.43306 0.0681147 6.32908C0.0231742 6.2251 4.10241e-05 6.11362 4.10339e-05 6.00104C4.10438e-05 5.88846 0.0231742 5.77699 0.0681147 5.67301C0.113055 5.56903 0.17892 5.47459 0.261935 5.3951L5.6172 0.251254C5.70084 0.170724 5.80037 0.107018 5.90995 0.063858C6.01953 0.0206981 6.13698 -0.00104749 6.25542 -0.000108681Z" fill="white"/>
</svg>
